<?xml version="1.0" encoding="UTF-8" standalone="no"?>
<!-- Created with Inkscape (http://www.inkscape.org/) -->

<svg
   xmlns:dc="http://purl.org/dc/elements/1.1/"
   xmlns:cc="http://creativecommons.org/ns#"
   xmlns:rdf="http://www.w3.org/1999/02/22-rdf-syntax-ns#"
   xmlns:svg="http://www.w3.org/2000/svg"
   xmlns="http://www.w3.org/2000/svg"
   xmlns:sodipodi="http://sodipodi.sourceforge.net/DTD/sodipodi-0.dtd"
   xmlns:inkscape="http://www.inkscape.org/namespaces/inkscape"
   width="102.74623mm"
   height="56.196743mm"
   viewBox="0 0 102.74623 56.196743"
   version="1.1"
   id="svg8"
   inkscape:version="0.92.5 (2060ec1f9f, 2020-04-08)"
   sodipodi:docname="glass_cell_vicinity.svg">
  <defs
     id="defs2" />
  <sodipodi:namedview
     id="base"
     pagecolor="#ffffff"
     bordercolor="#666666"
     borderopacity="1.0"
     inkscape:pageopacity="0.0"
     inkscape:pageshadow="2"
     inkscape:zoom="1.4"
     inkscape:cx="-12.51885"
     inkscape:cy="195.09956"
     inkscape:document-units="mm"
     inkscape:current-layer="layer1"
     showgrid="false"
     inkscape:pagecheckerboard="false"
     inkscape:window-width="1920"
     inkscape:window-height="1015"
     inkscape:window-x="0"
     inkscape:window-y="36"
     inkscape:window-maximized="1"
     fit-margin-top="0"
     fit-margin-left="0"
     fit-margin-right="0"
     fit-margin-bottom="0" />
  <metadata
     id="metadata5">
    <rdf:RDF>
      <cc:Work
         rdf:about="">
        <dc:format>image/svg+xml</dc:format>
        <dc:type
           rdf:resource="http://purl.org/dc/dcmitype/StillImage" />
        <dc:title></dc:title>
      </cc:Work>
    </rdf:RDF>
  </metadata>
  <g
     inkscape:label="Layer 1"
     inkscape:groupmode="layer"
     id="layer1"
     transform="translate(-43.891521,-200.76958)">
    <path
       style="opacity:1;fill:#00ffff;fill-opacity:1;stroke:none;stroke-width:0.1233415;stroke-miterlimit:4;stroke-dasharray:none;stroke-opacity:0"
       id="path1379"
       d="m 59.391329,219.21026 c 0.0714,0.046 0.13991,0.0968 0.21421,0.13792 0.106684,0.0591 0.220006,0.10535 0.327908,0.16215 0.616208,0.32435 1.211934,0.66515 1.854233,0.94005 0.295055,0.12629 0.596673,0.23665 0.895009,0.35497 2.590877,1.00334 5.270851,1.74374 7.931113,2.53544 2.927095,0.84424 5.840683,1.73488 8.770999,2.56794 0.758581,0.20599 1.522472,0.39564 2.266089,0.65251 0.274009,0.0947 0.537002,0.18178 0.761034,0.36657 0.0089,0.0419 0.02924,0.083 0.02663,0.12576 -0.0092,0.14986 -0.14823,0.33706 -0.189447,0.48494 -0.09661,0.34661 -0.0736,0.34613 -0.08897,0.72168 0.01075,0.91322 0.132823,1.82066 0.23282,2.72729 0.0299,0.39439 0.06278,0.78469 0.138063,1.17286 0.04366,0.2614 -0.04806,0.53395 -0.122859,0.78406 -0.08758,0.24861 -0.115764,0.51052 -0.163492,0.76787 -0.08021,0.23829 -0.253985,0.45058 -0.528984,0.44675 -0.63946,-0.009 -1.278493,-0.0375 -1.917741,-0.0563 -0.675828,-0.35311 -1.343689,-0.7208 -2.021065,-1.07151 -0.804215,-0.37661 -1.609023,-0.75197 -2.422292,-1.10868 -1.318969,-0.55948 -2.643742,-1.10395 -3.960898,-1.66791 -1.33509,-0.60253 -2.707606,-1.12091 -4.029592,-1.75195 -1.016998,-0.48038 -1.999435,-1.0288 -3.009368,-1.52292 -0.621707,-0.30558 -1.240968,-0.63426 -1.893928,-0.87091 -0.198825,-0.0721 -0.772363,-0.23691 -0.969541,-0.2948 -0.866582,-0.24208 -1.754866,-0.38357 -2.64211,-0.5237 -0.26118,-0.0427 -0.523992,-0.0718 -0.78737,-0.0963 0,0 1.697862,-0.25073 1.697862,-0.25073 v 0 c 0.257683,0.0302 0.514846,0.0641 0.77057,0.10844 0.881147,0.14744 1.763298,0.29686 2.622331,0.54807 0.324594,0.0974 0.658995,0.19111 0.976108,0.31223 0.648495,0.2477 1.264644,0.5775 1.886814,0.88233 1.003556,0.50208 1.989972,1.0382 3.003287,1.52101 1.311578,0.62175 2.662299,1.1568 3.986793,1.75015 1.334728,0.56755 2.683359,1.09966 4.019864,1.66274 0.815231,0.35818 1.624764,0.73014 2.425792,1.11901 0.125635,0.0648 0.674121,0.34728 0.801009,0.41463 0.330736,0.17553 0.657237,0.37504 1.003031,0.52081 0.07921,0.0334 0.162576,0.0559 0.243864,0.0839 -0.49609,0.009 -0.992386,0.0102 -1.488271,0.0271 -0.09461,0.003 0.192808,0.0366 0.283807,0.0105 0.10479,-0.03 0.174592,-0.13529 0.220739,-0.22454 0.05137,-0.26313 0.07648,-0.53195 0.163779,-0.78775 0.07233,-0.22109 0.156779,-0.46771 0.121311,-0.70034 -0.06785,-0.3935 -0.08118,-0.78979 -0.107517,-1.18789 -0.07521,-0.91617 -0.186076,-1.83002 -0.224013,-2.74866 0.0067,-0.34207 -0.0049,-0.82948 0.192982,-1.13526 0.008,-0.0123 0.0296,-0.009 0.0391,-0.02 0.0037,-0.004 -0.0074,-0.009 -0.01116,-0.0128 -0.212404,-0.14374 -0.449274,-0.23186 -0.690526,-0.31796 -0.717709,-0.2561 -1.456632,-0.44407 -2.187765,-0.65647 -2.900829,-0.85527 -5.789285,-1.75195 -8.69869,-2.57824 -2.692852,-0.79303 -5.406023,-1.5329 -8.030389,-2.53733 -1.170631,-0.46625 -2.330821,-0.97686 -3.412362,-1.62676 0,0 1.721206,-0.16006 1.721206,-0.16006 z"
       inkscape:connector-curvature="0" />
    <path
       style="opacity:1;fill:#00ffff;fill-opacity:1;stroke:none;stroke-width:0.1233415;stroke-miterlimit:4;stroke-dasharray:none;stroke-opacity:0"
       id="path1381"
       d="m 82.621683,233.82156 c 0.963524,0.23377 1.951971,0.36132 2.93571,0.47898 0.84329,0.0969 1.691277,0.13884 2.539498,0.15679 0.625997,3.2e-4 1.795154,0.0363 -1.078825,-0.004 -0.04736,-6.1e-4 0.117793,-0.0113 0.124367,-0.0205 0.0099,-0.0138 0.0052,-0.0336 0.0078,-0.0503 -0.196487,-0.40403 -0.28167,-0.84083 -0.348234,-1.28147 -0.07892,-0.67348 -0.08916,-1.35281 -0.09721,-2.03015 -0.03896,-0.55605 0.02856,-1.10216 0.115779,-1.64937 0.04514,-0.37442 0.200899,-0.72523 0.252635,-1.09691 -0.0075,-0.0381 -0.0052,-0.0795 -0.02238,-0.11426 -0.134905,-0.27241 -0.863775,-0.33239 -1.10391,-0.36752 -0.636503,-0.11399 -1.285636,-0.11281 -1.926632,-0.17812 -0.169621,-0.0173 -0.79609,-0.11772 -0.96821,-0.1447 -0.599505,-0.11343 -1.19689,-0.23452 -1.802021,-0.31394 0,0 1.691657,-0.24365 1.691657,-0.24365 v 0 c 0.594429,0.09 1.181608,0.2175 1.77391,0.32003 0.348934,0.0524 0.613126,0.097 0.965449,0.13018 0.647506,0.061 1.299794,0.0817 1.942302,0.19237 0.463307,0.083 1.130748,0.15545 1.175725,0.74212 -0.04676,0.37598 -0.213523,0.72507 -0.263201,1.10224 -0.09029,0.5372 -0.16712,1.07224 -0.12905,1.61968 0.0066,0.66915 0.01145,1.34076 0.100354,2.00519 0.04541,0.27326 0.09309,0.53979 0.185509,0.80192 0.04432,0.1257 0.108991,0.2436 0.153114,0.36937 0.01742,0.0497 0.02657,0.10182 0.03986,0.15274 -0.007,0.10524 -0.0021,0.30472 -0.16064,0.31064 -0.771492,0.0288 -1.544497,0.0289 -2.316365,0.011 -0.834949,-0.0273 -1.669391,-0.077 -2.498918,-0.17919 -1.004756,-0.12673 -2.013635,-0.25798 -2.999241,-0.49482 0,0 1.711218,-0.22452 1.711218,-0.22452 z"
       inkscape:connector-curvature="0" />
    <path
       style="opacity:1;fill:#00ffff;fill-opacity:1;stroke:none;stroke-width:0.1233415;stroke-miterlimit:4;stroke-dasharray:none;stroke-opacity:0"
       id="path1383"
       d="m 86.210273,227.2954 c -0.82934,-0.4432 -1.67185,-0.8615 -2.504346,-1.29935 -1.279525,-0.70173 -2.587629,-1.35379 -3.91276,-1.96484 -1.484925,-0.6252 -2.930594,-1.33621 -4.422058,-1.94572 -1.111186,-0.50072 -2.20365,-1.0445 -3.27977,-1.61666 -0.852554,-0.47938 -1.736678,-0.89731 -2.629414,-1.29529 -0.6384,-0.30377 -1.309039,-0.49505 -2.00015,-0.63102 -0.54595,-0.0974 -1.10063,-0.12377 -1.653971,-0.13524 -0.242796,0.0117 -0.480131,-0.0105 -0.719701,-0.0453 0,0 1.708826,-0.24884 1.708826,-0.24884 v 0 c 0.234882,0.0247 0.469981,0.0281 0.706081,0.0305 0.551143,0.0191 1.103134,0.0572 1.644696,0.16722 0.689583,0.15107 1.356428,0.36094 1.993795,0.66934 0.885796,0.40565 1.760747,0.83465 2.612849,1.30768 1.067476,0.56188 2.141777,1.11392 3.243957,1.60498 1.486541,0.62182 2.938083,1.32193 4.420894,1.95274 1.330802,0.61959 2.648104,1.27012 3.938802,1.96977 0.848326,0.4397 1.700107,0.87327 2.567169,1.275 0,0 -1.714899,0.20509 -1.714899,0.20509 z"
       inkscape:connector-curvature="0" />
    <path
       style="opacity:1;fill:#2b0000;fill-opacity:1;stroke:none;stroke-width:0.1233415;stroke-miterlimit:4;stroke-dasharray:none;stroke-opacity:0"
       id="path1395"
       d="m 78.7514,222.8389 c 0.411435,0.32424 0.878789,0.54351 1.381284,0.68 0.509923,0.0863 1.027917,0.12409 1.543519,0.16446 0.564784,0.0313 1.119165,0.16421 1.6741,0.268 0.518687,0.0833 1.04331,0.11269 1.567695,0.12862 0.182156,0.004 0.364373,0.006 0.546575,0.006 0.05323,7e-5 0.212925,-9e-5 0.159694,-1.1e-4 -1.438732,-4.8e-4 -2.09368,-3e-5 -1.405187,-4.8e-4 0.296099,-0.003 0.592338,0.004 0.888237,-0.008 0.289286,-0.0419 0.579743,-0.10786 0.839504,-0.24484 0.23845,-0.15595 0.406031,-0.38818 0.523845,-0.64357 0.105934,-0.2478 0.210761,-0.46824 0.143458,-0.73867 -0.149997,-0.27445 -0.416287,-0.35894 -0.705215,-0.40671 -0.193841,-0.0199 -0.09777,-0.005 -0.288212,-0.0454 0,0 1.711401,-0.23822 1.711401,-0.23822 v 0 c 0.190529,0.0317 0.09446,0.0145 0.288194,0.0519 0.328055,0.0955 0.593168,0.26835 0.720285,0.60091 0.01147,0.0572 0.02936,0.11359 0.03442,0.17175 0.0202,0.23203 -0.1001,0.46504 -0.177186,0.67558 -0.118554,0.28569 -0.292062,0.54644 -0.530542,0.74681 -0.255042,0.1849 -0.5512,0.24985 -0.852996,0.32532 -0.294645,0.0402 -0.59276,0.0155 -0.889583,0.0231 -0.901429,0.002 -1.803369,0.0141 -2.704539,-0.0128 -0.523632,-0.0235 -1.047305,-0.0618 -1.5638,-0.15534 -0.552368,-0.1074 -1.106516,-0.22291 -1.669996,-0.25018 -0.519622,-0.0446 -1.046216,-0.0715 -1.553454,-0.19927 -0.507072,-0.16644 -0.974774,-0.41807 -1.400242,-0.74187 0,0 1.718743,-0.1568 1.718743,-0.1568 z"
       inkscape:connector-curvature="0" />
    <path
       style="opacity:1;fill:#2b0000;fill-opacity:1;stroke:none;stroke-width:0.1233415;stroke-miterlimit:4;stroke-dasharray:none;stroke-opacity:0"
       id="path1397"
       d="m 77.403638,222.86153 c -0.238069,-0.42695 -0.375034,-0.90026 -0.567003,-1.34776 -0.08222,-0.19167 -0.311662,-0.65553 -0.40317,-0.84286 -0.397653,-0.74994 -0.80507,-1.49458 -1.264888,-2.20845 -0.277178,-0.42152 -0.614925,-0.79598 -0.880068,-1.22542 -0.25298,-0.42087 -0.486175,-0.85294 -0.725608,-1.28147 -0.215884,-0.35041 -0.448183,-0.69246 -0.598289,-1.07754 -0.171476,-0.36697 -0.361888,-0.72502 -0.51631,-1.09992 -0.193612,-0.39939 -0.315447,-0.80843 -0.374237,-1.24731 -0.05549,-0.81836 -0.121675,-1.63574 -0.183623,-2.45364 -0.05851,-0.83929 -0.08584,-1.68034 -0.09693,-2.52147 -0.0073,-0.67849 -0.105917,-1.34637 -0.207667,-2.01534 -0.105892,-0.53882 -0.190537,-1.0811 -0.244759,-1.62751 -0.03622,-0.22911 -0.01632,-0.12038 -0.05829,-0.32644 0,0 1.726527,-0.0313 1.726527,-0.0313 v 0 c 0.03547,0.21588 0.01835,0.10184 0.05031,0.3423 0.04417,0.54346 0.125303,1.08209 0.226714,1.6178 0.09914,0.6771 0.205682,1.35145 0.202715,2.03848 0.0094,0.83747 0.02218,1.67532 0.08278,2.51101 0.05976,0.81489 0.137129,1.62841 0.2156,2.44167 0.06522,0.42268 0.195398,0.81686 0.379372,1.2035 0.159859,0.37393 0.350203,0.73269 0.5199,1.10191 0.157383,0.37296 0.383604,0.7085 0.587047,1.0571 0.236105,0.42832 0.472177,0.85715 0.731802,1.27183 0.268949,0.42074 0.596289,0.79965 0.857118,1.22623 0.449222,0.72444 0.855538,1.47315 1.251433,2.2279 0.116995,0.2416 0.297991,0.60959 0.405422,0.85488 0.19284,0.44031 0.339383,0.90768 0.608156,1.31038 0,0 -1.724044,0.10149 -1.724044,0.10149 z"
       inkscape:connector-curvature="0" />
    <path
       style="opacity:1;fill:#2b0000;fill-opacity:1;stroke:none;stroke-width:0.1233415;stroke-miterlimit:4;stroke-dasharray:none;stroke-opacity:0"
       id="path1399"
       d="m 86.879024,221.50296 c 0.304527,-0.40051 0.590754,-0.81412 0.867243,-1.23429 0.197301,-0.26739 0.353879,-0.55944 0.494651,-0.8594 0.122418,-0.26038 0.162339,-0.54613 0.221852,-0.82485 0.072,-0.27564 0.05278,-0.56391 0.117108,-0.83942 0.0825,-0.26622 0.169286,-0.5313 0.238821,-0.80128 0.04309,-0.29793 0.157112,-0.565 0.292873,-0.83008 0.135578,-0.3006 0.289082,-0.59076 0.414489,-0.89584 0.148704,-0.32475 0.301046,-0.64654 0.435392,-0.97763 0.137578,-0.32235 0.308523,-0.6282 0.465484,-0.94124 0.136355,-0.27989 0.246505,-0.5656 0.301623,-0.87214 0.0613,-0.51085 0.0545,-1.02738 0.06232,-1.54108 0.0038,-0.70293 0.03459,-1.40612 -0.01438,-2.10823 -0.02363,-0.33896 -0.07594,-0.7772 -0.113756,-1.11627 -0.08174,-0.78392 -0.165375,-1.56722 -0.268624,-2.34859 -0.04475,-0.35944 -0.07921,-0.71966 -0.08616,-1.08184 -0.0122,-0.30532 0.01508,-0.61248 -0.01732,-0.9166 -0.02873,-0.1131 -0.09427,-0.25672 -0.237516,-0.2333 -0.03162,0.005 -0.122459,0.0317 -0.09043,0.0326 0.537492,0.0141 1.07534,0.005 1.613007,0.007 -0.402311,0.17545 -0.817749,0.3138 -1.233319,0.45448 -0.64965,0.22905 -1.332667,0.33211 -2.013934,0.41249 -0.675075,0.0725 -1.346884,0.17066 -2.021893,0.24356 -0.580525,0.0284 -1.118712,0.26486 -1.680022,0.39427 -1.146529,0.21551 -2.324777,0.15456 -3.479929,0.0315 -0.605306,-0.10246 -1.213662,-0.17354 -1.826332,-0.20985 -0.580104,-0.0492 -1.157006,-0.12492 -1.736013,-0.18433 -0.643328,-0.10926 -1.277934,-0.26097 -1.910504,-0.41991 -0.480407,-0.1018 -0.939178,-0.29773 -1.35922,-0.55017 -0.329967,-0.23497 -0.628662,-0.51088 -0.899186,-0.81159 -0.261762,-0.31067 -0.560668,-0.58579 -0.877385,-0.83883 -0.20863,-0.17748 -0.497742,-0.24907 -0.682934,-0.45102 -0.0072,-0.10063 -0.03317,-0.17048 0.05466,-0.25431 0.15728,-0.1501 0.827018,-0.13724 1.030852,-0.14549 1.481458,-0.0274 2.96356,-0.017 4.445162,-0.0168 0.948556,6.1e-4 1.897112,10e-4 2.845668,10e-4 0.978414,5.5e-4 1.956829,6.2e-4 2.935243,0.001 0.182986,1.1e-4 0.731947,2.4e-4 0.548962,3.1e-4 -0.369996,1.3e-4 -0.739992,1.5e-4 -1.109987,-1.1e-4 -0.170338,-1.2e-4 0.340675,-2.8e-4 0.511012,-3.1e-4 0.500663,-1.1e-4 1.001324,-8e-5 1.501984,-3.9e-4 1.375119,0.0149 2.753028,-0.0426 4.126601,0.0364 0.553142,0.0731 1.113226,0.10385 1.657581,0.23021 0.496725,0.1412 0.64988,0.37621 0.758873,0.8587 0.109083,0.60235 -0.209388,1.01667 -0.623469,1.41007 -0.376772,0.32218 -0.795501,0.5866 -1.207642,0.85947 0,0 -1.704402,-0.16761 -1.704402,-0.16761 v 0 c 0.406254,-0.27566 0.836102,-0.51725 1.213531,-0.83484 0.380989,-0.32078 0.711279,-0.69342 0.601954,-1.22517 -0.121341,-0.44094 -0.29083,-0.56225 -0.737297,-0.6677 -0.540709,-0.10248 -1.09093,-0.1506 -1.637953,-0.20656 -0.810807,-0.0414 -0.378269,-0.0123 0.947758,-0.0292 0.135155,-0.002 -0.270328,-1.6e-4 -0.405492,-2.4e-4 -1.348591,-6.2e-4 0.528046,1.9e-4 -0.878366,-2.6e-4 -0.150476,-5e-5 -0.30095,-2.2e-4 -0.451424,-3.2e-4 -1.588754,-0.001 -3.177508,-6.2e-4 -4.766261,-4.9e-4 -0.981818,2.6e-4 -1.963636,5.6e-4 -2.945454,3.9e-4 -0.945973,-6.1e-4 -1.891946,-0.002 -2.837919,-0.002 0.38413,-2e-5 0.768261,-1.2e-4 1.15239,-4e-5 0.162699,4e-5 -0.325396,-2e-5 -0.488095,1.8e-4 -0.45551,5.6e-4 -0.911076,0.001 -1.366555,0.007 -0.135503,0.002 -0.27099,0.005 -0.406487,0.007 -0.310419,0.01 -0.332153,0.008 -0.626753,0.0254 -0.117698,0.007 -0.237545,0.0382 -0.353344,0.0161 -0.02125,-0.004 -0.03602,-0.024 -0.05403,-0.0359 -8.02e-4,-0.004 -0.0017,-0.007 -0.0025,-0.0107 0.22053,0.15232 0.466979,0.26681 0.670846,0.44398 0.313735,0.26365 0.603762,0.55388 0.87372,0.86227 0.272809,0.28222 0.562744,0.55332 0.898319,0.76009 0.419474,0.23015 0.865138,0.40867 1.335312,0.50498 0.631727,0.15489 1.264924,0.30946 1.910417,0.39618 0.578404,0.063 1.15604,0.13359 1.736364,0.17749 0.610628,0.0446 1.215448,0.12989 1.821239,0.21707 0.629276,0.0637 1.834424,0.082 -0.768789,0.0743 -0.101353,-2.9e-4 0.202446,-0.0108 0.303466,-0.019 0.09489,-0.008 0.189653,-0.0173 0.284162,-0.0289 0.09525,-0.0116 0.189996,-0.0269 0.284993,-0.0404 0.224197,-0.0448 0.330551,-0.0611 0.550565,-0.12504 0.279847,-0.0814 0.557084,-0.21337 0.844405,-0.26628 0.0954,-0.0176 0.193496,-0.0141 0.290244,-0.0212 0.678631,-0.0657 1.352671,-0.16557 2.030215,-0.24094 0.674155,-0.0695 1.350411,-0.16162 1.996251,-0.37562 0.405864,-0.14847 0.83529,-0.2468 1.211368,-0.46661 0.606578,-0.0178 1.212922,-0.0478 1.819737,-0.0533 0.211035,-0.002 0.309908,0.29639 0.34223,0.45236 0.0273,0.3088 0.0035,0.61955 0.01584,0.92924 0.01,0.3559 0.02894,0.71161 0.06888,1.06556 0.08377,0.78311 0.154579,1.56705 0.229971,2.35101 0.03087,0.2974 0.08868,0.83204 0.109557,1.12604 0.05005,0.70471 0.02697,1.41108 0.04323,2.11684 0.0051,0.52265 0.0213,1.0488 -0.03303,1.56932 -0.05116,0.32594 -0.162198,0.62651 -0.302784,0.92471 -0.159178,0.30752 -0.322859,0.61239 -0.468322,0.92663 -0.135419,0.33046 -0.276334,0.65687 -0.431965,0.97841 -0.127663,0.30901 -0.276665,0.60445 -0.416429,0.90812 -0.12443,0.25635 -0.252984,0.50449 -0.28772,0.79331 -0.06767,0.27041 -0.149547,0.53728 -0.237335,0.80179 -0.07732,0.26973 -0.04253,0.56052 -0.118796,0.83252 -0.06279,0.29061 -0.101264,0.58864 -0.223585,0.86252 -0.139499,0.31135 -0.299047,0.61408 -0.507137,0.88599 -0.280741,0.41597 -0.570216,0.82574 -0.852205,1.24079 0,0 -1.728045,-0.10732 -1.728045,-0.10732 z"
       inkscape:connector-curvature="0" />
    <path
       style="opacity:1;fill:#2b0000;fill-opacity:1;stroke:none;stroke-width:0.1233415;stroke-miterlimit:4;stroke-dasharray:none;stroke-opacity:0"
       id="path1401"
       d="m 78.472554,237.3087 c -0.163276,0.52527 -0.03721,0.82406 0.261273,1.25955 0.294754,0.3775 0.706342,0.60608 1.131158,0.80643 0.502605,0.21004 1.039769,0.27081 1.577859,0.3066 0.657647,0.0385 3.211009,0.0262 0.278219,0.0259 0.663223,-0.007 1.327109,0.0213 1.98813,-0.0415 0.592066,-0.0443 1.148619,-0.22164 1.692447,-0.44868 0.450834,-0.19811 0.90537,-0.39501 1.28985,-0.7075 0.289163,-0.30855 0.362782,-0.46514 0.06955,-0.80392 -0.548835,-0.44823 -1.22659,-0.67742 -1.902514,-0.85292 -0.988862,-0.23605 -2.005067,-0.31172 -3.017568,-0.3601 -0.716161,-0.0362 -3.328289,-0.0248 -0.15256,-0.0235 -0.37405,-0.0136 -0.74261,0.009 -1.106252,0.098 -0.316115,0.12342 -0.634759,0.23316 -0.96267,0.3205 -0.03928,0.0137 -0.07856,0.0274 -0.117847,0.0411 0,0 -1.718104,-0.20094 -1.718104,-0.20094 v 0 c 0.04094,-0.0208 0.08188,-0.0416 0.122817,-0.0625 0.324563,-0.10041 0.66446,-0.15654 0.967882,-0.31993 0.363271,-0.11973 0.735651,-0.16434 1.118377,-0.1446 1.170953,-1.1e-4 2.343524,-0.0176 3.513789,0.037 1.014864,0.0585 2.032732,0.14727 3.021481,0.39594 0.6965,0.19947 1.420974,0.44285 1.949279,0.96158 0.04155,0.0628 0.09179,0.12068 0.124671,0.18845 0.156732,0.32303 0.02685,0.62613 -0.197627,0.87178 -0.373416,0.35121 -0.844433,0.55345 -1.307975,0.76004 -0.545267,0.23919 -1.099207,0.44935 -1.699005,0.49808 -0.663202,0.0866 -1.330628,0.0529 -1.998079,0.0593 -1.213724,0 -2.431231,0.0243 -3.644296,-0.0378 -0.548276,-0.0494 -1.093267,-0.133 -1.596492,-0.37006 -0.435568,-0.22614 -0.845919,-0.48792 -1.133375,-0.89781 -0.306063,-0.49031 -0.423147,-0.83734 -0.281164,-1.41417 0,0 1.728743,0.0556 1.728743,0.0556 z"
       inkscape:connector-curvature="0" />
    <path
       style="opacity:1;fill:#2b0000;fill-opacity:1;stroke:none;stroke-width:0.1233415;stroke-miterlimit:4;stroke-dasharray:none;stroke-opacity:0"
       id="path1403"
       d="m 77.874423,238.37662 c -0.295009,0.68655 -0.552822,1.38737 -0.853472,2.07166 -0.262456,0.58586 -0.507978,1.17873 -0.767096,1.76608 -0.167623,0.41993 -0.416425,0.79757 -0.647214,1.18384 -0.249869,0.33244 -0.301152,0.71017 -0.338091,1.11291 -0.04868,0.79959 -0.04099,1.60128 -0.04379,2.40198 0.0019,0.91449 0.0026,1.82898 0.0028,2.74347 0.0015,0.70947 0.0069,1.41894 0.01519,2.12835 0.02598,0.37335 -0.02269,0.74194 -0.06326,1.1118 -0.01847,0.16847 -0.02939,0.33751 -0.03692,0.50676 0,0 -1.72992,-0.007 -1.72992,-0.007 v 0 c 0.0072,-0.17335 0.01542,-0.3467 0.04071,-0.5186 0.04159,-0.36342 0.09708,-0.72517 0.07716,-1.09253 0.0081,-0.70938 0.01325,-1.41881 0.0138,-2.12823 -0.0013,-0.91453 -0.0031,-1.82905 -0.0036,-2.74358 -0.0031,-0.80522 -0.0089,-1.61101 0.019,-2.41584 0.0301,-0.42484 0.05913,-0.84138 0.327553,-1.19206 0.229646,-0.38148 0.488805,-0.74769 0.656923,-1.16283 0.266135,-0.58647 0.5218,-1.17702 0.784704,-1.76491 0.304162,-0.67657 0.571418,-1.36756 0.819727,-2.06655 0,0 1.72587,0.0657 1.72587,0.0657 z"
       inkscape:connector-curvature="0" />
    <path
       style="opacity:1;fill:#2b0000;fill-opacity:1;stroke:none;stroke-width:0.1233415;stroke-miterlimit:4;stroke-dasharray:none;stroke-opacity:0"
       id="path1405"
       d="m 75.228691,254.00713 c 0.409479,0.49184 0.919497,0.90593 1.499545,1.18118 0.138749,0.0658 0.283956,0.11711 0.425934,0.17566 1.056158,0.34149 2.174267,0.37996 3.274384,0.41808 0.50862,0.0101 0.505949,0.0118 1.001734,0.0147 0.148882,6.2e-4 0.595539,0.001 0.446654,0.001 -0.417133,1.3e-4 -0.834266,1.6e-4 -1.251396,-6.2e-4 -0.125626,-3.3e-4 0.251261,-0.003 0.376878,-0.001 0.686717,0.009 1.373377,0.0213 2.060066,0.0319 0.819886,0.0763 1.635874,0.18308 2.457151,0.24449 0.876832,0.0557 1.755771,0.0616 2.634045,0.0659 1.187437,0.003 -0.580239,-6.2e-4 -0.874836,-0.01 -0.121393,-0.004 0.242753,-0.01 0.36392,-0.018 0.311851,-0.0214 0.620292,-0.0622 0.928926,-0.11008 0.499813,-0.0862 0.978468,-0.25122 1.445201,-0.44554 0.300118,-0.14771 0.628148,-0.26489 0.856011,-0.51907 0.130718,-0.25151 -0.124469,-0.44243 -0.264408,-0.62885 -0.187472,-0.2792 -0.293164,-0.60174 -0.431142,-0.90644 -0.147734,-0.33949 -0.286567,-0.68256 -0.428622,-1.02435 -0.07462,-0.28132 -0.127521,-0.56818 -0.175083,-0.85528 0,0 1.705461,-0.0315 1.705461,-0.0315 v 0 c 0.05725,0.27477 0.114717,0.55089 0.196369,0.81938 0.138139,0.34001 0.264381,0.68475 0.419244,1.01782 0.136378,0.29357 0.244634,0.60458 0.436116,0.86839 0.199848,0.26054 0.407192,0.51093 0.268582,0.8558 -0.215679,0.30754 -0.548914,0.44435 -0.878823,0.60361 -0.470333,0.20738 -0.953463,0.3834 -1.458552,0.48508 -1.246509,0.22319 -2.514034,0.17764 -3.777168,0.16203 -0.878796,-0.008 -1.758389,-0.0146 -2.635343,-0.0779 -0.822021,-0.0676 -1.639627,-0.17605 -2.461807,-0.24206 0.429584,-0.007 0.859213,-0.0114 1.288752,-0.0208 0.127297,-0.003 -0.254656,0.001 -0.381984,0.001 -1.171971,1.6e-4 -2.344801,0.0118 -3.516503,-0.0244 -1.109848,-0.0471 -2.239573,-0.0968 -3.294951,-0.47748 -0.14402,-0.0644 -0.291617,-0.12137 -0.432055,-0.19326 -0.593322,-0.30374 -1.1047,-0.74914 -1.544412,-1.2451 0,0 1.722112,-0.114 1.722112,-0.114 z"
       inkscape:connector-curvature="0" />
    <path
       style="opacity:1;fill:#2b0000;fill-opacity:1;stroke:none;stroke-width:0.1233415;stroke-miterlimit:4;stroke-dasharray:none;stroke-opacity:0"
       id="path1407"
       d="m 87.816854,237.60915 c 0.388155,0.28533 0.749015,0.60114 1.03792,0.98744 0.348906,0.48073 0.630034,1.00592 0.943618,1.50958 0.27283,0.44447 0.601209,0.84034 0.987688,1.18888 0.1004,0.13673 0.286612,0.18547 0.392004,0.3155 0.118188,0.1458 0.164277,0.35214 0.21353,0.52702 0.144699,0.73034 0.136495,1.48005 0.144584,2.22139 0.0099,1.32168 -0.03078,2.64342 0.02143,3.96433 0.03782,0.98324 0.1548,1.95949 0.275577,2.93506 0.0729,0.41091 0.142526,0.82121 0.177493,1.23726 0.06186,0.33344 0.08636,0.67183 0.131239,1.00751 0.08835,0.33994 0.162059,0.68215 0.20744,1.03054 0.06104,0.29977 0.106886,0.60078 0.130737,0.9057 0,0 -1.727126,0.0136 -1.727126,0.0136 v 0 c -0.02415,-0.30199 -0.07256,-0.6001 -0.129996,-0.89749 -0.04313,-0.34799 -0.121144,-0.68803 -0.203261,-1.02864 -0.04857,-0.33849 -0.07396,-0.68014 -0.133007,-1.01737 -0.03197,-0.41371 -0.100729,-0.82212 -0.157964,-1.23284 -0.09004,-0.98109 -0.187599,-1.96164 -0.21888,-2.94701 -0.04968,-1.3219 -0.01857,-2.64514 -0.05316,-3.9676 -0.01874,-0.72555 -0.01771,-1.46251 -0.183696,-2.17289 -0.03602,-0.1059 -0.06735,-0.22365 -0.128683,-0.31998 -0.11619,-0.18249 -0.333863,-0.26977 -0.470663,-0.43395 -0.378403,-0.37 -0.704582,-0.78212 -0.980257,-1.23482 -0.305889,-0.50192 -0.587246,-1.02172 -0.944682,-1.48977 -0.303454,-0.36441 -0.660945,-0.67342 -1.055441,-0.93715 0,0 1.723557,-0.16433 1.723556,-0.16433 z"
       inkscape:connector-curvature="0" />
    <path
       style="opacity:1;fill:#a02c2c;fill-opacity:1;stroke:none;stroke-width:0.1233415;stroke-miterlimit:4;stroke-dasharray:none;stroke-opacity:0"
       id="path1411"
       d="m 65.748165,207.54162 c 0.302246,0.77266 0.719964,1.49308 1.104467,2.22624 0.401051,0.75656 0.792257,1.51497 1.110281,2.31039 0.212678,0.50843 0.281236,1.05285 0.392763,1.58664 0.154387,0.62566 0.238898,1.26331 0.344008,1.89827 0.277712,0.98669 0.509724,1.98438 0.742889,2.98208 0.233288,0.95862 0.329741,1.94103 0.463071,2.91645 0.116636,0.94013 0.233318,1.88039 0.319533,2.82386 0.08547,0.99496 0.09455,1.99394 0.101863,2.99184 0.0085,1.07546 0.0012,2.15096 8.02e-4,3.22644 -0.006,1.09539 0.114433,2.18634 0.167494,3.27987 0.03854,1.31899 0.08792,2.63757 0.121017,3.95675 0.03363,1.49689 0.04247,2.99422 0.04594,4.49145 0.0055,1.25915 0.01076,2.51829 0.01481,3.77744 0.03024,0.97884 -0.07431,1.95337 -0.181186,2.92453 -0.07535,0.7846 -0.290403,1.54016 -0.581362,2.26952 -0.289484,0.6349 -0.622814,1.25138 -1.010949,1.83137 -0.346951,0.49744 -0.762406,0.94184 -1.224528,1.33316 -0.397354,0.30317 -0.848258,0.52902 -1.300593,0.73791 -0.438904,0.21314 -0.919099,0.30396 -1.397014,0.38044 -0.497492,0.079 -0.975456,0.23993 -1.466782,0.34591 -0.335404,0.0718 -0.677495,0.0942 -1.019372,0.1053 -0.926123,0.0518 -1.849489,0.14484 -2.698002,-0.2321 -0.427942,-0.2467 -0.786619,-0.55987 -1.098623,-0.93991 -0.376071,-0.45582 -0.516514,-1.02838 -0.681042,-1.58197 -0.229609,-0.76293 -0.331406,-1.55296 -0.416851,-2.34255 -0.09554,-1.32086 -0.316814,-2.62671 -0.474606,-3.94061 -0.100748,-0.74372 -0.159261,-1.49284 -0.251742,-2.23741 -0.09363,-0.75382 -0.215134,-1.50346 -0.306114,-2.25787 -0.178383,-1.63725 -0.215643,-3.28432 -0.237506,-4.92959 -0.01463,-1.69478 -0.0119,-3.38964 -0.01435,-5.08446 -0.01241,-1.51466 -0.0035,-3.02991 0.129494,-4.53939 0.09665,-1.33544 0.318867,-2.65556 0.484834,-3.98282 0.158748,-1.1594 0.367191,-2.3105 0.559608,-3.46446 0.10433,-0.5438 0.158662,-1.09616 0.316059,-1.62868 0.02696,-0.0912 0.239004,-0.72279 0.271446,-0.81981 0.244826,-0.75023 0.540636,-1.4822 0.82248,-2.21897 0.282163,-0.67026 0.518316,-1.35895 0.802525,-2.02819 0.239363,-0.55518 0.635453,-1.0163 1.037621,-1.45935 0.356823,-0.38698 0.775458,-0.70871 1.160054,-1.06731 0.305021,-0.30654 0.583324,-0.63806 0.873601,-0.95832 0.200347,-0.17364 0.09616,-0.0952 0.311662,-0.2366 0,0 1.713042,0.17874 1.713042,0.17874 v 0 c -0.211977,0.1098 -0.109339,0.0481 -0.307668,0.18546 -0.297154,0.32074 -0.583597,0.65113 -0.882434,0.97031 -0.380577,0.36203 -0.797928,0.68073 -1.166369,1.05417 -0.395618,0.42783 -0.79132,0.86789 -1.037419,1.40269 -0.294685,0.66331 -0.531232,1.35098 -0.81143,2.0205 -0.283086,0.73451 -0.576606,1.46552 -0.827852,2.21175 -0.05381,0.15844 -0.222242,0.64909 -0.268897,0.80803 -0.155148,0.52853 -0.216235,1.07639 -0.327521,1.61451 -0.208447,1.14974 -0.42555,2.29736 -0.577757,3.45655 -0.17149,1.32503 -0.397611,2.64289 -0.501528,3.97622 -0.132057,1.50485 -0.146136,3.01505 -0.139176,4.52511 -0.0054,1.69397 -0.01,3.38804 0.0086,5.08195 0.02602,1.63924 0.0621,3.28141 0.247512,4.91191 0.187807,1.49868 0.414598,2.99179 0.562377,4.49553 0.160481,1.3155 0.393097,2.62078 0.513294,3.94112 0.09525,0.77956 0.202465,1.5595 0.437262,2.31171 0.164869,0.53323 0.308608,1.08051 0.685439,1.51125 0.313594,0.35244 0.670834,0.65699 1.103289,0.85623 0.166331,0.0594 0.331223,0.10915 0.505545,0.14032 0.05428,0.01 0.218902,0.022 0.163777,0.0232 -0.0828,0.002 -2.20361,0.01 -1.389588,0.007 0.342793,-0.004 0.686628,-0.0141 1.025086,-0.074 0.498711,-0.0916 0.978868,-0.25256 1.475833,-0.35339 0.469917,-0.0634 0.947436,-0.14077 1.383103,-0.33562 0.452667,-0.19137 0.896676,-0.41524 1.303174,-0.6916 0.468115,-0.3663 0.879569,-0.80188 1.228742,-1.28307 0.390187,-0.56686 0.723959,-1.17137 1.014192,-1.79525 0.293803,-0.71399 0.510817,-1.45277 0.592064,-2.2235 0.115541,-0.96431 0.215938,-1.93238 0.195803,-2.90529 0.0049,-1.25898 0.01155,-2.51795 0.01227,-3.77694 -0.0047,-1.49588 -0.0075,-2.99193 -0.04648,-4.48743 -0.03861,-1.31797 -0.102425,-2.63494 -0.146633,-3.9527 -0.0587,-1.09598 -0.173421,-2.19035 -0.167496,-3.2885 0.0013,-1.07495 -0.0018,-2.14988 -0.0055,-3.22482 -0.01061,-0.99325 -0.02437,-1.9875 -0.107011,-2.97793 -0.08719,-0.94106 -0.208117,-1.87839 -0.322082,-2.81649 -0.131741,-0.96981 -0.223206,-1.94718 -0.452103,-2.90086 -0.234403,-1.00276 -0.471831,-2.00446 -0.766142,-2.99191 -0.11043,-0.6327 -0.205971,-1.26751 -0.359423,-1.89183 -0.108138,-0.52455 -0.181746,-1.05736 -0.385008,-1.55794 -0.304355,-0.79053 -0.683736,-1.54442 -1.080698,-2.29245 -0.397413,-0.74114 -0.812892,-1.47447 -1.157799,-2.24216 0,0 1.72587,-0.0657 1.72587,-0.0657 z"
       inkscape:connector-curvature="0" />
    <path
       style="opacity:1;fill:#a02c2c;fill-opacity:1;stroke:none;stroke-width:0.1233415;stroke-miterlimit:4;stroke-dasharray:none;stroke-opacity:0"
       id="path1413"
       d="m 92.707043,210.07245 c 0.303338,-0.4645 0.664355,-0.88691 1.031735,-1.3012 0.373364,-0.42276 0.822702,-0.76179 1.289943,-1.07286 0.309598,-0.22809 0.655175,-0.3741 1.01712,-0.49336 0.287332,-0.0953 0.589207,-0.11972 0.889504,-0.13324 0.943859,-0.006 1.893317,-0.0709 2.833579,0.0137 0.591206,0.0682 1.109436,0.34141 1.618336,0.62987 0.68886,0.40924 1.28839,0.93817 1.85664,1.49802 0.48279,0.51126 0.82906,1.12614 1.14885,1.74715 0.35347,0.80184 0.6342,1.63554 0.83342,2.48851 0.19128,1.23346 0.42131,2.45943 0.591,3.69634 0.20984,1.38088 0.34317,2.77069 0.55796,4.1507 0.25583,1.57956 0.33376,3.17952 0.3795,4.77664 0.0368,1.67756 0.0359,3.35562 0.0395,5.03349 0.004,1.36304 0.007,2.72607 0.008,4.08912 0.003,1.00559 -0.0147,2.02024 -0.16806,3.01655 -0.0305,0.19835 -0.0753,0.39425 -0.11295,0.59137 -0.22525,1.04403 -0.52163,2.07074 -0.88934,3.07314 -0.44573,0.86661 -1.03891,1.64823 -1.58338,2.45469 -0.33112,0.46159 -0.59286,0.96935 -0.91276,1.43798 -0.16831,0.24657 -0.2828,0.37587 -0.47007,0.60352 -0.47024,0.52124 -1.05344,0.91254 -1.62639,1.30922 -0.4964,0.3321 -1.01638,0.6262 -1.523654,0.94081 -0.370782,0.2532 -0.783791,0.42777 -1.193671,0.60517 -0.344857,0.14014 -0.698007,0.25355 -1.038665,0.40465 -0.352478,0.18333 -0.732438,0.29929 -1.103635,0.43678 -0.367236,0.13039 -0.73582,0.25188 -1.115561,0.33968 -0.317797,0.0817 -0.643078,0.12548 -0.969533,0.15262 -0.835971,0.0388 -1.676683,0.0175 -2.511854,0.0176 -0.12436,-3.3e-4 -0.248722,-6.2e-4 -0.373082,-10e-4 0,0 1.708723,-0.27025 1.708723,-0.27025 v 0 c 0.124535,1.6e-4 0.24907,3.2e-4 0.373605,6.1e-4 -3.000659,6.2e-4 -1.590537,0.009 -0.906422,-0.006 0.326225,-0.015 0.653008,-0.0474 0.971292,-0.12303 0.377763,-0.0918 0.753453,-0.18208 1.118994,-0.31821 0.36804,-0.13583 0.74582,-0.24809 1.095752,-0.4272 0.3426,-0.14981 0.685149,-0.29217 1.041966,-0.40475 0.40702,-0.17961 0.828726,-0.33181 1.202352,-0.57833 0.502622,-0.3216 1.028189,-0.60594 1.527204,-0.93359 0.568235,-0.38789 1.151639,-0.76209 1.629859,-1.26305 0.17697,-0.20542 0.31572,-0.35658 0.47255,-0.58023 0.32785,-0.46753 0.58989,-0.98009 0.92598,-1.44241 0.53872,-0.79668 1.11716,-1.57135 1.57978,-2.41519 0.37887,-0.99002 0.67524,-2.00977 0.90592,-3.04442 0.0373,-0.19324 0.0811,-0.38534 0.11179,-0.57972 0.15648,-0.98968 0.17062,-1.9974 0.17372,-2.99676 0.002,-1.36303 0.009,-2.72602 0.0157,-4.08903 0.004,-1.67616 0.008,-3.35262 -0.0334,-5.0284 -0.0536,-1.5907 -0.12924,-3.18409 -0.39594,-4.75613 -0.2179,-1.38077 -0.35374,-2.77115 -0.56436,-4.15316 -0.17804,-1.23142 -0.40335,-2.45387 -0.61495,-3.67965 -0.21007,-0.83834 -0.48785,-1.66389 -0.85572,-2.4468 -0.31726,-0.6041 -0.65865,-1.20273 -1.13961,-1.69404 -0.56399,-0.55041 -1.1644,-1.06455 -1.855163,-1.45177 -0.51168,-0.27355 -1.038779,-0.51803 -1.628017,-0.55314 -0.609717,-0.0244 -1.716147,-0.009 1.083962,-0.009 0.176672,0 -0.20774,-2.1e-4 -0.347861,6.2e-4 -0.05564,3.6e-4 -0.111284,0.001 -0.166927,0.002 -0.295552,0.006 -0.594556,0.0139 -0.882431,0.0875 -0.361943,0.10431 -0.71694,0.22128 -1.02612,0.44537 -0.469074,0.29045 -0.913705,0.62215 -1.291786,1.02625 -0.36175,0.40219 -0.723663,0.80991 -1.006005,1.27353 0,0 -1.727044,-0.0966 -1.727044,-0.0966 z"
       inkscape:connector-curvature="0" />
    <path
       style="opacity:1;fill:#a02c2c;fill-opacity:1;stroke:none;stroke-width:0.1233415;stroke-miterlimit:4;stroke-dasharray:none;stroke-opacity:0"
       id="path1417"
       d="m 89.820689,221.19692 c 0.01524,0.48989 0.05431,0.97496 0.152622,1.45513 0.10228,0.41404 0.152658,0.83702 0.177153,1.26196 0.01601,0.35883 0.02083,0.71821 0.0184,1.07737 0.0037,0.35877 -0.01248,0.71774 0.01057,1.07593 0.05008,0.38494 0.05765,0.7739 0.103753,1.159 0.05392,0.32109 0.0873,0.6441 0.106225,0.96895 -1.64e-4,0.32157 0.04891,0.63931 0.08195,0.95849 0.01927,0.21423 0.0055,0.11027 0.04005,0.31205 0,0 -1.726109,0.0276 -1.726109,0.0276 v 0 c -0.0324,-0.2136 -0.01975,-0.10629 -0.03793,-0.32192 -0.03302,-0.32189 -0.08623,-0.64216 -0.0852,-0.96657 -0.01709,-0.32122 -0.05241,-0.64043 -0.100549,-0.95851 -0.04438,-0.38791 -0.05313,-0.77945 -0.102391,-1.16716 -0.02675,-0.36197 -0.01116,-0.72507 -0.014,-1.08785 -0.0023,-0.35575 0.003,-0.71169 -0.01481,-1.06717 -0.02535,-0.41682 -0.07439,-0.83115 -0.169364,-1.23852 -0.0952,-0.49272 -0.129677,-0.98898 -0.170979,-1.48875 0,0 1.730595,0 1.730595,0 z"
       inkscape:connector-curvature="0" />
    <path
       style="opacity:1;fill:#a02c2c;fill-opacity:1;stroke:none;stroke-width:0.1233415;stroke-miterlimit:4;stroke-dasharray:none;stroke-opacity:0"
       id="path1419"
       d="m 89.257562,240.84821 c 0.02271,-0.74749 0.01797,-1.49535 0.01985,-2.24306 -0.03702,-0.75586 -0.03999,-1.51723 -0.130634,-2.26915 -0.07444,-0.58297 -0.199463,-1.15692 -0.275192,-1.73968 -0.05945,-0.47907 -0.06959,-0.96175 -0.07459,-1.44381 -0.0212,-0.48123 0.01349,-0.95975 0.05308,-1.43881 0.04038,-0.48968 0.05349,-0.98081 0.0606,-1.4719 1.34e-4,-0.42821 -0.0067,-0.85495 0.03391,-1.2815 0.02466,-0.21752 0.04467,-0.43541 0.05936,-0.65382 0,0 1.72598,0.0119 1.72598,0.0119 v 0 c -0.01553,0.22033 -0.03457,0.44023 -0.06411,0.65922 -0.04482,0.42143 -0.03679,0.8434 -0.04183,1.26681 -0.0078,0.49466 -0.01757,0.98975 -0.0614,1.4828 -0.03566,0.47421 -0.07132,0.94719 -0.0509,1.42334 0.006,0.47526 0.01571,0.95128 0.0703,1.42395 0.07394,0.58295 0.196007,1.15791 0.266418,1.74148 0.08822,0.75883 0.07368,1.52688 0.115986,2.28919 0.0019,0.74771 -0.0028,1.49558 0.01985,2.24306 0,0 -1.726668,0 -1.726668,0 z"
       inkscape:connector-curvature="0" />
    <path
       style="opacity:1;fill:#000000;fill-opacity:1;stroke:none;stroke-width:0.1233415;stroke-miterlimit:4;stroke-dasharray:none;stroke-opacity:0"
       id="path1423"
       d="m 45.598229,213.71248 c 1.523415,0.61479 3.042966,1.24203 4.55319,1.8889 1.200288,0.53408 2.41422,1.03407 3.603188,1.59313 0.733541,0.35645 1.432945,0.77718 2.144622,1.17429 0.316025,0.17632 0.618696,0.37885 0.936651,0.5517 0.07596,0.0413 0.150056,0.0905 0.233623,0.1127 0.05954,0.0158 0.246401,1e-4 0.184817,-0.002 -0.534361,-0.0149 -1.068838,-0.0253 -1.603257,-0.038 0.01496,-0.0347 0.0397,-0.0666 0.04489,-0.10402 0.056,-0.40333 -0.169781,-0.96622 -0.308289,-1.33968 -0.142078,-0.45116 -0.376468,-0.8625 -0.519393,-1.31277 -0.01847,-0.0532 -0.03509,-0.10698 -0.05541,-0.15946 -0.01264,-0.0326 -0.06854,-0.20275 -0.13512,-0.21962 -0.02504,-0.006 -0.09158,0.0401 -0.06577,0.041 1.688177,0.0587 1.902891,-0.49405 1.620698,0.12063 -0.165356,0.59613 -0.183261,1.2218 -0.206545,1.8365 -0.01521,0.50756 -0.01595,1.01545 -0.01213,1.52318 -0.02857,0.16454 0.07539,0.45044 -0.05408,0.59242 -0.0407,0.0447 -0.09255,0.0958 -0.152936,0.0972 -0.635409,0.0147 -1.270731,-0.0331 -1.906096,-0.0495 -0.674551,-0.18846 -1.378106,-0.24198 -2.07413,-0.2898 -0.47381,-0.023 -0.242416,-0.0134 -0.694162,-0.0292 0,0 1.682116,-0.25957 1.682116,-0.25957 v 0 c 0.446852,0.02 0.217335,0.008 0.688525,0.036 0.70626,0.0564 1.412663,0.13179 2.101023,0.307 -0.5022,0.01 -1.005673,-0.007 -1.506601,0.03 -0.04939,0.004 0.08075,0.0666 0.129981,0.0719 0.02358,0.002 0.03989,-0.0302 0.04805,-0.0525 0.05194,-0.1416 -0.0072,-0.30957 0.01781,-0.45408 0.0049,-0.51019 0.01004,-1.02044 0.03307,-1.53021 0.02954,-0.62946 0.04452,-1.26608 0.179654,-1.88377 0.01457,-0.059 -0.01629,-0.16737 0.04371,-0.17701 1.439021,-0.23101 1.735838,-0.55871 2.039997,0.39586 0.142214,0.44506 0.365795,0.85837 0.502135,1.30613 0.161606,0.44878 0.364851,0.95945 0.32769,1.44701 -0.0057,0.0752 -0.03151,0.14754 -0.04726,0.22131 -0.607645,0.0392 -1.214316,0.0987 -1.822933,0.11751 -0.107539,0.003 -0.339606,-0.14035 -0.408657,-0.18036 -0.309082,-0.17913 -0.609605,-0.3733 -0.921306,-0.54808 -0.707749,-0.3975 -1.409516,-0.80761 -2.139562,-1.16348 -1.164744,-0.55903 -2.35253,-1.06548 -3.530768,-1.59517 -1.537388,-0.6615 -3.086818,-1.29873 -4.657743,-1.87656 0,0 1.706698,-0.19989 1.706698,-0.19989 z"
       inkscape:connector-curvature="0" />
    <path
       style="opacity:1;fill:#b3b3b3;fill-opacity:1;stroke:none;stroke-width:0.2;stroke-miterlimit:4;stroke-dasharray:none;stroke-opacity:0"
       id="path835"
       d="m 121.66227,240.61225 c 0.64824,1.00472 1.40388,1.94236 2.15545,2.87227 0.65048,0.702 1.16853,1.51361 1.80895,2.22273 0.402,0.44891 0.7784,0.91838 1.16268,1.38222 0.44672,0.51556 0.91437,1.01114 1.36057,1.52726 0.43095,0.48337 0.88197,0.93919 1.18194,1.51777 0.23632,0.511 0.45933,1.02703 0.72701,1.52263 0,0 -2.78272,0.13539 -2.78272,0.13539 v 0 c -0.25834,-0.49941 -0.48446,-1.01385 -0.73387,-1.51772 -0.3172,-0.54219 -0.76158,-0.98379 -1.16762,-1.45938 -0.45053,-0.51724 -0.93255,-1.00571 -1.37075,-1.5337 -0.37986,-0.46366 -0.76759,-0.92006 -1.15614,-1.3764 -0.60367,-0.73282 -1.13904,-1.5204 -1.76446,-2.23629 -0.75146,-0.9528 -1.51221,-1.89941 -2.22309,-2.88276 0,0 2.80205,-0.17402 2.80205,-0.17402 z"
       inkscape:connector-curvature="0" />
    <path
       style="opacity:1;fill:#b3b3b3;fill-opacity:1;stroke:none;stroke-width:0.2;stroke-miterlimit:4;stroke-dasharray:none;stroke-opacity:0"
       id="path837"
       d="m 132.27624,250.8111 c -0.28635,0.96348 -0.54051,1.93189 -0.76066,2.91279 -0.18854,0.70082 -0.21986,1.43001 -0.41691,2.12702 -0.10382,0.26163 -0.12387,0.37373 -0.30217,0.59163 -0.0599,0.0732 -0.29327,0.29606 -0.41419,0.29991 -2.95824,0.0941 -2.19394,0.54016 -3.26011,-0.1744 -0.87729,-1.05175 -1.67946,-2.16552 -2.4902,-3.26914 -0.58396,-0.81797 -0.29564,-0.41776 -0.86459,-1.2009 0,0 2.72946,-0.17034 2.72946,-0.17034 v 0 c 0.55804,0.7846 0.27469,0.38501 0.84995,1.19885 0.47989,0.65179 0.96116,1.30237 1.46227,1.93815 0.1763,0.22367 0.5722,0.7274 0.80168,0.9534 0.0894,0.0881 0.19382,0.15953 0.29073,0.2393 1.04521,0.32346 0.36275,0.0846 -2.30014,0.12769 -0.0694,10e-4 0.14108,0.004 0.20756,-0.0157 0.15972,-0.0477 0.28936,-0.16724 0.3757,-0.30597 0.056,-0.09 0.0861,-0.19363 0.12916,-0.29044 0.20203,-0.69129 0.23115,-1.41947 0.4383,-2.11167 0.0801,-0.33896 0.14895,-0.68051 0.23039,-1.01915 0.12214,-0.50789 0.29498,-1.00218 0.41816,-1.50945 0.0302,-0.12441 0.0492,-0.25129 0.0738,-0.37693 0,0 2.80183,0.0553 2.80183,0.0553 z"
       inkscape:connector-curvature="0" />
    <path
       style="opacity:1;fill:#b3b3b3;fill-opacity:1;stroke:none;stroke-width:0.2;stroke-miterlimit:4;stroke-dasharray:none;stroke-opacity:0"
       id="path839"
       d="m 122.41236,240.57657 c 1.89693,0.30685 3.82397,0.37022 5.74122,0.43966 1.61276,0.0521 3.22635,0.0669 4.83984,0.0688 1.42296,-10e-4 -0.16115,2.6e-4 -1.81316,-10e-4 -0.12726,-1.2e-4 0.25451,-7.9e-4 0.38177,-0.001 0.38701,-7.9e-4 0.77402,-0.001 1.16102,-0.002 0.7723,-5.3e-4 1.5446,-0.001 2.3169,-0.002 1.44438,-0.002 2.88876,-2.6e-4 4.33314,-10e-4 0,0 -2.76775,0.43837 -2.76775,0.43837 v 0 c -1.08846,-8e-4 -0.111,-2e-5 2.2897,-2.7e-4 0.0863,-1e-5 -0.17263,-9e-5 -0.25895,-1.1e-4 -0.45577,-1.2e-4 -0.0815,1.8e-4 -0.54084,-2.7e-4 -0.10045,-1.1e-4 -0.20091,-2.1e-4 -0.30136,-2.6e-4 -0.77549,-5.3e-4 -1.55098,-0.001 -2.32647,5.3e-4 -1.73276,0.003 -3.46555,0.006 -5.19831,-4e-5 -1.58541,-0.0102 -3.17083,-0.034 -4.75532,-0.0913 -1.95851,-0.0766 -3.92194,-0.15999 -5.86281,-0.4503 0,0 2.76138,-0.39728 2.76138,-0.39728 z"
       inkscape:connector-curvature="0" />
    <path
       style="opacity:1;fill:#b3b3b3;fill-opacity:1;stroke:none;stroke-width:0.2;stroke-miterlimit:4;stroke-dasharray:none;stroke-opacity:0"
       id="path841"
       d="m 137.95697,239.23295 c 0.77649,0.59798 1.50071,1.26235 2.21962,1.9278 0.34231,0.30746 0.91445,0.93043 0.26352,1.27391 -0.0983,0.0519 -0.2114,0.0686 -0.31709,0.10289 -0.50327,0.0791 -0.24645,0.0478 -0.77067,0.0922 0,0 -2.74756,-0.41628 -2.74756,-0.41628 v 0 c 0.51339,-0.0254 0.26242,-0.008 0.75301,-0.0505 0.1031,-0.013 0.37123,-0.0445 0.49419,-0.0665 0.0319,-0.006 0.0876,0.009 0.0945,-0.0231 0.0382,-0.17716 -0.45278,-0.5958 -0.52749,-0.68531 -0.72226,-0.67199 -1.45542,-1.33625 -2.25708,-1.91361 0,0 2.79506,-0.24158 2.79506,-0.24158 z"
       inkscape:connector-curvature="0" />
    <path
       style="opacity:1;fill:#b3b3b3;fill-opacity:1;stroke:none;stroke-width:0.2;stroke-miterlimit:4;stroke-dasharray:none;stroke-opacity:0"
       id="path843"
       d="m 117.04582,238.99204 c 0.0362,-1.22358 0.0316,-2.44787 0.0385,-3.67183 0.008,-1.54221 0.003,-3.08448 -0.007,-4.62666 -0.007,-0.66362 -0.0109,-1.32726 -0.0185,-1.99087 0,0 2.77782,0 2.77782,0 v 0 c -0.008,0.66361 -0.0114,1.32725 -0.0185,1.99087 -0.01,1.54218 -0.0158,3.08445 -0.007,4.62666 0.007,1.22396 0.002,2.44825 0.0385,3.67183 0,0 -2.80299,0 -2.80299,0 z"
       inkscape:connector-curvature="0" />
    <path
       style="opacity:1;fill:#b3b3b3;fill-opacity:1;stroke:none;stroke-width:0.2;stroke-miterlimit:4;stroke-dasharray:none;stroke-opacity:0"
       id="path845"
       d="m 119.28359,227.03553 c -0.73625,0.7394 -1.41246,1.53612 -2.05301,2.35897 -0.47063,0.64126 -0.80945,1.36112 -1.10002,2.09773 -0.0282,0.0839 -0.0559,0.16807 -0.0848,0.25178 -0.0278,0.0806 -0.0589,0.16011 -0.0853,0.2412 -0.0181,0.0555 -0.0463,0.11009 -0.0481,0.16846 -5.3e-4,0.0168 0.0603,-0.0238 0.0436,-0.025 -2.68228,-0.18294 -3.5324,0.14071 -2.48266,-0.22393 0.71659,-0.51759 1.20667,-1.28001 1.71532,-1.9892 0.44906,-0.63697 0.90297,-1.27298 1.43304,-1.8457 0.95756,-0.88689 2.25434,-0.45387 3.57414,-0.35299 0.0855,0.007 0.22615,0.4252 0.23861,0.45722 0.16235,0.67405 0.1589,1.37154 0.16959,2.06051 -0.0159,0.60857 -0.02,1.19923 0.16035,1.78397 0,0 -2.79195,0.0806 -2.79195,0.0806 v 0 c -0.17552,-0.61256 -0.17532,-1.22712 -0.15415,-1.86109 -0.006,-0.64691 0.005,-1.31247 -0.18429,-1.93698 -0.0326,-0.0499 -0.0527,-0.11071 -0.0977,-0.14978 -0.0329,-0.0286 -0.16726,-0.0411 -0.12369,-0.0423 0.87037,-0.0242 1.74132,-0.0179 2.61198,-0.0268 -0.17349,-0.006 -0.24896,-0.0292 -0.41565,0.0547 -0.075,0.0377 -0.13516,0.0996 -0.20275,0.14936 -0.55807,0.53646 -1.00374,1.17649 -1.45795,1.8001 -0.5176,0.73497 -1.02769,1.48976 -1.68731,2.10689 -0.0653,0.0558 -0.10998,0.16567 -0.19583,0.16735 -0.99132,0.0193 -3.03257,0.69954 -2.96042,-0.28934 0.0173,-0.23684 0.2109,-0.4486 0.23622,-0.68451 0.30472,-0.76183 0.66006,-1.50369 1.13934,-2.17355 0.63652,-0.82786 1.31784,-1.61833 2.01318,-2.3972 0,0 2.79019,0.21959 2.79019,0.21959 z"
       inkscape:connector-curvature="0" />
    <path
       style="opacity:1;fill:#b3b3b3;fill-opacity:1;stroke:none;stroke-width:0.2;stroke-miterlimit:4;stroke-dasharray:none;stroke-opacity:0"
       id="path851"
       d="m 121.6944,252.11443 c -0.16838,0.8308 -0.30473,1.68399 -0.25889,2.53313 0.0902,0.45939 0.0301,0.23889 0.17622,0.66259 0,0 -2.78485,0.0864 -2.78485,0.0864 v 0 c -0.14124,-0.47313 -0.0838,-0.22813 -0.16846,-0.73591 -0.0355,-0.87374 0.11447,-1.74333 0.23117,-2.60752 0,0 2.80481,0.0614 2.80481,0.0614 z"
       inkscape:connector-curvature="0" />
    <path
       style="opacity:1;fill:#b3b3b3;fill-opacity:1;stroke:none;stroke-width:0.2;stroke-miterlimit:4;stroke-dasharray:none;stroke-opacity:0"
       id="path853"
       d="m 123.03705,252.5008 c -1.11059,0.35919 -2.16971,0.86415 -3.23346,1.34171 -0.66054,0.32395 -0.33761,0.16703 -0.96863,0.4711 0,0 -2.74482,-0.3115 -2.74482,-0.3115 v 0 c 0.64335,-0.29706 0.31467,-0.13974 0.98525,-0.47356 1.04979,-0.47899 2.10423,-0.95888 3.17887,-1.37715 0,0 2.78279,0.3494 2.78279,0.3494 z"
       inkscape:connector-curvature="0" />
    <path
       style="opacity:1;fill:#b3b3b3;fill-opacity:1;stroke:none;stroke-width:0.2;stroke-miterlimit:4;stroke-dasharray:none;stroke-opacity:0"
       id="path855"
       d="m 142.90696,240.36649 c -0.0614,0.86228 0.19604,1.67265 0.5468,2.44677 0.3308,0.52744 0.78766,1.57705 1.42584,1.78712 0.0944,0.0311 0.19792,0.0184 0.29688,0.0276 -5.97678,-0.24224 -2.64955,0.43421 -2.15155,-0.25057 0.18655,-0.2565 0.25852,-0.57881 0.33541,-0.87869 0.0531,-0.35417 0.13895,-0.70341 0.23528,-1.0481 0.0439,-0.15697 0.11229,-0.36503 0.13139,-0.36399 0.9617,0.0528 1.91645,0.19441 2.87468,0.29161 0.10832,0.92049 -0.0403,1.85499 -0.27349,2.7452 -0.26544,0.81827 -0.53796,1.63467 -0.8269,2.44494 0,0 -2.78829,-0.0991 -2.78829,-0.0991 v 0 c 0.30774,-0.7971 0.58687,-1.60569 0.8511,-2.41818 0.22932,-0.83636 0.38247,-1.73103 0.23923,-2.59533 0.91239,-0.0641 1.82382,-0.14381 2.73717,-0.19225 0.0295,-0.002 -0.057,0.0258 -0.0725,0.0509 -0.0396,0.064 -0.0642,0.13659 -0.0877,0.20814 -0.11065,0.33763 -0.18073,0.69157 -0.23639,1.0416 -0.47597,2.12557 -1.04017,1.49183 -3.73461,1.43159 -0.0999,-0.0415 -0.20718,-0.0682 -0.29959,-0.12438 -0.66825,-0.40607 -1.02376,-1.30439 -1.41318,-1.94181 -0.36107,-0.81322 -0.61566,-1.66309 -0.59575,-2.56307 0,0 2.80618,0 2.80618,0 z"
       inkscape:connector-curvature="0" />
    <path
       style="opacity:1;fill:#b3b3b3;fill-opacity:1;stroke:none;stroke-width:0.2;stroke-miterlimit:4;stroke-dasharray:none;stroke-opacity:0"
       id="path857"
       d="m 110.42298,227.92118 c 0.76113,0.19648 1.55176,0.26573 2.25164,0.6429 0.61861,0.4522 0.40438,1.07076 0.14319,1.66924 -0.33269,0.67987 -0.94007,1.17234 -1.24591,1.86372 -0.004,0.0594 -0.0234,0.11999 -0.0107,0.17809 0.0687,0.31507 0.65021,0.39128 0.89584,0.44045 0.46915,0.0668 0.94516,0.0589 1.41793,0.0564 -0.86917,-0.002 -1.73835,-0.003 -2.60753,-0.005 0,0 2.78216,0.40112 2.78216,0.40112 v 0 c -0.98124,0.014 -1.96249,0.028 -2.94374,0.0419 -0.47718,-0.005 -0.96104,-0.006 -1.4257,-0.12856 -0.52199,-0.17389 -1.00818,-0.4658 -0.89998,-1.0958 0.2907,-0.71871 0.87654,-1.20247 1.25459,-1.87113 0.24986,-0.52484 0.45921,-0.89869 -0.1358,-1.23853 -0.71597,-0.30759 -1.49724,-0.39623 -2.25194,-0.57106 0,0 2.77598,-0.38367 2.77598,-0.38367 z"
       inkscape:connector-curvature="0" />
    <path
       style="opacity:1;fill:#b3b3b3;fill-opacity:1;stroke:none;stroke-width:0.2;stroke-miterlimit:4;stroke-dasharray:none;stroke-opacity:0"
       id="path859"
       d="m 111.78859,229.65174 c 0.44554,0.10986 0.89717,0.18919 1.34924,0.26605 0,0 -2.73945,0.38484 -2.73945,0.38484 v 0 c -0.46204,-0.0849 -0.92359,-0.17234 -1.38072,-0.28135 0,0 2.77093,-0.36954 2.77093,-0.36954 z"
       inkscape:connector-curvature="0" />
  </g>
</svg>
