<?xml version="1.0" encoding="UTF-8" standalone="no"?>
<!-- Created with Inkscape (http://www.inkscape.org/) -->

<svg
   xmlns:dc="http://purl.org/dc/elements/1.1/"
   xmlns:cc="http://creativecommons.org/ns#"
   xmlns:rdf="http://www.w3.org/1999/02/22-rdf-syntax-ns#"
   xmlns:svg="http://www.w3.org/2000/svg"
   xmlns="http://www.w3.org/2000/svg"
   xmlns:sodipodi="http://sodipodi.sourceforge.net/DTD/sodipodi-0.dtd"
   xmlns:inkscape="http://www.inkscape.org/namespaces/inkscape"
   width="66.834702mm"
   height="40.31926mm"
   viewBox="0 0 66.834702 40.31926"
   version="1.1"
   id="svg8"
   inkscape:version="0.92.5 (2060ec1f9f, 2020-04-08)"
   sodipodi:docname="gray_molasses_level_diagram.svg">
  <defs
     id="defs2" />
  <sodipodi:namedview
     id="base"
     pagecolor="#ffffff"
     bordercolor="#666666"
     borderopacity="1.0"
     inkscape:pageopacity="0.0"
     inkscape:pageshadow="2"
     inkscape:zoom="1.4"
     inkscape:cx="-36.763095"
     inkscape:cy="14.389696"
     inkscape:document-units="mm"
     inkscape:current-layer="layer1"
     showgrid="false"
     inkscape:pagecheckerboard="false"
     inkscape:window-width="1920"
     inkscape:window-height="1051"
     inkscape:window-x="1920"
     inkscape:window-y="0"
     inkscape:window-maximized="1"
     fit-margin-top="0"
     fit-margin-left="0"
     fit-margin-right="0"
     fit-margin-bottom="0" />
  <metadata
     id="metadata5">
    <rdf:RDF>
      <cc:Work
         rdf:about="">
        <dc:format>image/svg+xml</dc:format>
        <dc:type
           rdf:resource="http://purl.org/dc/dcmitype/StillImage" />
        <dc:title></dc:title>
      </cc:Work>
    </rdf:RDF>
  </metadata>
  <g
     inkscape:label="Layer 1"
     inkscape:groupmode="layer"
     id="layer1"
     transform="translate(-60.421472,-207.57662)">
    <path
       style="opacity:1;fill:#000000;fill-opacity:1;stroke:none;stroke-width:0.10769432;stroke-miterlimit:4;stroke-dasharray:none;stroke-opacity:0"
       id="path2768"
       d="m 82.529825,239.3314 c 0.431691,-0.0975 0.867395,-0.17467 1.30991,-0.22635 0.360238,-0.0409 0.724002,-0.045 1.086815,-0.0479 0.931728,-0.003 1.863462,-1.1e-4 2.795188,4.9e-4 0.315032,2.7e-4 0.630063,1.3e-4 0.945095,4e-4 0.311578,-0.0177 0.616052,0.0157 0.923555,0.0513 0.250976,0.0293 0.50469,0.0333 0.757561,0.0386 0,0 -1.615045,0.21241 -1.615045,0.21241 v 0 c -0.255311,-0.008 -0.510786,-0.0187 -0.763651,-0.0518 -0.305038,-0.0331 -0.609989,-0.0408 -0.917498,-0.0337 -0.314238,1e-4 -0.628476,-1.3e-4 -0.942711,-9.9e-4 -0.192285,-4e-4 -0.384568,-9.9e-4 -0.576852,-9.9e-4 -0.06713,-8e-5 -0.268543,-1.3e-4 -0.201406,-1.3e-4 2.030355,-5e-4 1.799931,-5e-4 1.20764,-5e-5 -0.362401,10e-4 -0.725688,5e-4 -1.08666,0.0314 -0.438226,0.0419 -0.874827,0.10054 -1.296046,0.21485 0,0 -1.625895,-0.18749 -1.625895,-0.18749 z"
       inkscape:connector-curvature="0" />
    <path
       style="opacity:1;fill:#000000;fill-opacity:1;stroke:none;stroke-width:0.10769432;stroke-miterlimit:4;stroke-dasharray:none;stroke-opacity:0"
       id="path2770"
       d="m 97.19649,239.05767 c 0.541236,0.002 1.082479,0.002 1.623716,0.002 0.538839,2.6e-4 1.077674,-2.7e-4 1.616514,-0.001 0.3162,-2.6e-4 0.63241,-4.9e-4 0.94862,-4.9e-4 0.13654,-9e-5 0.27308,-1e-4 0.40962,-3e-5 0,0 -1.6182,0.21724 -1.6182,0.21724 v 0 c -0.13638,7e-5 -0.272763,5e-5 -0.409145,-3e-5 -0.313625,-6e-5 -0.62725,-2.7e-4 -0.940875,-5e-4 -0.533408,-9.9e-4 -1.066819,-10e-4 -1.600229,-9.9e-4 -0.550364,0 -1.100733,-3e-5 -1.651095,0.002 0,0 1.621074,-0.21762 1.621074,-0.21762 z"
       inkscape:connector-curvature="0" />
    <path
       style="opacity:1;fill:#000000;fill-opacity:1;stroke:none;stroke-width:0.10769432;stroke-miterlimit:4;stroke-dasharray:none;stroke-opacity:0"
       id="path2772"
       d="m 106.70254,238.87029 c 0.50068,10e-4 1.00136,10e-4 1.50204,10e-4 0.0903,0 0.18057,3e-5 0.27086,0 0.62932,-2.6e-4 -0.10118,-1.1e-4 0.47994,-4e-4 0.0749,-4e-5 0.29956,5e-4 0.22467,0 -1.4391,-0.009 -1.84325,0.0385 -1.17505,-0.0279 0.18915,-0.0258 0.37728,-0.0564 0.56581,-0.0852 0,0 1.61723,0.19312 1.61723,0.19312 v 0 c -0.19096,0.0268 -0.38151,0.0555 -0.57134,0.0877 -0.9883,0.15247 -2.01107,0.0167 -3.01207,0.0475 -0.50772,-2.7e-4 -1.01545,-2.7e-4 -1.52317,0.001 0,0 1.62108,-0.21762 1.62108,-0.21762 z"
       inkscape:connector-curvature="0" />
    <path
       style="opacity:1;fill:#000000;fill-opacity:1;stroke:none;stroke-width:0.10769432;stroke-miterlimit:4;stroke-dasharray:none;stroke-opacity:0"
       id="path2774"
       d="m 118.7755,238.68316 c 0.53433,0.002 1.06866,0.001 1.60299,9.9e-4 0.28456,-2.6e-4 0.56913,-4e-4 0.8537,-9.9e-4 0,0 -1.61227,0.21644 -1.61227,0.21644 v 0 c -0.2809,-2.6e-4 -0.5618,-5e-4 -0.84269,-9.9e-4 -0.53971,-2.6e-4 -1.07942,-9.9e-4 -1.61913,9.9e-4 0,0 1.6174,-0.21713 1.6174,-0.21713 z"
       inkscape:connector-curvature="0" />
    <path
       style="opacity:1;fill:#000000;fill-opacity:1;stroke:none;stroke-width:0.10769432;stroke-miterlimit:4;stroke-dasharray:none;stroke-opacity:0"
       id="path2776"
       d="m 93.132371,246.85162 c 0.79337,0.0546 1.590038,0.0609 2.385522,0.0703 0.635566,0.006 1.271174,0.008 1.906777,0.008 0.115946,6e-5 0.463779,9.9e-4 0.347838,-1e-4 -0.431715,-0.004 -0.863457,-0.006 -1.295186,-0.009 0,0 1.597181,0.2084 1.597181,0.2084 v 0 c -1.373295,0.01 -2.746434,0.0196 -4.119689,-1.3e-4 -0.81439,-0.01 -1.629796,-0.0174 -2.442014,-0.0736 0,0 1.619571,-0.20468 1.619571,-0.20468 z"
       inkscape:connector-curvature="0" />
    <path
       style="opacity:1;fill:#000000;fill-opacity:1;stroke:none;stroke-width:0.10769432;stroke-miterlimit:4;stroke-dasharray:none;stroke-opacity:0"
       id="path2778"
       d="m 107.03414,246.64656 c 0.48972,0.001 0.97945,0.001 1.46917,0.001 0.0939,0 0.1877,-1e-5 0.28155,-2e-5 0,0 -1.5985,0.21459 -1.5985,0.21459 v 0 c -0.0937,-1e-5 -0.18743,-2e-5 -0.28115,-2e-5 -0.49738,1.3e-4 -0.99476,-8e-5 -1.49214,0.001 0,0 1.62107,-0.21762 1.62107,-0.21762 z"
       inkscape:connector-curvature="0" />
    <path
       style="opacity:1;fill:#000000;fill-opacity:1;stroke:none;stroke-width:0.10769432;stroke-miterlimit:4;stroke-dasharray:none;stroke-opacity:0"
       id="path2784"
       d="m 76.637702,242.4697 c -0.755424,0.21546 -1.554589,0.26045 -2.342664,0.31876 -1.436008,0.16116 -2.873289,0.30652 -4.316936,0.40828 -0.83897,0.0552 -1.679665,0.0895 -2.520867,0.10646 -0.986879,0.0104 -1.973908,0.003 -2.960839,9.9e-4 -0.671772,-0.001 -1.343547,-0.002 -2.015321,-0.002 -0.322205,3e-5 -0.644408,1.1e-4 -0.966612,4e-4 -0.08967,8e-5 -0.358684,2.6e-4 -0.269013,2.6e-4 1.206233,4.9e-4 1.86218,-3.9e-4 1.174902,4.9e-4 -1.873073,-0.0163 -1.209915,0.0396 -1.99888,-0.0332 0,0 1.613724,-0.20311 1.613724,-0.20311 v 0 c 0.65605,0.0473 0.249699,0.0132 -1.224783,0.0202 1.086505,0.001 2.173017,2.6e-4 3.259523,0.001 0.675383,3.9e-4 1.350764,1e-4 2.026146,9.9e-4 0.175082,2.6e-4 0.350165,3.9e-4 0.525247,4.9e-4 0.07277,1e-4 0.291063,2.7e-4 0.218297,2.7e-4 -2.589151,9.9e-4 -1.555424,9.9e-4 -0.988631,-4e-4 0.862916,-0.008 1.725476,-0.0374 2.586325,-0.0894 1.436096,-0.0942 2.86673,-0.23036 4.291559,-0.41046 0.764661,-0.0575 1.541877,-0.0902 2.27874,-0.28872 0,0 1.630083,0.16828 1.630083,0.16828 z"
       inkscape:connector-curvature="0" />
    <path
       style="opacity:1;fill:#000000;fill-opacity:1;stroke:none;stroke-width:0.10769432;stroke-miterlimit:4;stroke-dasharray:none;stroke-opacity:0"
       id="path2786"
       d="m 64.256932,213.6677 c 0.812769,0.0192 1.625175,0.0539 2.438184,0.073 0.729212,0.0166 1.458683,0.0207 2.188115,0.0228 0.11269,1.6e-4 0.22538,3.4e-4 0.33807,4.7e-4 0.117203,1.3e-4 0.234404,2.4e-4 0.351607,2.9e-4 0.118967,5e-5 0.475869,-1e-5 0.3569,4e-5 -2.470456,9.9e-4 -0.888657,1.6e-4 -0.366344,3.8e-4 0.749947,-2.1e-4 1.499896,-4.6e-4 2.249842,-0.001 0.981048,-0.005 1.961894,0.006 2.942906,0.0147 0.385822,0.0597 0.770667,0.12013 1.161337,0.15127 0,0 -1.616974,0.20198 -1.616974,0.20198 v 0 c -0.386772,-0.04 -0.76753,-0.11112 -1.155026,-0.14603 2.890425,-0.014 0.928512,-0.003 0.26356,-0.008 -0.75575,-9.9e-4 -1.511502,-9.9e-4 -2.267251,-9.9e-4 -1.28327,9.9e-4 -2.566545,0.002 -3.849813,6e-5 -0.723683,-0.002 -1.447363,-0.01 -2.170743,-0.0285 -0.828435,-0.0214 -1.656629,-0.0605 -2.485445,-0.0627 0,0 1.621075,-0.21763 1.621075,-0.21763 z"
       inkscape:connector-curvature="0" />
    <path
       style="opacity:1;fill:#000000;fill-opacity:1;stroke:none;stroke-width:0.10769432;stroke-miterlimit:4;stroke-dasharray:none;stroke-opacity:0"
       id="path2788"
       d="m 89.707439,216.34321 c 0.0737,0.015 0.14782,0.0286 0.221102,0.045 0.100926,0.0226 0.200948,0.048 0.301422,0.072 0.123796,0.0326 0.246247,0.0692 0.371385,0.0979 0.527113,0.12098 1.064508,0.19845 1.602639,0.27314 1.343209,0.18174 2.701697,0.24605 4.059298,0.2861 0.719527,0.0148 0.370329,0.009 1.047586,0.018 0,0 -1.570254,0.20826 -1.570254,0.20826 v 0 c -0.66541,-0.0122 -0.322377,-0.005 -1.029082,-0.023 -1.359419,-0.0464 -2.718938,-0.11871 -4.0637,-0.30277 -0.866405,-0.12509 -1.716558,-0.29589 -2.563298,-0.49422 0,0 1.622902,-0.18047 1.622902,-0.18047 z"
       inkscape:connector-curvature="0" />
    <path
       style="opacity:1;fill:#000000;fill-opacity:1;stroke:none;stroke-width:0.10769432;stroke-miterlimit:4;stroke-dasharray:none;stroke-opacity:0"
       id="path2790"
       d="m 104.06199,217.13435 c 0.65605,0.002 1.31211,0.002 1.96817,0.002 0.59903,2.6e-4 1.19806,-4e-5 1.79709,-5e-4 0,0 -1.59467,0.21408 -1.59467,0.21408 v 0 c -0.5959,-4.9e-4 -1.1918,-9.9e-4 -1.7877,-4.9e-4 -0.66737,1e-5 -1.33476,-2.6e-4 -2.00213,0.002 0,0 1.61924,-0.21738 1.61924,-0.21738 z"
       inkscape:connector-curvature="0" />
    <path
       style="opacity:1;fill:#000000;fill-opacity:1;stroke:none;stroke-width:0.10769432;stroke-miterlimit:4;stroke-dasharray:none;stroke-opacity:0"
       id="path2792"
       d="m 83.170793,208.51488 c 1.020358,0.004 2.040738,0.005 3.061109,0.005 0.628991,4e-5 1.25798,-4.6e-4 1.886971,-9.9e-4 0,0 -1.558622,0.20924 -1.558622,0.20924 v 0 c -0.623225,-5e-4 -1.246452,-9.9e-4 -1.869678,-9.9e-4 -1.046339,3.1e-4 -2.092688,9.9e-4 -3.139015,0.005 0,0 1.619235,-0.21737 1.619235,-0.21737 z"
       inkscape:connector-curvature="0" />
    <path
       style="opacity:1;fill:#000000;fill-opacity:1;stroke:none;stroke-width:0.10769432;stroke-miterlimit:4;stroke-dasharray:none;stroke-opacity:0"
       id="path2794"
       d="m 97.098257,208.42118 c 0.481466,0.001 0.962937,0.001 1.444406,0.001 0.459232,4e-4 0.918465,9.9e-4 1.377699,9.9e-4 0,0 -1.582922,0.2125 -1.582922,0.2125 v 0 c -0.465192,2.2e-4 -0.930385,0.001 -1.395578,0.001 -0.487613,1e-5 -0.975229,-1.9e-4 -1.46284,9.9e-4 0,0 1.619235,-0.21738 1.619235,-0.21738 z"
       inkscape:connector-curvature="0" />
    <path
       style="opacity:1;fill:#000000;fill-opacity:1;stroke:none;stroke-width:0.10769432;stroke-miterlimit:4;stroke-dasharray:none;stroke-opacity:0"
       id="path2796"
       d="m 111.02572,207.95274 c 0.60438,0.002 1.20877,0.002 1.81315,0.002 0.30562,-1.6e-4 0.61123,-1.7e-4 0.91685,-2.9e-4 0,0 -1.59663,0.21434 -1.59663,0.21434 v 0 c -0.30415,-1.2e-4 -0.60832,-1.4e-4 -0.91248,-2.9e-4 -0.61337,-5e-5 -1.22676,-4.9e-4 -1.84012,0.002 0,0 1.61923,-0.21738 1.61923,-0.21738 z"
       inkscape:connector-curvature="0" />
    <path
       style="opacity:1;fill:#000000;fill-opacity:1;stroke:none;stroke-width:0.10769432;stroke-miterlimit:4;stroke-dasharray:none;stroke-opacity:0"
       id="path2798"
       d="m 125.06372,207.57798 c 0.51745,0.001 1.0349,0.001 1.55235,0.001 0.42861,1.3e-4 0.21524,1.2e-4 0.6401,4e-5 0,0 -1.59358,0.21393 -1.59358,0.21393 v 0 c -0.4244,-9e-5 -0.21085,-1e-4 -0.64065,4e-5 -0.52582,2.6e-4 -1.05164,2.4e-4 -1.57745,0.001 0,0 1.61923,-0.21737 1.61923,-0.21737 z"
       inkscape:connector-curvature="0" />
    <path
       style="opacity:1;fill:#000000;fill-opacity:1;stroke:none;stroke-width:0.10769432;stroke-miterlimit:4;stroke-dasharray:none;stroke-opacity:0"
       id="path2804"
       d="m 75.52136,242.3113 c 0.37665,-0.3712 0.727941,-0.75846 1.055926,-1.16131 0.275058,-0.32912 0.433719,-0.70704 0.548784,-1.09472 0.04321,-0.18387 0.02027,-0.0934 0.06857,-0.27136 0,0 1.635504,0.0328 1.635504,0.0328 v 0 c -0.05221,0.17503 -0.02731,0.0841 -0.07381,0.27311 -0.123114,0.40248 -0.282427,0.79954 -0.56831,1.1423 -0.323462,0.40257 -0.669428,0.78984 -1.03064,1.16852 0,0 -1.636027,-0.0894 -1.636027,-0.0894 z"
       inkscape:connector-curvature="0" />
    <path
       style="opacity:1;fill:#000000;fill-opacity:1;stroke:none;stroke-width:0.10769432;stroke-miterlimit:4;stroke-dasharray:none;stroke-opacity:0"
       id="path2806"
       d="m 78.161696,243.30672 c 0.42224,0.67656 0.927864,1.31031 1.446227,1.93562 0.333696,0.39962 0.638005,0.81652 0.987985,1.20624 0.189545,0.2195 0.328676,0.46914 0.403062,0.73355 0.08507,0.23165 0.149246,0.45965 0.173886,0.70175 0,0 -1.633605,0.012 -1.633605,0.012 v 0 c -0.02452,-0.23466 -0.09765,-0.45438 -0.177835,-0.6794 -0.07821,-0.2458 -0.212377,-0.47535 -0.39164,-0.68005 -0.334551,-0.39419 -0.629673,-0.81088 -0.951949,-1.21223 -0.51684,-0.63781 -1.018161,-1.28393 -1.484694,-1.9493 0,0 1.628563,-0.0682 1.628563,-0.0682 z"
       inkscape:connector-curvature="0" />
    <path
       style="opacity:1;fill:#000000;fill-opacity:1;stroke:none;stroke-width:0.10769432;stroke-miterlimit:4;stroke-dasharray:none;stroke-opacity:0"
       id="path2808"
       d="m 74.308555,213.22618 c 0.429646,-0.6679 0.836021,-1.34643 1.249236,-2.02201 0.324116,-0.56225 0.66719,-1.11626 1.015729,-1.66782 0.21043,-0.30368 0.445218,-0.59482 0.683659,-0.88304 0,0 1.624799,0.0851 1.624799,0.0851 v 0 c -0.240657,0.28358 -0.477404,0.56994 -0.696668,0.86584 -0.356257,0.54989 -0.706177,1.10241 -1.033316,1.66531 -0.418884,0.6665 -0.830538,1.33445 -1.21358,2.01634 0,0 -1.629859,-0.0598 -1.629859,-0.0598 z"
       inkscape:connector-curvature="0" />
    <path
       style="opacity:1;fill:#000000;fill-opacity:1;stroke:none;stroke-width:0.10769432;stroke-miterlimit:4;stroke-dasharray:none;stroke-opacity:0"
       id="path2810"
       d="m 76.564291,213.42557 c 0.255773,0.8846 0.558516,1.75893 0.866767,2.63142 0.262027,0.77302 0.552211,1.53875 0.831487,2.30733 0.06813,0.19573 0.123294,0.39355 0.196206,0.588 0,0 -1.63005,0.0395 -1.63005,0.0395 v 0 c -0.06258,-0.19556 -0.11325,-0.39328 -0.177418,-0.58852 -0.254323,-0.77138 -0.532308,-1.53655 -0.787393,-2.30778 -0.308954,-0.87926 -0.6101,-1.76097 -0.934119,-2.63604 0,0 1.63452,-0.034 1.63452,-0.034 z"
       inkscape:connector-curvature="0" />
    <path
       style="opacity:1;fill:#ff0000;fill-opacity:1;stroke:none;stroke-width:0.10769432;stroke-miterlimit:4;stroke-dasharray:none;stroke-opacity:0"
       id="path2814"
       d="m 85.137943,237.34573 c 0.481401,-0.49404 0.784563,-1.08801 1.088342,-1.66901 0.457615,-0.84804 0.81671,-1.73009 1.220555,-2.59677 0.39276,-0.81535 0.687613,-1.66009 1.043348,-2.48671 0.318321,-0.6583 0.569944,-1.33688 0.826617,-2.01363 0.221937,-0.65355 0.405467,-1.31491 0.619617,-1.97019 0.222508,-0.71481 0.515307,-1.41085 0.753931,-2.12174 0.237483,-0.73611 0.503441,-1.46406 0.72091,-2.20481 0.282595,-0.69934 0.522422,-1.40856 0.763047,-2.11871 0.239322,-0.77201 0.531387,-1.52958 0.81304,-2.29077 0.240528,-0.67303 0.515465,-1.33642 0.75484,-2.00987 0.15832,-0.45879 0.257964,-0.92895 0.407629,-1.38939 0.08952,-0.33385 0.196786,-0.66297 0.316523,-0.98991 0.135493,-0.37833 0.381298,-0.71921 0.551859,-1.08709 0.140296,-0.34932 0.280303,-0.69639 0.460446,-1.03266 0.145936,-0.31151 0.309212,-0.61607 0.477415,-0.91927 0.153681,-0.22701 0.206644,-0.49622 0.372549,-0.71609 0.483519,-0.37861 0.148068,-0.14229 1.775317,-0.0353 0.02673,0.002 0.25891,0.41936 0.281508,0.45885 0.19955,0.33294 0.351106,0.68394 0.524411,1.0268 0.182151,0.35343 0.340458,0.71682 0.471667,1.08619 0.243906,0.55212 0.38475,1.12936 0.52496,1.70499 0.124026,0.66689 0.260866,1.3319 0.390726,1.99815 0.19033,0.70194 0.29824,1.41603 0.43777,2.1256 0.15671,0.82962 0.43346,1.63516 0.7096,2.44026 0.13411,0.56429 0.41942,1.08768 0.64563,1.62668 0.10986,0.26177 0.20968,0.52649 0.31761,0.78883 0.35047,0.78476 0.74293,1.55595 1.06147,2.35062 0.38534,0.83764 0.6632,1.70529 0.9982,2.5575 0.30673,0.7555 0.59277,1.51635 0.87442,2.27877 0.16456,0.55944 0.43968,1.08701 0.67556,1.62585 0.20531,0.50584 0.39983,1.01243 0.56385,1.52922 0.14971,0.46838 0.21782,0.94936 0.32166,1.42503 0.10262,0.43961 0.30288,0.85562 0.45214,1.28414 0.10457,0.22169 0.23028,0.43737 0.35561,0.65146 0.10812,0.17001 0.13979,0.36385 0.2403,0.53565 0,0 -1.64168,0.0598 -1.64168,0.0598 v 0 c -0.088,-0.17471 -0.12927,-0.36369 -0.23567,-0.53247 -0.12519,-0.22142 -0.26285,-0.44026 -0.34723,-0.67586 -0.14259,-0.43379 -0.3359,-0.85523 -0.44226,-1.29742 -0.10461,-0.47152 -0.16696,-0.9499 -0.31514,-1.41463 -0.16075,-0.51291 -0.36502,-1.0132 -0.56436,-1.51598 -0.23984,-0.53909 -0.50026,-1.07334 -0.66276,-1.63429 -0.27218,-0.76243 -0.55468,-1.52152 -0.8551,-2.27637 -0.33211,-0.85313 -0.61871,-1.7189 -1.00655,-2.55585 -0.32439,-0.79283 -0.70625,-1.56701 -1.06115,-2.3502 -0.1065,-0.26165 -0.20811,-0.52473 -0.31739,-0.78555 -0.22698,-0.54173 -0.50207,-1.07111 -0.640269,-1.63693 -0.278517,-0.81048 -0.563493,-1.61979 -0.718801,-2.4557 -0.142963,-0.70978 -0.258853,-1.42375 -0.450765,-2.12598 -0.128446,-0.66426 -0.254909,-1.32872 -0.385966,-1.99248 -0.142029,-0.57273 -0.2986,-1.14343 -0.546442,-1.69127 -0.138508,-0.36349 -0.292839,-0.7235 -0.476979,-1.07229 -0.16988,-0.34132 -0.317942,-0.69142 -0.526539,-1.01792 -0.05962,-0.0972 -0.120934,-0.24526 -0.219404,-0.32336 -0.019,-0.0151 -0.09462,-0.0306 -0.06862,-0.0315 1.43675,-0.0504 2.086689,0.0755 1.501466,-0.0338 -0.107655,0.07 -0.123627,0.15566 -0.170665,0.26176 -0.06287,0.1418 -0.140363,0.27837 -0.213253,0.41653 -0.171442,0.30136 -0.335117,0.60559 -0.479847,0.91701 -0.180927,0.33342 -0.328539,0.67564 -0.463891,1.02417 -0.08491,0.19019 -0.179638,0.37155 -0.286296,0.55371 -0.04225,0.0721 -0.169816,0.28211 -0.204899,0.36069 -0.02362,0.0529 -0.03701,0.1087 -0.05552,0.16304 -0.116383,0.32705 -0.230376,0.65406 -0.321068,0.98706 -0.159341,0.46019 -0.2615,0.93198 -0.423478,1.39191 -0.248991,0.67256 -0.531717,1.33546 -0.771022,2.01057 -0.285977,0.75876 -0.57493,1.51539 -0.809877,2.28717 -0.239551,0.70882 -0.474085,1.41785 -0.760935,2.1145 -0.22494,0.74059 -0.484211,1.47186 -0.724781,2.20865 -0.237879,0.71006 -0.523324,1.40743 -0.746875,2.121 -0.214751,0.65692 -0.398564,1.32012 -0.62158,1.97514 -0.251224,0.68121 -0.509352,1.36152 -0.837666,2.01947 -0.362015,0.82667 -0.657529,1.67304 -1.05038,2.49026 -0.413286,0.86457 -0.762785,1.75017 -1.215161,2.60136 -0.300054,0.58573 -0.586718,1.18675 -1.038245,1.70277 0,0 -1.636027,-0.0894 -1.636027,-0.0894 z"
       inkscape:connector-curvature="0" />
  </g>
</svg>
