<?xml version="1.0" encoding="UTF-8" standalone="no"?>
<!-- Created with Inkscape (http://www.inkscape.org/) -->

<svg
   xmlns:dc="http://purl.org/dc/elements/1.1/"
   xmlns:cc="http://creativecommons.org/ns#"
   xmlns:rdf="http://www.w3.org/1999/02/22-rdf-syntax-ns#"
   xmlns:svg="http://www.w3.org/2000/svg"
   xmlns="http://www.w3.org/2000/svg"
   xmlns:sodipodi="http://sodipodi.sourceforge.net/DTD/sodipodi-0.dtd"
   xmlns:inkscape="http://www.inkscape.org/namespaces/inkscape"
   width="150mm"
   height="100mm"
   viewBox="0 0 150 100"
   version="1.1"
   id="svg8"
   inkscape:version="0.92.5 (2060ec1f9f, 2020-04-08)"
   sodipodi:docname="glass_cell_sides_mot_beams_1.svg">
  <defs
     id="defs2" />
  <sodipodi:namedview
     id="base"
     pagecolor="#ffffff"
     bordercolor="#666666"
     borderopacity="1.0"
     inkscape:pageopacity="0.0"
     inkscape:pageshadow="2"
     inkscape:zoom="1.4"
     inkscape:cx="205.02296"
     inkscape:cy="181.31284"
     inkscape:document-units="mm"
     inkscape:current-layer="layer1"
     showgrid="false"
     inkscape:pagecheckerboard="false"
     inkscape:window-width="1920"
     inkscape:window-height="1015"
     inkscape:window-x="0"
     inkscape:window-y="36"
     inkscape:window-maximized="1" />
  <metadata
     id="metadata5">
    <rdf:RDF>
      <cc:Work
         rdf:about="">
        <dc:format>image/svg+xml</dc:format>
        <dc:type
           rdf:resource="http://purl.org/dc/dcmitype/StillImage" />
        <dc:title></dc:title>
      </cc:Work>
    </rdf:RDF>
  </metadata>
  <g
     inkscape:label="Layer 1"
     inkscape:groupmode="layer"
     id="layer1"
     transform="translate(0,-197)">
    <path
       style="opacity:1;fill:#0000ff;fill-opacity:1;stroke:none;stroke-width:0.2;stroke-miterlimit:4;stroke-dasharray:none;stroke-opacity:0"
       id="path1524"
       d="m 45.8505,227.42302 c 3.08044,0.0208 6.160979,0.0259 9.241475,0.0329 7.880038,0.0182 15.760102,0.0232 23.640158,0.0246 6.925056,0.0156 13.850186,-0.0513 20.774975,0.0245 1.737622,-0.001 3.473892,0.0767 5.205652,0.21426 0,0 -2.71888,0.40729 -2.71888,0.40729 v 0 c -1.63286,-0.14518 -3.270627,-0.2277 -4.910173,-0.24125 -6.793405,-0.11966 -13.58809,-0.0674 -20.382243,-0.0831 -7.983733,0.002 -15.967474,0.007 -23.951192,0.0246 -3.219008,0.007 -6.43805,0.0126 -9.657008,0.0329 0,0 2.757236,-0.4367 2.757236,-0.4367 z"
       inkscape:connector-curvature="0" />
    <path
       style="opacity:1;fill:#0000ff;fill-opacity:1;stroke:none;stroke-width:0.2;stroke-miterlimit:4;stroke-dasharray:none;stroke-opacity:0"
       id="path1526"
       d="m 47.98932,228.62829 c -0.937226,1.8796 -1.258244,3.98585 -1.614577,6.03298 -0.686155,4.63937 -0.810581,9.33624 -0.908077,14.0175 -0.07908,4.63768 -0.04797,9.27642 -2.64e-4,13.91426 0.02664,2.58637 0.05905,5.17268 0.09141,7.75899 0.01283,1.01252 0.02789,2.02498 0.04726,3.03739 0,0 -2.763451,6e-5 -2.763451,6e-5 v 0 c 0.01894,-1.01235 0.03316,-2.02473 0.04421,-3.0372 0.02757,-2.58634 0.0518,-5.1727 0.07325,-7.7591 0.04232,-4.63969 0.07004,-9.27951 0.12624,-13.91907 0.08639,-4.69037 0.159467,-9.39298 0.766713,-14.05182 0.285953,-2.07774 0.575143,-4.17146 1.338021,-6.13945 0,0 2.799371,0.14546 2.799371,0.14546 z"
       inkscape:connector-curvature="0" />
    <path
       style="opacity:1;fill:#0000ff;fill-opacity:1;stroke:none;stroke-width:0.2;stroke-miterlimit:4;stroke-dasharray:none;stroke-opacity:0"
       id="path1528"
       d="m 44.465586,273.3462 c 0.150731,0.0207 0.30217,0.0368 0.452194,0.0621 1.187593,0.2005 2.368831,0.41305 3.565848,0.55886 1.951484,0.23773 2.656805,0.26799 4.692888,0.42616 6.764668,0.41711 13.545505,0.45419 20.320653,0.49679 3.199247,0.0148 6.398525,0.0165 9.597798,0.0157 0.966438,-2.3e-4 1.933074,0.0181 2.899317,-10e-4 0.165129,-0.003 0.325982,-0.0585 0.490916,-0.0672 0.870167,-0.0458 1.741564,-0.0641 2.612347,-0.0961 3.756835,-0.22288 7.520125,-0.50041 11.250803,-1.00751 1.59881,-0.26311 3.1992,-0.51659 4.79726,-0.7843 0.67813,-0.11611 0.35571,-0.0605 0.96727,-0.16657 0,0 2.72973,0.38609 2.72973,0.38609 v 0 c -0.63236,0.10201 -0.30053,0.048 -0.99544,0.16225 -1.63866,0.27771 -3.28508,0.50675 -4.9254,0.77446 -3.803124,0.51969 -7.645781,0.75531 -11.474276,0.99906 -6.71177,0.23918 -13.427432,0.15865 -20.142067,0.13105 -6.829787,-0.0513 -13.664919,-0.0835 -20.485052,-0.48746 -2.171531,-0.16076 -2.770907,-0.18207 -4.850302,-0.41763 -1.261684,-0.14293 -2.512735,-0.37859 -3.774149,-0.51761 -0.165669,-0.0183 -0.332811,-0.0189 -0.499216,-0.0283 0,0 2.768878,-0.43855 2.768878,-0.43855 z"
       inkscape:connector-curvature="0" />
    <path
       style="opacity:1;fill:#0000ff;fill-opacity:1;stroke:none;stroke-width:0.2;stroke-miterlimit:4;stroke-dasharray:none;stroke-opacity:0"
       id="path1530"
       d="m 103.83521,229.12253 c -0.14225,2.99235 -0.16543,5.99001 -0.20677,8.98517 0.003,2.95898 -0.0867,5.91976 -0.0465,8.87875 0.0405,2.98295 0.21519,5.96596 0.35944,8.94509 0.22296,4.49075 0.37158,8.98437 0.49195,13.47886 0.0591,1.9313 0.11338,3.86124 0.0424,5.79258 -0.0352,0.55502 -0.0287,1.11337 -0.0914,1.66617 0,0 -2.79029,-0.0353 -2.79029,-0.0353 v 0 c 0.0777,-0.54537 0.0755,-1.09971 0.14378,-1.64668 0.15222,-1.92121 0.15843,-3.84653 0.15385,-5.77314 -0.007,-4.4921 -0.0927,-8.98388 -0.28534,-13.47214 -0.11948,-2.98361 -0.27783,-5.96948 -0.32522,-8.95541 -0.047,-2.95896 0.0186,-5.91979 -0.0465,-8.87875 -0.0413,-2.99516 -0.0645,-5.99282 -0.20677,-8.98517 0,0 2.80732,0 2.80732,0 z"
       inkscape:connector-curvature="0" />
    <path
       style="opacity:1;fill:#0000ff;fill-opacity:1;stroke:none;stroke-width:0.2;stroke-miterlimit:4;stroke-dasharray:none;stroke-opacity:0"
       id="path1532"
       d="m 53.321735,234.90769 c -0.385387,2.12066 -0.456843,4.28281 -0.54125,6.43162 -0.09494,3.00182 -0.08662,6.00562 -0.07075,9.0085 -0.01577,1.7488 -0.04341,3.49774 -0.154429,5.24328 -0.08838,1.12941 -0.128908,2.26146 -0.13933,3.39403 -0.0058,0.61907 0.0038,1.23812 0.004,1.85718 7.94e-4,0.55479 -5.29e-4,1.10959 -0.0028,1.66438 -0.0021,0.51583 -0.0011,1.03168 0.0021,1.5475 0,0 -2.785377,1e-5 -2.785377,1e-5 v 0 c 0.0033,-0.51577 0.0043,-1.03157 0.0016,-1.54736 -0.0028,-0.55479 -0.0051,-1.1096 -0.006,-1.6644 -2.64e-4,-0.62122 0.01119,-1.24251 0.03059,-1.86341 0.03979,-1.13684 0.07944,-2.27422 0.173554,-3.40816 0.148338,-1.73764 0.206192,-3.48091 0.261556,-5.22369 0.03059,-3.00543 0.06541,-6.01082 0.122711,-9.01588 0.05053,-2.16007 0.101153,-4.32208 0.313137,-6.47379 0,0 2.790444,0.0502 2.790444,0.0502 z"
       inkscape:connector-curvature="0" />
    <path
       style="opacity:1;fill:#0000ff;fill-opacity:1;stroke:none;stroke-width:0.2;stroke-miterlimit:4;stroke-dasharray:none;stroke-opacity:0"
       id="path1534"
       d="m 52.22001,264.7705 c 1.597766,0.48057 3.270094,0.64883 4.910987,0.92578 3.057594,0.54564 6.163482,0.65047 9.255773,0.84336 3.735853,0.24457 7.47953,0.32047 11.222125,0.37084 2.205746,0.0255 4.411667,0.0285 6.61752,0.0201 -4.666321,0.002 -1.332201,-0.005 -0.252389,-0.006 0.707316,-0.007 1.415209,0.0237 2.12035,-0.0416 0.545983,-0.0704 1.093872,-0.11325 1.643814,-0.13347 0.79653,7.9e-4 1.590164,-0.0275 2.384091,-0.091 0.116353,-0.0142 0.232704,-0.0285 0.349057,-0.0427 0,0 2.744489,0.39469 2.744489,0.39469 v 0 c -0.119457,0.0196 -0.238911,0.0392 -0.358365,0.0587 -0.789099,0.064 -1.576642,0.12433 -2.369198,0.1073 -0.54804,0.013 -1.095696,0.038 -1.639462,0.11242 -0.713518,0.0875 -1.427533,0.0731 -2.145832,0.0676 -1.724668,0.003 -3.449338,0.004 -5.174011,0.001 -2.139032,-0.009 -4.278046,-0.0263 -6.416903,-0.0556 -3.747005,-0.0612 -7.495071,-0.14161 -11.235751,-0.38049 -3.116865,-0.18477 -6.243886,-0.31527 -9.325469,-0.85943 -1.709724,-0.2702 -3.451998,-0.44035 -5.11153,-0.95302 0,0 2.780704,-0.33869 2.780704,-0.33869 z"
       inkscape:connector-curvature="0" />
    <path
       style="opacity:1;fill:#0000ff;fill-opacity:1;stroke:none;stroke-width:0.2;stroke-miterlimit:4;stroke-dasharray:none;stroke-opacity:0"
       id="path1536"
       d="m 54.396298,234.41619 c 2.910141,0.0204 5.820389,0.0223 8.730591,0.0251 4.11498,0.003 8.229957,-5.3e-4 12.344934,-0.005 2.657941,-0.003 5.315884,-0.007 7.973825,-0.009 1.344575,-7.9e-4 2.68914,-0.006 4.03371,-0.009 0.575861,0.0123 1.154393,-0.0353 1.727261,0.0318 0.622684,0.0873 1.251154,0.11867 1.878973,0.14034 0.395679,0.01 0.201292,0.006 0.583152,0.0118 0,0 -2.752852,0.42998 -2.752852,0.42998 v 0 c -0.377817,-0.0101 -0.185287,-0.004 -0.577582,-0.0182 -0.630119,-0.0299 -1.258502,-0.0798 -1.885461,-0.1499 -0.567563,-0.0228 -1.13584,-0.006 -1.703755,-0.0134 -1.306277,-0.003 -2.612549,-0.008 -3.918828,-0.009 -2.619026,-0.003 -5.238049,-0.006 -7.857075,-0.009 -4.092779,-0.005 -8.18556,-0.009 -12.278341,-0.005 -3.016015,0.003 -6.032069,0.005 -9.048028,0.0251 0,0 2.749476,-0.43547 2.749476,-0.43547 z"
       inkscape:connector-curvature="0" />
    <path
       style="opacity:1;fill:#0000ff;fill-opacity:1;stroke:none;stroke-width:0.2;stroke-miterlimit:4;stroke-dasharray:none;stroke-opacity:0"
       id="path1538"
       d="m 92.675087,237.36205 c -0.06515,1.95204 -0.08691,3.90541 -0.103002,5.85839 -0.01932,2.8354 -0.0086,5.67101 0.02724,8.50624 0.01871,1.44578 0.04084,2.89151 0.05386,4.33736 -0.0113,1.0781 0.02908,2.15681 0.150937,3.2281 0.161033,1.08974 0.511683,2.13715 0.752567,3.20904 0.172749,0.72417 0.400609,1.43216 0.540539,2.16429 0.04196,0.32269 0.175458,0.63531 0.205758,0.95973 0.01363,0.14584 -0.0019,0.36424 -0.0088,0.50989 -0.01368,0.0866 -0.02737,0.17328 -0.04105,0.25992 0,0 -2.791603,-0.0463 -2.791603,-0.0463 v 0 c 0.01344,-0.0754 0.0269,-0.15085 0.04036,-0.22627 0.02077,-0.48097 -0.07893,-0.93922 -0.189931,-1.40649 -0.127376,-0.72848 -0.344832,-1.43373 -0.507746,-2.15431 -0.239192,-1.07965 -0.561094,-2.14165 -0.727753,-3.23685 -0.136665,-1.08055 -0.186134,-2.1716 -0.167164,-3.26073 0.01302,-1.44585 0.03515,-2.89158 0.05386,-4.33736 0.03585,-2.83523 0.04654,-5.67084 0.02724,-8.50624 -0.01609,-1.95298 -0.03786,-3.90635 -0.103003,-5.85839 0,0 2.787677,0 2.787677,0 z"
       inkscape:connector-curvature="0" />
    <path
       style="opacity:1;fill:#ff0000;fill-opacity:1;stroke:none;stroke-width:0.2;stroke-miterlimit:4;stroke-dasharray:none;stroke-opacity:0"
       id="path1542"
       d="m 11.791312,249.91199 c 0.982471,0.004 1.964951,0.005 2.947428,0.007 2.150059,0.004 4.300119,0.006 6.450178,0.009 3.820697,0.007 7.641402,0.008 11.462102,0.0105 4.879234,0.002 9.758465,0.004 14.637699,0.006 6.294829,0.003 12.589656,0.009 18.884485,0.0129 7.7325,0.004 15.465004,0.006 23.197507,0.004 6.828049,-0.003 13.656099,-0.006 20.484149,-0.0113 4.8487,-0.004 9.6974,-0.01 14.54611,-0.0131 2.99054,-0.001 5.98108,-0.009 8.97161,-0.0134 1.41854,-0.003 2.83708,-0.005 4.25561,-0.008 0.72502,-5.3e-4 1.45003,-0.003 2.17504,-0.003 0.41114,-0.001 0.82229,-0.001 1.23343,-0.001 -4.63412,0.26185 -2.99758,0.0509 -1.97584,-0.0955 0,0 2.7678,0.4017 2.7678,0.4017 v 0 c -1.22773,0.14376 -2.05223,0.45692 -3.56024,0.13222 -0.40557,-7e-5 -0.81115,-2.5e-4 -1.21673,-0.001 -0.71203,-2.7e-4 -1.42407,-0.003 -2.13611,-0.003 -1.38649,-0.003 -2.77299,-0.005 -4.15948,-0.008 -2.93394,-0.005 -5.86787,-0.0121 -8.80181,-0.0134 -4.79368,-0.003 -9.58736,-0.009 -14.38105,-0.0131 -6.78041,-0.006 -13.560829,-0.008 -20.341248,-0.0113 -7.747543,-0.003 -15.495087,-7.9e-4 -23.24263,0.004 -6.349341,0.004 -12.698679,0.01 -19.04802,0.0129 -4.905121,0.002 -9.81024,0.004 -14.715361,0.006 -3.864821,0.002 -7.729644,0.004 -11.594461,0.0105 -2.189912,0.004 -4.379825,0.006 -6.569736,0.009 -1.01181,0.002 -2.023625,0.003 -3.0354295,0.007 0,0 2.7649975,-0.43794 2.7649975,-0.43794 z"
       inkscape:connector-curvature="0" />
    <ellipse
       style="opacity:1;fill:#ff0000;fill-opacity:1;stroke:none;stroke-width:0.2;stroke-miterlimit:4;stroke-dasharray:none;stroke-opacity:0"
       id="path1544"
       cx="72.854912"
       cy="249.94197"
       rx="7.8430057"
       ry="4.3467264" />
    <text
       xml:space="preserve"
       style="font-style:normal;font-weight:normal;font-size:7.44191694px;line-height:1.25;font-family:sans-serif;letter-spacing:0px;word-spacing:0px;fill:#000000;fill-opacity:1;stroke:none;stroke-width:0.18604793"
       x="2.2557485"
       y="253.91374"
       id="text1548"
       transform="scale(1.0281956,0.97257759)"><tspan
         sodipodi:role="line"
         id="tspan1546"
         x="2.2557485"
         y="253.91374"
         style="stroke-width:0.18604793">MOT beam</tspan></text>
  </g>
</svg>
