<?xml version="1.0" encoding="UTF-8" standalone="no"?>
<!-- Created with Inkscape (http://www.inkscape.org/) -->

<svg
   xmlns:dc="http://purl.org/dc/elements/1.1/"
   xmlns:cc="http://creativecommons.org/ns#"
   xmlns:rdf="http://www.w3.org/1999/02/22-rdf-syntax-ns#"
   xmlns:svg="http://www.w3.org/2000/svg"
   xmlns="http://www.w3.org/2000/svg"
   xmlns:sodipodi="http://sodipodi.sourceforge.net/DTD/sodipodi-0.dtd"
   xmlns:inkscape="http://www.inkscape.org/namespaces/inkscape"
   width="150mm"
   height="100mm"
   viewBox="0 0 150 100"
   version="1.1"
   id="svg8"
   inkscape:version="0.92.5 (2060ec1f9f, 2020-04-08)"
   sodipodi:docname="glass_cell_sides_mot_beams_0.svg">
  <defs
     id="defs2" />
  <sodipodi:namedview
     id="base"
     pagecolor="#ffffff"
     bordercolor="#666666"
     borderopacity="1.0"
     inkscape:pageopacity="0.0"
     inkscape:pageshadow="2"
     inkscape:zoom="1.4"
     inkscape:cx="266.69421"
     inkscape:cy="189.55761"
     inkscape:document-units="mm"
     inkscape:current-layer="layer1"
     showgrid="false"
     inkscape:pagecheckerboard="false"
     inkscape:window-width="1920"
     inkscape:window-height="1015"
     inkscape:window-x="0"
     inkscape:window-y="36"
     inkscape:window-maximized="1" />
  <metadata
     id="metadata5">
    <rdf:RDF>
      <cc:Work
         rdf:about="">
        <dc:format>image/svg+xml</dc:format>
        <dc:type
           rdf:resource="http://purl.org/dc/dcmitype/StillImage" />
        <dc:title></dc:title>
      </cc:Work>
    </rdf:RDF>
  </metadata>
  <g
     inkscape:label="Layer 1"
     inkscape:groupmode="layer"
     id="layer1"
     transform="translate(0,-197)">
    <path
       style="opacity:1;fill:#0000ff;fill-opacity:1;stroke:none;stroke-width:0.2;stroke-miterlimit:4;stroke-dasharray:none;stroke-opacity:0"
       id="path881"
       d="m 44.935013,236.59585 c 4.317021,0.52775 8.667959,0.70823 13.010406,0.88911 9.949014,0.32296 19.904671,0.3475 29.857936,0.3792 8.171997,0.0223 16.343995,0.01 24.515985,-0.008 3.42444,-0.01 1.80546,-0.005 4.85693,-0.0151 0,0 2.49577,0.39516 2.49577,0.39516 v 0 c -3.15755,-0.007 -1.4846,-0.004 -5.01884,-0.0105 -9.63394,-0.0134 -19.267895,-0.0119 -28.901814,-0.0373 -10.029999,-0.0341 -20.062038,-0.0519 -30.088456,-0.35133 -4.503501,-0.17186 -9.022443,-0.32307 -13.498845,-0.87176 0,0 2.770928,-0.36954 2.770928,-0.36954 z"
       inkscape:connector-curvature="0" />
    <path
       style="opacity:1;fill:#0000ff;fill-opacity:1;stroke:none;stroke-width:0.2;stroke-miterlimit:4;stroke-dasharray:none;stroke-opacity:0"
       id="path883"
       d="m 48.713576,258.10679 c 2.829497,0.39913 5.686882,0.47956 8.539148,0.56859 7.002958,0.15376 14.008259,0.15214 21.012563,0.16101 4.810744,0.006 9.621448,-0.008 14.432166,-0.0223 2.417318,-0.008 4.834639,-0.0113 7.251967,-0.009 4.77986,0.0133 9.55973,0.0113 14.3396,0.01 2.00418,-0.002 4.00835,-0.005 6.01252,-0.0108 0,0 -2.64747,0.41932 -2.64747,0.41932 v 0 c -1.95864,-0.005 -3.91729,-0.009 -5.87594,-0.0108 1.09322,-0.004 0.92536,-0.003 -1.797,-0.002 -1.99439,7.9e-4 -3.98876,0.005 -5.98314,0.009 -0.47091,10e-4 -0.94181,0.002 -1.41271,0.003 -2.44659,0.003 -4.893166,2.7e-4 -7.339749,-0.005 -6.413508,-0.0123 -12.827021,-0.0153 -19.240535,-0.0235 -7.072447,-0.0103 -14.145738,-10e-4 -21.217178,-0.13583 -2.953112,-0.0844 -5.91104,-0.16393 -8.842773,-0.55971 0,0 2.768531,-0.39174 2.768531,-0.39174 z"
       inkscape:connector-curvature="0" />
    <path
       style="opacity:1;fill:#0000ff;fill-opacity:1;stroke:none;stroke-width:0.2;stroke-miterlimit:4;stroke-dasharray:none;stroke-opacity:0"
       id="path887"
       d="m 118.78399,238.08271 c 0.0608,1.61704 0.30811,3.21805 0.47251,4.82623 0.25027,2.81765 0.29954,5.64809 0.35316,8.47481 0.0473,1.843 0.0653,3.68446 -0.008,5.52665 0,0 -2.75133,-0.0151 -2.75133,-0.0151 v 0 c 0.12855,-1.8337 0.14384,-3.6697 0.11764,-5.50758 -0.0312,-2.81923 -0.0833,-5.64295 -0.37823,-8.4493 -0.19301,-1.61186 -0.46074,-3.21287 -0.60514,-4.83033 0,0 2.79956,-0.0254 2.79956,-0.0254 z"
       inkscape:connector-curvature="0" />
    <path
       style="opacity:1;fill:#0000ff;fill-opacity:1;stroke:none;stroke-width:0.2;stroke-miterlimit:4;stroke-dasharray:none;stroke-opacity:0"
       id="path893"
       d="m 42.452771,230.63518 c 2.949135,0.0163 5.898328,0.0192 8.847495,0.0255 7.402158,0.0143 14.804327,0.0174 22.206495,0.016 6.002285,2.4e-4 12.004558,-0.0112 18.006832,-0.0215 2.847735,-0.006 5.695466,-0.01 8.543207,-0.008 3.12866,0.003 6.25732,0.004 9.38599,0.004 2.50813,-5.3e-4 5.01627,-0.003 7.5244,-0.008 1.33638,-0.003 2.67276,-0.002 4.00915,-0.002 1.48087,0.002 2.96175,0.002 4.44263,1.1e-4 0.61714,-7.9e-4 0.53029,-5.3e-4 1.11307,-0.002 0.14468,-2.6e-4 0.57872,2.7e-4 0.43404,-7.9e-4 -4.19814,-0.0335 -2.75909,0.0307 -1.77023,-0.0722 0.34384,-0.0375 0.17574,-0.0197 0.50427,-0.0536 0,0 2.77017,0.41175 2.77017,0.41175 v 0 c -0.33286,0.0292 -0.16245,0.013 -0.51119,0.0491 -1.7415,0.19423 -3.49839,0.0759 -5.24756,0.0964 -1.48137,-0.002 -2.96274,-0.002 -4.44411,1.2e-4 -1.32633,2e-5 -2.65266,0.001 -3.97899,-0.002 -2.47293,-0.005 -4.94586,-0.008 -7.41879,-0.008 -3.14372,-8e-4 -6.28743,7.9e-4 -9.43115,0.004 -2.812862,0.002 -5.625716,-0.002 -8.43857,-0.008 -5.911628,-0.0104 -11.823258,-0.0219 -17.734896,-0.0215 -7.469426,-0.002 -14.938849,0.002 -22.408263,0.016 -3.056452,0.006 -6.112926,0.01 -9.169348,0.0255 0,0 2.765348,-0.43799 2.765348,-0.43799 z"
       inkscape:connector-curvature="0" />
    <path
       style="opacity:1;fill:#0000ff;fill-opacity:1;stroke:none;stroke-width:0.2;stroke-miterlimit:4;stroke-dasharray:none;stroke-opacity:0"
       id="path895"
       d="m 47.00952,265.22025 c 1.919459,0.01 3.838955,0.0101 5.758435,0.0114 2.91461,10e-4 5.829223,0.002 8.743836,0.002 2.78679,-0.002 5.573578,-0.001 8.360368,-0.002 1.314677,10e-5 2.629352,-3e-5 3.94403,-7.9e-4 0.389763,-2.7e-4 1.558446,0.0206 1.169289,-0.001 -0.968846,-0.0541 -2.654419,0.0139 -0.586788,-0.0516 1.472086,-0.0629 2.944519,-0.10795 4.417782,-0.12854 1.776079,0.0186 3.549282,-0.0547 5.313207,-0.26231 1.852776,-0.3057 3.71643,-0.50519 5.590312,-0.61497 1.764863,-0.0881 3.53241,-0.0835 5.298913,-0.0837 3.622048,5.3e-4 7.244086,0.008 10.866136,0.008 2.14012,5.3e-4 4.28023,-0.002 6.42035,-0.005 1.02118,-0.001 0.46751,-5.3e-4 1.46186,-0.001 0.22582,-1.2e-4 0.90328,-2.6e-4 0.67746,-2.6e-4 -4.28026,-0.002 -1.43867,2.6e-4 -0.54004,10e-4 1.74193,0.004 3.48329,0.0191 5.22418,-0.0483 1.17639,-0.0577 2.35309,-0.10473 3.53065,-0.12899 0.89003,-0.0169 1.78019,-0.003 2.6699,-0.0323 0,0 2.7275,0.41992 2.7275,0.41992 v 0 c -0.88802,0.0473 -1.77705,0.0243 -2.66607,0.0399 -1.19056,0.0186 -2.38049,0.0584 -3.56978,0.11692 -1.74084,0.0708 -3.48173,0.0639 -5.22385,0.0593 -2.32602,0.002 -4.65205,0.002 -6.97807,-5.3e-4 -2.11434,-0.003 -4.22868,-0.006 -6.34302,-0.008 -1.89535,-0.002 -3.790708,-0.004 -5.686064,-0.003 -0.451469,9e-5 -1.805715,-0.0115 -1.35441,7.9e-4 0.479102,0.013 0.958556,0.001 1.437836,0.002 -1.758101,0.003 -3.517009,-5.3e-4 -5.273945,0.0728 -1.879211,0.097 -3.750699,0.27542 -5.606809,0.59324 -1.747629,0.23577 -3.509849,0.31714 -5.273257,0.29929 -1.485921,0.0175 -2.971253,0.0571 -4.456089,0.11737 -3.266517,0.10424 -6.535737,0.0349 -9.803283,0.054 -2.779056,-5.3e-4 -5.55811,10e-6 -8.337164,-0.002 -2.924386,-1.7e-4 -5.848773,10e-4 -8.773161,0.002 -1.967484,10e-4 -3.934984,0.002 -5.902449,0.0114 0,0 2.762205,-0.43749 2.762205,-0.43749 z"
       inkscape:connector-curvature="0" />
    <path
       style="opacity:1;fill:#0000ff;fill-opacity:1;stroke:none;stroke-width:0.2;stroke-miterlimit:4;stroke-dasharray:none;stroke-opacity:0"
       id="path897"
       d="m 127.74188,231.88945 c -0.60305,1.3723 -0.68264,2.89891 -0.79044,4.37347 -0.13414,2.34446 -0.13072,4.69384 -0.13119,7.04126 -0.006,1.87363 0.0475,3.74752 -0.002,5.6207 -0.0497,1.51622 -0.0994,3.03734 -0.28718,4.54369 -0.13925,0.90304 -0.28968,1.80381 -0.36246,2.71512 -0.0415,0.60771 -0.0446,1.21716 -0.0429,1.82601 -0.003,0.56938 0.002,1.13877 0.004,1.70816 -2.3e-4,0.58799 -0.003,1.17599 -0.002,1.76399 0.003,0.52161 0.003,1.04323 0.005,1.56485 -0.0121,0.44873 0.0901,0.88923 0.13857,1.3336 0,0 -2.80501,0.0309 -2.80501,0.0309 v 0 c -0.0508,-0.45407 -0.14549,-0.90585 -0.13531,-1.36447 0.002,-0.5216 0.002,-1.04321 0.005,-1.56481 0.001,-0.58785 -0.002,-1.17571 -0.004,-1.76356 2.7e-4,-0.56973 0.001,-1.13946 -0.002,-1.70918 0.004,-0.61678 0.003,-1.23427 0.0526,-1.84958 0.0859,-0.91634 0.24683,-1.82053 0.40818,-2.72625 0.20089,-1.49593 0.25482,-3.00811 0.31679,-4.51508 0.0426,-1.87115 0.0139,-3.74326 0.0362,-5.61476 0.012,-2.3531 0.0218,-4.70711 0.11902,-7.05855 0.0916,-1.49929 0.1534,-3.03852 0.68,-4.462 0,0 2.79852,0.10653 2.79852,0.10653 z"
       inkscape:connector-curvature="0" />
    <path
       style="opacity:1;fill:#ff0000;fill-opacity:1;stroke:none;stroke-width:0.2;stroke-miterlimit:4;stroke-dasharray:none;stroke-opacity:0"
       id="path901"
       d="m 136.94967,214.33193 c -2.19985,0.96736 -4.27817,2.18493 -6.36148,3.37628 -2.65564,1.49628 -5.21489,3.1593 -7.72315,4.88952 -1.51016,1.04264 -3.07455,2.00781 -4.70529,2.84986 -0.9289,0.49304 -1.88985,0.89921 -2.9003,1.18782 -0.82699,0.16737 -1.62611,0.43403 -2.42349,0.70514 -0.81764,0.33578 -1.54787,0.84916 -2.25748,1.36931 -0.61355,0.49394 -1.20969,1.00874 -1.82319,1.50294 -0.51943,0.42505 -1.05412,0.84586 -1.40257,1.42701 -0.36955,0.81471 -0.44276,1.72535 -0.64616,2.59055 -0.19044,0.75598 -0.41415,1.49919 -0.52908,2.2716 -0.10879,0.80124 -0.24852,1.59202 -0.46955,2.3699 -0.16368,0.77226 -0.40475,1.27339 -0.90232,1.87877 -0.48441,0.53297 -1.07975,0.94318 -1.63571,1.39547 -0.74775,0.66248 -1.53747,1.27402 -2.29711,1.92271 -0.962737,0.85662 -1.882903,1.75676 -2.880908,2.57305 -0.841007,0.72519 -1.716149,1.39708 -2.623691,2.03629 -0.581025,0.40058 -1.120875,0.85598 -1.699254,1.26 -0.44762,0.25165 -0.805011,0.60963 -1.156729,0.97676 -0.463892,0.5117 -0.96641,0.98245 -1.480418,1.4427 -0.669243,0.54803 -1.373659,1.05797 -2.092775,1.53952 -0.647922,0.43393 -1.268492,0.90481 -1.914827,1.34109 -0.530947,0.3957 -1.084344,0.75756 -1.659932,1.08441 -0.619501,0.36384 -1.222639,0.75387 -1.821082,1.15111 -0.625284,0.43071 -1.283729,0.80875 -1.954207,1.16372 -0.510919,0.29067 -1.034264,0.57045 -1.502479,0.92802 -0.348181,0.25696 -0.663908,0.51115 -0.898234,0.87859 -0.226187,0.4785 -0.340799,0.99826 -0.52179,1.49531 -0.227833,0.6552 -0.488016,1.29609 -0.67279,1.96534 -0.146947,0.58347 -0.387784,1.13485 -0.613712,1.69025 -0.194191,0.49954 -0.359556,1.00608 -0.598144,1.48703 -0.468286,0.80035 -1.037222,1.53738 -1.571254,2.29445 -0.789019,1.08495 -1.558819,2.18331 -2.356813,3.26175 -0.749739,0.99951 -1.631694,1.88416 -2.553793,2.72269 -1.540587,1.18519 -3.207745,2.19085 -4.801925,3.30083 -1.841019,1.34018 -3.577405,2.81394 -5.276001,4.32828 -0.830948,0.72836 -1.596115,1.52565 -2.346907,2.33487 0,0 -2.761832,-0.20936 -2.761832,-0.20936 v 0 c 0.780526,-0.81293 1.572223,-1.61711 2.427473,-2.35252 1.711862,-1.51427 3.461996,-2.98505 5.290394,-4.35766 1.567423,-1.11062 3.205443,-2.1188 4.742378,-3.27262 0.913619,-0.82359 1.778333,-1.7012 2.539743,-2.66959 0.797346,-1.07321 1.586545,-2.15235 2.344815,-3.25374 0.512524,-0.75207 1.071628,-1.47494 1.535234,-2.25888 0.246105,-0.4697 0.402206,-0.97079 0.584544,-1.46748 0.236535,-0.54113 0.48293,-1.08061 0.637386,-1.65258 0.183645,-0.67594 0.424339,-1.33036 0.661059,-1.98919 0.189198,-0.512 0.305189,-1.04328 0.514427,-1.54692 0.227645,-0.41141 0.505203,-0.72571 0.90606,-0.97536 0.456181,-0.4029 1.008713,-0.67206 1.528112,-0.98323 0.667808,-0.3478 1.329325,-0.70691 1.948426,-1.13817 0.607036,-0.38736 1.198409,-0.79838 1.816856,-1.1679 0.570704,-0.32737 1.145321,-0.6506 1.662526,-1.06109 0.643223,-0.4477 1.291576,-0.88686 1.927764,-1.34505 0.718519,-0.46491 1.402639,-0.97869 2.080866,-1.4982 0.503518,-0.45833 1.014873,-0.90711 1.462352,-1.42256 0.35696,-0.37958 0.699932,-0.78286 1.160764,-1.0406 0.60638,-0.37635 1.142241,-0.85146 1.734299,-1.24922 0.449501,-0.31069 0.913958,-0.60907 1.344687,-0.94574 0.230322,-0.18003 0.614862,-0.53299 0.837686,-0.71569 0.148471,-0.12174 0.302856,-0.23608 0.454282,-0.35412 1.006216,-0.80374 1.931831,-1.69302 2.879458,-2.56378 0.745945,-0.65554 1.528797,-1.2651 2.262866,-1.93348 0.54398,-0.44782 1.12098,-0.85553 1.62828,-1.34543 0.48808,-0.55631 0.75581,-1.02272 0.90379,-1.7617 0.22843,-0.76327 0.36348,-1.54048 0.46314,-2.3308 0.10895,-0.78444 0.34442,-1.53423 0.54828,-2.29748 0.22064,-0.8868 0.28261,-1.81549 0.62493,-2.6669 0.34166,-0.65356 0.8552,-1.07629 1.42314,-1.5335 0.6177,-0.49108 1.21623,-1.00353 1.81943,-1.51207 0.71412,-0.54747 1.47642,-1.04135 2.27578,-1.45444 0.79613,-0.27744 1.5921,-0.57468 2.4242,-0.72435 1.02359,-0.25789 1.99846,-0.63909 2.93617,-1.12649 1.65577,-0.81907 3.23941,-1.77587 4.77149,-2.80719 2.53649,-1.7213 5.12232,-3.37643 7.77995,-4.90467 2.04263,-1.17665 4.0673,-2.38937 6.18591,-3.42732 0,0 2.76743,0.32413 2.76743,0.32413 z"
       inkscape:connector-curvature="0" />
    <path
       style="opacity:1;fill:#ff0000;fill-opacity:1;stroke:none;stroke-width:0.2;stroke-miterlimit:4;stroke-dasharray:none;stroke-opacity:0"
       id="path903"
       d="m 54.891371,210.6954 c 1.091859,0.97398 2.286024,1.82153 3.477935,2.66643 1.339278,0.91571 2.689503,1.80839 4.092421,2.62337 1.027584,0.58203 1.931601,1.35081 2.803954,2.14062 0.830074,0.80285 1.703292,1.57093 2.416283,2.48287 0.646163,0.76392 0.956511,1.71191 1.311611,2.62816 0.425416,0.98741 0.736709,2.01672 1.168144,3.00163 0.267271,0.57693 0.485854,1.17566 0.648475,1.79018 0.11458,0.45515 0.128085,0.92556 0.140001,1.39221 -0.01524,0.47134 0.09758,0.93069 0.243684,1.37501 0.171297,0.44328 0.431628,0.81397 0.856229,1.03505 -0.110307,0.0801 0.478081,-0.0157 0.358463,-0.018 -0.871154,-0.0166 -3.484309,0.0343 -2.61393,-0.006 2.305545,-0.10677 2.503429,-0.77721 3.152587,0.34083 0.280506,0.49792 0.480637,1.02825 0.640633,1.5753 0.113541,0.54474 0.338701,1.03261 0.599033,1.51836 0.213553,0.32944 0.298833,0.69804 0.339344,1.08234 0.04339,0.39485 0.260659,0.70858 0.581964,0.92968 0.358812,0.18661 0.767556,0.1809 1.161661,0.19156 0.554508,0.01 1.107511,0.1833 1.614355,0.39932 0.800412,0.35983 1.621367,0.65825 2.405899,1.05421 1.112935,0.41162 2.213118,0.85455 3.302976,1.32428 0.89068,0.43256 1.778579,0.87906 2.618819,1.40433 0.836978,0.46478 1.69163,0.89883 2.560098,1.30164 0.763426,0.31844 1.474793,0.73868 2.178431,1.16929 0.691645,0.46932 1.327999,1.01308 1.986288,1.52666 0.633838,0.51288 1.306713,0.97256 1.968921,1.44694 0.694885,0.46871 1.272063,1.08093 1.928656,1.5963 0.60498,0.55681 1.278945,1.0167 1.963301,1.4666 0.782918,0.52959 1.487773,1.16171 2.180933,1.8013 0.57108,0.54753 1.20002,1.03335 1.83176,1.50864 0.74318,0.4422 1.52217,0.81773 2.28094,1.23056 0.70997,0.46527 1.50254,0.76489 2.26624,1.12227 0.44778,0.25196 0.94825,0.40302 1.3917,0.66298 0.20902,0.12254 0.37492,0.26143 0.565,0.40942 0.47208,0.40527 0.80453,0.92373 1.14226,1.43725 0.34473,0.48425 0.44585,1.04757 0.53429,1.62056 0.0865,0.70924 0.21982,1.41139 0.3029,2.12104 0.073,0.58599 0.1121,1.18988 0.30882,1.75023 0.18113,0.33825 0.47216,0.59591 0.77208,0.82737 0.55786,0.33395 1.11585,0.66652 1.66339,1.01895 0.84048,0.61095 1.74566,1.11928 2.63103,1.66017 1.68003,0.95734 3.46182,1.71277 5.20495,2.54478 1.91333,0.83955 3.90001,1.49314 5.82824,2.29709 1.38127,0.56931 2.73802,1.19517 4.07218,1.86701 0.33723,0.14969 0.63251,0.37493 0.95878,0.54392 0.17117,0.0887 0.35409,0.15302 0.52637,0.23951 0.57936,0.29087 1.14176,0.61842 1.7197,0.91317 1.16087,0.60393 2.35314,1.14698 3.49225,1.79175 0.88376,0.49181 1.69963,1.09094 2.55945,1.62032 0.59691,0.34735 1.12277,0.79686 1.6627,1.22378 0.24689,0.19483 0.4831,0.40236 0.71859,0.61061 0,0 -2.78247,0.2373 -2.78247,0.2373 v 0 c -0.23373,-0.20328 -0.46829,-0.40569 -0.71237,-0.59661 -0.53392,-0.42052 -1.06277,-0.84921 -1.64931,-1.19625 -0.83653,-0.54587 -1.65647,-1.11711 -2.52776,-1.60823 -1.14329,-0.63069 -2.32842,-1.18065 -3.48691,-1.78263 -1.07664,-0.55683 -2.15472,-1.10993 -3.21676,-1.69343 -1.3147,-0.66631 -2.65073,-1.28918 -4.01279,-1.85317 -1.92802,-0.79244 -3.90849,-1.45304 -5.80842,-2.31293 -1.76693,-0.83169 -3.57128,-1.59151 -5.26768,-2.56446 -0.90771,-0.53363 -1.81619,-1.06382 -2.68258,-1.66351 -0.55694,-0.3568 -1.14204,-0.66852 -1.68206,-1.04947 -0.32414,-0.27986 -0.62596,-0.57598 -0.77713,-0.98771 -0.17444,-0.58575 -0.23418,-1.19865 -0.29787,-1.80478 -0.0842,-0.70479 -0.20928,-1.40372 -0.30454,-2.10698 -0.0991,-0.53523 -0.20276,-1.05684 -0.53723,-1.50449 -0.32425,-0.48996 -0.65458,-0.97917 -1.12793,-1.34111 -0.59957,-0.42617 -1.27814,-0.69908 -1.93959,-1.01474 -0.77248,-0.34284 -1.53873,-0.69537 -2.25975,-1.14037 -0.77566,-0.40563 -1.5643,-0.79209 -2.29681,-1.27403 -0.629082,-0.48651 -1.260815,-0.97383 -1.826134,-1.53503 -0.686729,-0.6322 -1.392465,-1.24823 -2.178775,-1.75557 -0.692171,-0.45128 -1.346983,-0.9479 -1.968161,-1.49393 -0.638533,-0.53014 -1.234157,-1.11375 -1.925072,-1.57921 -0.669528,-0.47 -1.335854,-0.94491 -1.971349,-1.46074 -0.649147,-0.51619 -1.289111,-1.04879 -1.991373,-1.49274 -0.696736,-0.42317 -1.408692,-0.82003 -2.159336,-1.14117 -0.870379,-0.41448 -1.731611,-0.85068 -2.567588,-1.33121 -0.84069,-0.50152 -1.708579,-0.95998 -2.598886,-1.36703 -1.094084,-0.47008 -2.204829,-0.89619 -3.310551,-1.33679 -0.794695,-0.37572 -1.618404,-0.67877 -2.425327,-1.02668 -0.525071,-0.17658 -1.062726,-0.31603 -1.621121,-0.31017 -0.425773,-0.0321 -0.846735,-0.0848 -1.186143,-0.37018 -0.322458,-0.31408 -0.546018,-0.68915 -0.596466,-1.14434 -0.04108,-0.34992 -0.139329,-0.67409 -0.325308,-0.97715 -0.263003,-0.50264 -0.464201,-1.02043 -0.594929,-1.57428 -0.154545,-0.51585 -0.349263,-1.02201 -0.649173,-1.47285 -0.04089,-0.0371 -0.07308,-0.0871 -0.122685,-0.11142 -0.02819,-0.0138 -0.125389,0.005 -0.09401,0.005 0.882755,-0.006 3.527824,-0.0974 2.648227,-0.0226 -0.648258,0.0551 -2.364523,0.40621 -3.319356,-0.0913 -0.411345,-0.31546 -0.69129,-0.73866 -0.862682,-1.22832 -0.146114,-0.47256 -0.262377,-0.95616 -0.24951,-1.45474 -0.0096,-0.44489 -0.02527,-0.89254 -0.134554,-1.32639 -0.158559,-0.59896 -0.370901,-1.18277 -0.616966,-1.75124 -0.410628,-0.99385 -0.727062,-2.02298 -1.157785,-3.00889 -0.360466,-0.88924 -0.67143,-1.80895 -1.31346,-2.54642 -0.719818,-0.88592 -1.566138,-1.65739 -2.397453,-2.43678 -0.876996,-0.7638 -1.770769,-1.51686 -2.789153,-2.08845 -1.389116,-0.82789 -2.723097,-1.73688 -4.057949,-2.64932 -1.220954,-0.85626 -2.430103,-1.73099 -3.574349,-2.68879 0,0 2.786544,-0.23579 2.786544,-0.23579 z"
       inkscape:connector-curvature="0" />
    <path
       style="opacity:1;fill:#000000;fill-opacity:1;stroke:none;stroke-width:0.2;stroke-miterlimit:4;stroke-dasharray:none;stroke-opacity:0"
       id="path911"
       d="m 9.4219238,248.21156 c 4.1582232,0.0258 8.3165662,0.0282 12.4748552,0.0331 6.421593,0.006 12.843195,0.002 19.26478,-0.008 2.768325,-0.006 1.457145,-0.002 3.933545,-0.009 0,0 -2.561172,0.40565 -2.561172,0.40565 v 0 c -2.39626,-0.007 -1.124434,-0.004 -3.815482,-0.009 -6.387537,-0.0107 -12.775092,-0.0136 -19.162637,-0.008 -4.297656,0.005 -8.595356,0.008 -12.8929512,0.0331 0,0 2.759062,-0.43699 2.759062,-0.43699 z"
       inkscape:connector-curvature="0" />
    <path
       style="opacity:1;fill:#000000;fill-opacity:1;stroke:none;stroke-width:0.2;stroke-miterlimit:4;stroke-dasharray:none;stroke-opacity:0"
       id="path913"
       d="m 43.067768,244.18225 c 1.487895,1.18381 3.1178,2.16453 4.771393,3.09516 1.418249,0.77483 2.950247,1.3126 4.378846,2.06381 0.691984,0.39249 0.8704,0.78887 0.9745,1.54355 0.0822,0.82057 -0.179879,1.18867 -0.807101,1.67804 -0.924017,0.63233 -2.028279,0.91219 -3.112894,1.12331 -1.574575,0.23096 -3.170372,0.23344 -4.75824,0.25165 -1.528141,0.0127 -3.05639,0.007 -4.584549,0.008 0,0 2.727359,-0.43163 2.727359,-0.43163 v 0 c -4.498422,0.004 -1.783276,0.003 -0.831249,8e-4 1.577573,-0.0119 3.160969,-0.014 4.729004,-0.20886 1.059481,-0.17942 2.138793,-0.43076 3.06212,-1.00314 0.56379,-0.38749 0.874983,-0.64374 0.775576,-1.37855 -0.09476,-0.65498 -0.323194,-0.96512 -0.920395,-1.28284 -1.411335,-0.73691 -2.906131,-1.3051 -4.298543,-2.08151 -1.677556,-0.95823 -3.324884,-1.96946 -4.876816,-3.12314 0,0 2.770989,-0.25429 2.770989,-0.25429 z"
       inkscape:connector-curvature="0" />
    <text
       xml:space="preserve"
       style="font-style:normal;font-weight:normal;font-size:10.58333302px;line-height:1.25;font-family:sans-serif;letter-spacing:0px;word-spacing:0px;fill:#000000;fill-opacity:1;stroke:none;stroke-width:0.26458332"
       x="9.8273811"
       y="245.40625"
       id="text917"><tspan
         sodipodi:role="line"
         id="tspan915"
         x="9.8273811"
         y="245.40625"
         style="stroke-width:0.26458332">atoms</tspan></text>
    <flowRoot
       xml:space="preserve"
       id="flowRoot919"
       style="font-style:normal;font-weight:normal;font-size:40px;line-height:1.25;font-family:sans-serif;letter-spacing:0px;word-spacing:0px;fill:#000000;fill-opacity:1;stroke:none"
       transform="matrix(0.26458333,0,0,0.26458333,0,197)"><flowRegion
         id="flowRegion921"><rect
           id="rect923"
           width="125"
           height="40.714287"
           x="157.85715"
           y="12.952759" /></flowRegion><flowPara
         id="flowPara925">MOT</flowPara></flowRoot>    <text
       xml:space="preserve"
       style="font-style:normal;font-weight:normal;font-size:10.58333302px;line-height:1.25;font-family:sans-serif;letter-spacing:0px;word-spacing:0px;fill:#000000;fill-opacity:1;stroke:none;stroke-width:0.26458332"
       x="64.822914"
       y="218.00298"
       id="text929"><tspan
         sodipodi:role="line"
         id="tspan927"
         x="64.822914"
         y="218.00298"
         style="stroke-width:0.26458332">MOT beams</tspan></text>
    <ellipse
       style="opacity:1;fill:#ffaaaa;fill-opacity:1;stroke:none;stroke-width:0.2;stroke-miterlimit:4;stroke-dasharray:none;stroke-opacity:0"
       id="path931"
       cx="95.256927"
       cy="249.19022"
       rx="9.8343105"
       ry="5.4848561" />
  </g>
</svg>
