<?xml version="1.0" encoding="UTF-8" standalone="no"?>
<!-- Created with Inkscape (http://www.inkscape.org/) -->

<svg
   xmlns:dc="http://purl.org/dc/elements/1.1/"
   xmlns:cc="http://creativecommons.org/ns#"
   xmlns:rdf="http://www.w3.org/1999/02/22-rdf-syntax-ns#"
   xmlns:svg="http://www.w3.org/2000/svg"
   xmlns="http://www.w3.org/2000/svg"
   xmlns:sodipodi="http://sodipodi.sourceforge.net/DTD/sodipodi-0.dtd"
   xmlns:inkscape="http://www.inkscape.org/namespaces/inkscape"
   width="94.561676mm"
   height="56.469963mm"
   viewBox="0 0 94.561673 56.469964"
   version="1.1"
   id="svg8"
   inkscape:version="0.92.5 (2060ec1f9f, 2020-04-08)"
   sodipodi:docname="gray_molasses_polarization_gradient.svg">
  <defs
     id="defs2" />
  <sodipodi:namedview
     id="base"
     pagecolor="#ffffff"
     bordercolor="#666666"
     borderopacity="1.0"
     inkscape:pageopacity="0.0"
     inkscape:pageshadow="2"
     inkscape:zoom="1.4"
     inkscape:cx="-14.809124"
     inkscape:cy="35.916922"
     inkscape:document-units="mm"
     inkscape:current-layer="layer1"
     showgrid="false"
     inkscape:pagecheckerboard="false"
     inkscape:window-width="1920"
     inkscape:window-height="1051"
     inkscape:window-x="1920"
     inkscape:window-y="0"
     inkscape:window-maximized="1"
     fit-margin-top="0"
     fit-margin-left="0"
     fit-margin-right="0"
     fit-margin-bottom="0" />
  <metadata
     id="metadata5">
    <rdf:RDF>
      <cc:Work
         rdf:about="">
        <dc:format>image/svg+xml</dc:format>
        <dc:type
           rdf:resource="http://purl.org/dc/dcmitype/StillImage" />
        <dc:title></dc:title>
      </cc:Work>
    </rdf:RDF>
  </metadata>
  <g
     inkscape:label="Layer 1"
     inkscape:groupmode="layer"
     id="layer1"
     transform="translate(-52.734111,-199.93014)">
    <path
       style="opacity:1;fill:#000000;fill-opacity:1;stroke:none;stroke-width:0.12884893;stroke-miterlimit:4;stroke-dasharray:none;stroke-opacity:0"
       id="path2029"
       d="m 60.879278,251.24612 c 0.37973,0.0765 0.642415,0.13384 1.05307,0.18701 2.415249,0.31279 4.855862,0.41049 7.285844,0.52769 6.666873,0.24817 13.339612,0.26541 20.010224,0.29024 5.189391,0.0564 10.380895,-0.0693 15.569614,0.0614 0.82722,0.0208 1.6534,0.0722 2.48011,0.10826 3.0642,0.10991 6.11047,0.45298 9.1619,0.7281 2.07033,0.18665 2.31779,0.19462 4.36568,0.34005 3.73302,0.23571 7.46846,0.41257 11.20765,0.50776 2.34397,0.0519 4.68855,0.0633 7.03301,0.0614 0.20395,-5.1e-4 0.4079,-0.001 0.61185,-0.002 0,0 -1.72025,0.27245 -1.72025,0.27245 v 0 c -0.19682,-6.5e-4 -0.39363,-0.001 -0.59044,-0.002 -2.30303,-0.01 -4.60612,-0.0295 -6.90857,-0.0851 -3.71723,-0.10201 -7.43076,-0.28513 -11.14169,-0.52506 -1.99886,-0.14657 -2.32811,-0.16219 -4.35102,-0.34589 -3.04049,-0.2761 -6.07656,-0.61067 -9.12957,-0.72516 -0.8183,-0.0363 -1.63664,-0.0717 -2.45489,-0.10887 -0.40882,-0.0186 -0.81711,-0.0538 -1.22632,-0.0584 -1.41775,-0.0159 -2.835688,-0.002 -4.253532,-0.003 -3.322197,-0.003 -6.644397,-0.008 -9.966584,-0.0168 -6.718385,-0.026 -13.438545,-0.0454 -20.153763,-0.27394 -2.893171,-0.13005 -5.793523,-0.25064 -8.663884,-0.65629 0,0 1.781561,-0.28217 1.781561,-0.28217 z"
       inkscape:connector-curvature="0" />
    <path
       style="opacity:1;fill:#000000;fill-opacity:1;stroke:none;stroke-width:0.12884893;stroke-miterlimit:4;stroke-dasharray:none;stroke-opacity:0"
       id="path2031"
       d="m 139.02352,250.77731 c 0.76752,0.56048 1.55144,1.09799 2.30999,1.67163 0.51414,0.42605 1.11108,0.82188 1.47788,1.39666 0.0559,0.0875 0.0943,0.18497 0.14145,0.27745 0.13847,0.38408 0.16879,0.82845 -0.0974,1.16974 -0.0495,0.0636 -0.11357,0.11441 -0.17036,0.1716 -0.6127,0.41394 -1.37596,0.50094 -2.08392,0.65732 -0.54487,0.12664 -1.09609,0.21777 -1.65382,0.25909 -0.23707,0.0139 -0.47456,0.0162 -0.71194,0.0193 0,0 -1.77179,-0.27897 -1.77179,-0.27897 v 0 c 0.23639,-10e-4 0.47283,-0.002 0.70911,-0.0103 0.56479,-0.0275 1.1246,-0.10301 1.67654,-0.22814 0.54238,-0.11704 0.27014,-0.0561 0.8167,-0.18292 0.42105,-0.091 0.85496,-0.161 1.23074,-0.3866 0.0549,-0.0422 0.11523,-0.078 0.16458,-0.12656 0.26881,-0.26425 0.23143,-0.65406 0.10903,-0.97657 -0.0454,-0.082 -0.0838,-0.16824 -0.13623,-0.24591 -0.37083,-0.54926 -0.94117,-0.93636 -1.44122,-1.35396 -0.76877,-0.58021 -1.56265,-1.12304 -2.36481,-1.65587 0,0 1.79544,-0.17702 1.79544,-0.17702 z"
       inkscape:connector-curvature="0" />
    <path
       style="opacity:1;fill:#000000;fill-opacity:1;stroke:none;stroke-width:0.12884893;stroke-miterlimit:4;stroke-dasharray:none;stroke-opacity:0"
       id="path2033"
       d="m 145.48621,246.26368 c -0.49635,0.88831 -1.12591,1.69052 -1.74068,2.498 -0.26606,0.36041 -0.52451,0.7262 -0.78895,1.08779 0,0 -1.7663,-0.11307 -1.7663,-0.11307 v 0 c 0.27283,-0.36109 0.54133,-0.72532 0.8101,-1.08945 0.6137,-0.78709 1.23762,-1.57881 1.69197,-2.47195 0,0 1.79386,0.0887 1.79386,0.0887 z"
       inkscape:connector-curvature="0" />
    <path
       style="opacity:1;fill:#000000;fill-opacity:1;stroke:none;stroke-width:0.12884893;stroke-miterlimit:4;stroke-dasharray:none;stroke-opacity:0"
       id="path2035"
       d="m 142.81125,246.04562 c 0.91439,0.74186 1.8701,1.42938 2.84332,2.09145 0.53522,0.37567 1.08957,0.72261 1.64122,1.07327 0,0 -1.73819,0.17383 -1.73819,0.17383 v 0 c -0.54017,-0.35545 -1.08244,-0.708 -1.61104,-1.08065 -0.98839,-0.67799 -1.96201,-1.37634 -2.9283,-2.08523 0,0 1.79299,-0.17267 1.79299,-0.17267 z"
       inkscape:connector-curvature="0" />
    <path
       style="opacity:1;fill:#000000;fill-opacity:1;stroke:none;stroke-width:0.12884893;stroke-miterlimit:4;stroke-dasharray:none;stroke-opacity:0"
       id="path2039"
       d="m 58.6583,201.65716 c -0.07047,2.09906 -0.08326,4.19988 -0.104162,6.29992 -0.0418,3.97307 -0.02825,7.94639 -0.0162,11.91957 0.008,3.69308 9.54e-4,7.38617 0.005,11.07926 0.003,3.01232 0.01878,6.02459 0.04587,9.03679 0.01,1.45369 0.05754,2.9071 0.01289,4.36047 0.01912,0.7042 -0.118248,1.39264 -0.213172,2.0862 -0.07245,0.58783 -0.09122,1.18034 -0.09838,1.77201 -0.0043,0.4782 -0.0021,0.95643 -0.0019,1.43466 0.0031,0.38066 0.0045,0.76132 0.0065,1.14199 -0.0025,0.23823 -0.0012,0.47648 -1.38e-4,0.71471 0,0 -1.802624,2e-5 -1.802624,2e-5 v 0 c 9.86e-4,-0.23821 0.0023,-0.47643 -4.26e-4,-0.71462 0.0015,-0.38062 0.002,-0.76122 0.0037,-1.14184 -0.0012,-0.47943 -0.0021,-0.95882 0.0058,-1.43821 0.01476,-0.59841 0.03273,-1.19761 0.106296,-1.79231 0.08935,-0.6894 0.239412,-1.37065 0.238608,-2.06965 0.07187,-1.45008 0.05913,-2.90202 0.08223,-4.35343 0.02709,-3.0122 0.0429,-6.02447 0.04587,-9.03679 0.004,-3.69309 -0.0031,-7.38618 0.005,-11.07926 0.01204,-3.97318 0.02559,-7.9465 -0.0162,-11.91957 -0.0209,-2.10004 -0.03369,-4.20086 -0.104163,-6.29992 0,0 1.799668,0 1.799668,0 z"
       inkscape:connector-curvature="0" />
    <path
       style="opacity:1;fill:#000000;fill-opacity:1;stroke:none;stroke-width:0.12884893;stroke-miterlimit:4;stroke-dasharray:none;stroke-opacity:0"
       id="path2041"
       d="m 57.931638,202.60001 c -0.758685,0.37483 -1.30181,0.97317 -1.822365,1.62278 -0.669459,0.81101 -1.138379,1.75199 -1.603845,2.68749 0,0 -1.771317,-0.0849 -1.771317,-0.0849 v 0 c 0.503457,-0.92949 0.962573,-1.89228 1.632442,-2.71847 0.520948,-0.68121 1.022013,-1.26418 1.768173,-1.70662 0,0 1.796912,0.19976 1.796912,0.19976 z"
       inkscape:connector-curvature="0" />
    <path
       style="opacity:1;fill:#000000;fill-opacity:1;stroke:none;stroke-width:0.12884893;stroke-miterlimit:4;stroke-dasharray:none;stroke-opacity:0"
       id="path2043"
       d="m 57.921687,201.73651 c 0.828875,0.88433 1.787129,1.6353 2.733971,2.38752 0.734437,0.56184 0.370561,0.29435 1.090244,0.80437 0,0 -1.727894,0.164 -1.727894,0.164 v 0 c -0.708274,-0.51905 -0.349371,-0.24813 -1.075557,-0.81431 -0.960264,-0.77113 -1.923216,-1.54137 -2.818746,-2.38802 0,0 1.797982,-0.15356 1.797982,-0.15356 z"
       inkscape:connector-curvature="0" />
    <path
       style="opacity:1;fill:#000000;fill-opacity:1;stroke:none;stroke-width:0.12884893;stroke-miterlimit:4;stroke-dasharray:none;stroke-opacity:0"
       id="path2045"
       d="m 63.671941,200.46474 c -0.413299,-0.0845 -0.831948,-0.16887 -1.255222,-0.15453 3.652716,0.0975 1.573286,-0.29612 1.259813,0.2103 -0.06499,0.105 -0.07626,0.20669 -0.10337,0.32558 -0.07245,0.55339 -0.0608,1.11418 -0.06241,1.67122 0.0051,0.57848 0.0071,1.15696 0.0116,1.73544 0.03715,0.36849 -0.05078,0.75772 0.03818,1.11909 0.0185,0.0297 0.02746,0.0682 0.05551,0.0891 0.128909,0.096 0.853951,0.12081 1.027126,0.12813 -2.834904,-0.012 -1.608875,0.0316 -0.984581,-0.0502 0.204663,-0.0268 0.407264,-0.0646 0.608447,-0.1101 0,0 1.78578,0.23569 1.78578,0.23569 v 0 c -1.019455,0.30708 -2.146188,0.18075 -3.178148,0.19441 -0.328727,-0.0234 -0.854968,-0.004 -1.065518,-0.31571 -0.02712,-0.0401 -0.03603,-0.09 -0.05405,-0.13497 -0.06514,-0.37984 -0.0056,-0.77117 -0.02256,-1.15499 0.0015,-0.57854 -0.0019,-1.15708 -0.0014,-1.73563 -0.0033,-0.56925 -0.01731,-1.14104 0.04441,-1.70791 0.02603,-0.14011 0.04122,-0.26908 0.0989,-0.40096 0.34276,-0.7836 2.027765,-0.3661 2.319177,-0.37792 0.428138,0.024 0.850262,0.10063 1.269175,0.19031 0,0 -1.790921,0.24364 -1.790921,0.24364 z"
       inkscape:connector-curvature="0" />
    <path
       style="opacity:1;fill:#000000;fill-opacity:1;stroke:none;stroke-width:0.12884893;stroke-miterlimit:4;stroke-dasharray:none;stroke-opacity:0"
       id="path2047"
       d="m 62.489956,201.80795 c 0.0894,-0.004 0.17873,-0.0115 0.268214,-0.0113 0.702068,0.002 1.404269,2.6e-4 2.106141,0.0169 0.129235,0.003 0.257056,0.0277 0.385517,0.0421 0.371179,0.0417 0.742111,0.0842 1.113655,0.12266 0.09909,0.009 0.198188,0.0185 0.297281,0.0277 0,0 -1.765382,0.26192 -1.765382,0.26192 v 0 c -0.09704,-0.01 -0.19409,-0.02 -0.291135,-0.0301 -0.368751,-0.0405 -0.737291,-0.0867 -1.106614,-0.12167 -0.13002,-0.0123 -0.520996,-0.0263 -0.390512,-0.0318 0.315301,-0.0133 2.102045,-0.011 1.169046,-0.0117 0,0 -1.786211,-0.26469 -1.786211,-0.26469 z"
       inkscape:connector-curvature="0" />
    <path
       style="opacity:1;fill:#000000;fill-opacity:1;stroke:none;stroke-width:0.12884893;stroke-miterlimit:4;stroke-dasharray:none;stroke-opacity:0"
       id="path2049"
       d="m 62.096823,240.40997 c 1.060607,-0.0209 2.105871,0.16515 3.152929,0.30588 1.499766,0.20945 3.0054,0.36901 4.516404,0.46764 1.119188,0.0671 2.240437,0.0802 3.361293,0.0855 0.513229,0.003 2.363683,4e-5 -0.105438,0.001 -0.213784,1.2e-4 0.427567,0 0.64135,-5e-5 1.478335,-3.4e-4 -0.154007,-1.7e-4 1.406345,-1.7e-4 1.621238,-1.7e-4 3.242474,-1e-4 4.86371,-5.1e-4 2.3576,0.002 4.715201,-3.4e-4 7.072801,0.001 2.169544,0.002 4.33909,0.002 6.508635,0.001 1.249885,0.0305 2.502752,-0.0399 3.752403,-0.003 0.437304,0.013 1.007476,0.0705 1.44675,0.11005 1.373045,0.19753 2.755945,0.28435 4.141025,0.33403 1.71673,0.0458 3.43425,0.0449 5.15146,0.0462 0.27512,-1e-5 1.10047,0.003 0.82536,-4e-5 -0.29768,-0.003 -0.5954,0.003 -0.89308,-6.4e-4 -0.25822,-0.003 0.51649,-5.1e-4 0.77473,-6.5e-4 0.79839,-5.1e-4 1.59678,-6.4e-4 2.39517,-10e-4 1.83886,1.8e-4 3.67772,10e-4 5.51658,6.5e-4 2.00864,-0.002 4.01729,-6.5e-4 6.02593,-0.005 0.54293,-0.001 0.28305,-6.5e-4 0.77962,-0.002 0,0 -1.75513,0.27799 -1.75513,0.27799 v 0 c -0.4828,-0.001 -0.23041,-5.2e-4 -0.75718,-0.002 -0.48134,-0.001 -2.36937,0.0147 -0.0817,-0.003 0.26073,-0.002 -0.52147,-5.2e-4 -0.78221,-6.5e-4 -0.73207,-6.4e-4 -1.01502,-6.4e-4 -1.75627,-0.001 -1.8324,-5.1e-4 -3.66479,6.5e-4 -5.49718,0.003 -2.16113,0.001 -4.32225,0.004 -6.48338,0.002 -1.71949,-0.003 -3.43928,-0.005 -5.15827,-0.0513 -1.39028,-0.0525 -2.776892,-0.15042 -4.155939,-0.34063 -0.527416,-0.0453 -0.891669,-0.0841 -1.426198,-0.0979 -1.238285,-0.0321 -2.478787,0.022 -3.717233,-0.003 -2.174469,-5.1e-4 -4.348939,-6.4e-4 -6.523407,0.001 -0.32362,3.4e-4 -0.647243,-6.5e-4 -0.97086,6.4e-4 -0.261255,0.001 1.045033,1.7e-4 0.783774,5e-5 -1.175417,-5.1e-4 -2.350833,3.5e-4 -3.526249,6.5e-4 -1.616949,-1.4e-4 -3.233898,3.4e-4 -4.850846,0.003 -1.79349,0.003 -3.586989,0.007 -5.380478,0.003 -1.111371,-0.007 -2.223013,-0.0277 -3.332314,-0.101 -1.510618,-0.10702 -3.015706,-0.27268 -4.516031,-0.47901 -1.071343,-0.14235 -2.143795,-0.30818 -3.228416,-0.27074 0,0 1.78156,-0.28217 1.78156,-0.28217 z"
       inkscape:connector-curvature="0" />
    <path
       style="opacity:1;fill:#000000;fill-opacity:1;stroke:none;stroke-width:0.12884893;stroke-miterlimit:4;stroke-dasharray:none;stroke-opacity:0"
       id="path2051"
       d="m 129.76604,238.99213 c -0.0184,0.71521 -0.0299,1.43136 -0.003,2.14641 0.008,0.34756 0.0552,0.69208 0.0981,1.03646 0,0 -1.78043,0.021 -1.78043,0.021 v 0 c -0.0394,-0.34934 -0.0826,-0.69888 -0.0888,-1.0509 -0.0262,-0.71741 -0.005,-1.43549 -0.032,-2.15299 0,0 1.80582,0 1.80582,0 z"
       inkscape:connector-curvature="0" />
    <path
       style="opacity:1;fill:#000000;fill-opacity:1;stroke:none;stroke-width:0.12884893;stroke-miterlimit:4;stroke-dasharray:none;stroke-opacity:0"
       id="path2053"
       d="m 127.38404,238.32851 c 0.50328,-0.10526 1.01388,-0.16096 1.52609,-0.19769 0.53654,-0.0327 1.07435,-0.0326 1.61167,-0.0343 1.11365,-0.0468 2.18818,-0.15928 3.13625,0.44604 0.32483,0.20491 0.34114,0.52029 0.36349,0.87201 0.0347,0.57556 -0.15218,1.12617 -0.38858,1.64165 -0.24631,0.51369 -0.65706,0.883 -1.09663,1.22708 -0.33243,0.26217 -0.67501,0.51041 -1.04597,0.71503 -0.32347,0.15076 -0.65455,0.28651 -0.99756,0.38583 -0.35718,0.0857 -0.72557,0.0985 -1.0911,0.10784 -0.86809,-0.003 -1.74685,0.0928 -2.60741,-0.0201 0,0 1.78236,-0.26628 1.78236,-0.26628 v 0 c 0.0566,0.003 0.11306,0.006 0.16966,0.007 1.00748,0.0225 -2.23996,0.001 -1.28538,5.1e-4 0.0533,-3e-5 0.10673,-3.4e-4 0.16009,-5.1e-4 0.36238,-0.004 0.72603,-0.01 1.0849,-0.0658 0.34558,-0.0791 0.66733,-0.21338 0.99534,-0.34554 0.37838,-0.18258 0.71991,-0.42506 1.05111,-0.68245 0.4285,-0.32268 0.84891,-0.6512 1.09707,-1.14211 0.23624,-0.4832 0.41896,-1.00209 0.37323,-1.54877 -0.0303,-0.32542 -0.0485,-0.52999 -0.35502,-0.69923 -0.25497,-0.13649 -0.52738,-0.24766 -0.81215,-0.30576 -0.53974,-0.11012 -1.57139,-0.0291 1.23172,-0.0478 -0.53595,5.1e-4 -1.0722,-3.4e-4 -1.60772,0.0237 -0.50536,0.0289 -1.01109,0.0698 -1.50705,0.17627 0,0 -1.78841,-0.24718 -1.78841,-0.24718 z"
       inkscape:connector-curvature="0" />
    <path
       style="opacity:1;fill:#000000;fill-opacity:1;stroke:none;stroke-width:0.12884893;stroke-miterlimit:4;stroke-dasharray:none;stroke-opacity:0"
       id="path2055"
       d="m 128.0187,236.80386 c -0.26683,0.91991 -0.27787,1.89676 -0.3186,2.84748 -0.0108,1.1342 -0.0827,2.27415 0.003,3.40668 0.068,0.57169 0.18589,1.13847 0.30541,1.70174 0.0544,0.18461 0.0502,0.41642 0.16153,0.58292 0.022,0.0328 0.0618,0.0493 0.0927,0.074 0,0 -1.80205,0.12822 -1.80205,0.12822 v 0 c -0.14776,-0.22727 -0.20306,-0.48242 -0.2453,-0.74904 -0.11182,-0.57165 -0.22893,-1.14537 -0.27741,-1.72632 -0.063,-1.13994 0.0262,-2.28386 0.0312,-3.42461 0.0307,-0.97004 0.0406,-1.95291 0.24237,-2.90591 0,0 1.80763,0.0649 1.80763,0.0649 z"
       inkscape:connector-curvature="0" />
    <path
       style="opacity:1;fill:#000000;fill-opacity:1;stroke:none;stroke-width:0.12884893;stroke-miterlimit:4;stroke-dasharray:none;stroke-opacity:0"
       id="path2057"
       d="m 135.22125,237.35435 c 0.42914,0.63468 0.98424,1.1748 1.5292,1.70955 0.50821,0.4724 1.0325,0.94016 1.40118,1.5339 0.18604,0.35691 0.27305,0.70197 -0.0544,1.00796 -0.0671,0.0626 -0.14726,0.1095 -0.22088,0.16426 -0.54628,0.31448 -1.16074,0.47521 -1.73806,0.72145 0,0 -1.77586,-0.20661 -1.77586,-0.20661 v 0 c 0.56844,-0.25501 1.17266,-0.41527 1.73296,-0.68788 0.0541,-0.034 0.30539,-0.1832 0.36263,-0.24804 0.16249,-0.18405 -0.009,-0.47835 -0.0945,-0.64983 -0.37169,-0.57094 -0.87875,-1.02851 -1.36926,-1.49552 -0.55611,-0.54816 -1.1141,-1.10353 -1.57091,-1.7393 0,0 1.79794,-0.10994 1.79794,-0.10994 z"
       inkscape:connector-curvature="0" />
    <path
       style="opacity:1;fill:#000000;fill-opacity:1;stroke:none;stroke-width:0.12884893;stroke-miterlimit:4;stroke-dasharray:none;stroke-opacity:0"
       id="path2067"
       d="m 62.41328,232.6681 c 0.330484,0.33969 0.66979,0.66905 0.981241,1.02651 0.259152,0.29834 0.436841,0.65876 0.639349,0.99698 0.233632,0.35549 0.448367,0.72611 0.719916,1.05442 0.35519,0.42412 0.805616,0.74659 1.289786,1.00692 0.432682,0.25537 0.908662,0.39741 1.392849,0.51478 0.399903,0.0778 0.807111,0.0918 1.213147,0.0996 0.212189,0.002 0.207899,0.002 0.41979,0.003 0.06617,7e-5 0.264669,1.8e-4 0.198503,-1.6e-4 -2.708577,-0.0166 -1.838838,0.075 -1.183623,-0.0809 0.373201,-0.11344 0.688418,-0.34874 0.994761,-0.58205 0.336018,-0.27453 0.657259,-0.56825 0.95438,-0.88455 0.292363,-0.3337 0.579904,-0.67155 0.868286,-1.00871 0.329669,-0.39644 0.698684,-0.75564 1.058365,-1.12394 0.35284,-0.33456 0.652835,-0.71516 0.954899,-1.09444 0.317098,-0.40234 0.671083,-0.773 1.008529,-1.15798 0.405945,-0.45403 0.796976,-0.92109 1.185564,-1.38997 0.322343,-0.40735 0.577603,-0.86018 0.854439,-1.29803 0.245345,-0.37322 0.488068,-0.74858 0.741218,-1.11657 0.246981,-0.38191 0.518585,-0.74705 0.794648,-1.10825 0.268451,-0.33355 0.480586,-0.70278 0.683933,-1.07795 0.260516,-0.44758 0.499685,-0.90692 0.749278,-1.36058 0.27445,-0.49371 0.566215,-0.97777 0.833246,-1.47554 0.233087,-0.47108 0.506962,-0.91837 0.781199,-1.36603 0.249061,-0.42783 0.565733,-0.8092 0.860312,-1.20524 0.287168,-0.40154 0.506905,-0.84527 0.763329,-1.26618 0.257498,-0.45849 0.509128,-0.92004 0.768818,-1.37753 0.269492,-0.46968 0.585487,-0.90756 0.933247,-1.32161 0.278972,-0.3599 0.662837,-0.59305 1.059871,-0.8009 0.455091,-0.19353 0.916239,-0.37169 1.372806,-0.56249 0.390819,-0.17099 0.805875,-0.27517 1.219964,-0.3722 0.333392,-0.0839 0.66899,-0.15468 0.994958,-0.26483 0.906324,-0.32121 1.837846,-0.16728 2.801554,-0.15769 0.512934,0.12215 0.932183,0.4487 1.322015,0.78775 0.552343,0.44862 0.978618,1.02411 1.435923,1.5639 0.450073,0.48412 0.776429,1.05259 1.117265,1.61356 0.332859,0.5363 0.648219,1.08279 0.969329,1.62612 0.25097,0.45319 0.492106,0.91132 0.736582,1.36799 0.237216,0.46209 0.503593,0.90805 0.765714,1.3563 0.339407,0.48315 0.638924,0.99128 0.950698,1.49203 0.28245,0.48542 0.566883,0.97082 0.836034,1.46399 0.253247,0.53711 0.52737,1.06376 0.802808,1.58968 0.29919,0.52568 0.57992,1.06306 0.89819,1.5777 0.30139,0.45632 0.61315,0.90437 0.95556,1.33091 0.32844,0.35022 0.57499,0.76209 0.84765,1.1542 0.30682,0.39544 0.63513,0.77459 0.96216,1.15362 0.3609,0.38274 0.68805,0.79805 1.06959,1.16029 0.43434,0.38589 0.86061,0.78127 1.30196,1.15915 0.38228,0.29353 0.6949,0.66524 1.08526,0.94759 0.3518,0.25456 0.68145,0.52375 1.08313,0.69535 0.34746,0.141 0.71673,0.17778 1.08731,0.19424 0.0604,0.001 0.12083,0.003 0.18125,0.003 0.0617,6.4e-4 0.12337,0.001 0.18506,0.001 0.0643,1.6e-4 0.25719,9e-5 0.19289,8e-5 -0.52422,-1.1e-4 -1.04843,-6e-5 -1.57265,-3.4e-4 -0.0662,-4e-5 0.13234,-3.4e-4 0.19851,-5.1e-4 0.0673,-1.7e-4 0.13468,-5.1e-4 0.20202,-6.4e-4 0.38293,-0.002 0.76586,-0.003 1.14879,-0.003 0.36676,0.0111 0.7269,0.004 1.08655,-0.0709 0.34303,-0.0854 0.67601,-0.20665 1.00455,-0.33605 0.36588,-0.15143 0.68869,-0.38233 0.98385,-0.64279 0.33187,-0.31032 0.6246,-0.66087 0.89227,-1.02727 0.26374,-0.37735 0.49465,-0.77834 0.69686,-1.19181 0.18368,-0.44695 0.35809,-0.8962 0.55791,-1.3365 0.13957,-0.30673 0.25406,-0.62071 0.31458,-0.95242 0.0545,-0.39296 0.17518,-0.76535 0.31214,-1.13566 0.13175,-0.39493 0.22492,-0.80212 0.31842,-1.20756 0.074,-0.49646 0.17441,-0.98753 0.27017,-1.4802 0.0777,-0.51569 0.20246,-1.02264 0.31614,-1.53119 0.1212,-0.5297 0.30126,-1.04322 0.45961,-1.56245 0.11443,-0.4301 0.18401,-0.86992 0.31205,-1.29653 0.12791,-0.37787 0.29993,-0.73813 0.43583,-1.11285 0.17062,-0.39731 0.35067,-0.78988 0.51607,-1.18939 0.22732,-0.44176 0.42741,-0.89434 0.61479,-1.3541 0.14064,-0.40274 0.35468,-0.77229 0.57093,-1.1379 0.17605,-0.31136 0.37868,-0.6077 0.58466,-0.89997 0.21787,-0.32509 0.50514,-0.57482 0.83468,-0.77972 0.46556,-0.22609 0.97907,-0.34114 1.47383,-0.49003 0.51766,-0.17489 1.05266,-0.29267 1.56601,-0.47979 0,0 1.78033,0.21513 1.78033,0.21513 v 0 c -0.51206,0.20826 -1.05458,0.31402 -1.57743,0.49152 -0.48511,0.14912 -0.97617,0.28102 -1.45365,0.44966 -0.32454,0.18022 -0.61476,0.39222 -0.82498,0.70545 -0.20912,0.28534 -0.40973,0.57918 -0.58637,0.8856 -0.21966,0.35507 -0.43588,0.71502 -0.57555,1.11062 -0.19322,0.45698 -0.38183,0.91492 -0.61342,1.35455 -0.16664,0.39524 -0.33367,0.78985 -0.51218,1.18009 -0.13184,0.37447 -0.30178,0.7323 -0.43793,1.10516 -0.13623,0.42458 -0.20074,0.86642 -0.31733,1.2963 -0.16162,0.51374 -0.34059,1.02329 -0.46173,1.54855 -0.11644,0.50594 -0.23458,1.01231 -0.31249,1.52594 -0.0975,0.4942 -0.20371,0.98562 -0.26848,1.48553 -0.092,0.4132 -0.18394,0.82842 -0.31576,1.23089 -0.13187,0.3608 -0.2604,0.71837 -0.30467,1.10332 -0.0575,0.34849 -0.1758,0.6782 -0.323,0.999 -0.20534,0.43925 -0.39258,0.88441 -0.563,1.33853 -0.19728,0.42568 -0.43375,0.835 -0.69638,1.2233 -0.26511,0.38065 -0.56524,0.73799 -0.89493,1.06445 -0.29449,0.28193 -0.61643,0.52542 -0.98166,0.71056 -0.33475,0.12776 -0.66748,0.2603 -1.01137,0.3629 -0.12144,0.0284 -0.24105,0.0652 -0.36374,0.0876 -0.24053,0.0438 -0.48602,0.0122 -0.72861,0.0218 -0.38349,3.5e-4 -0.76698,0.001 -1.15047,0.003 -0.98191,0.005 -1.96456,0.0256 -2.94581,-0.013 -0.37511,-0.0322 -0.74463,-0.0983 -1.08764,-0.26197 -0.39262,-0.2002 -0.73312,-0.4742 -1.08753,-0.73416 -0.37302,-0.30444 -0.70296,-0.65747 -1.07961,-0.95826 -0.43932,-0.38293 -0.86585,-0.78063 -1.2993,-1.17017 -0.37555,-0.37573 -0.72115,-0.78107 -1.07647,-1.17586 -0.32826,-0.38606 -0.66583,-0.76581 -0.96837,-1.17245 -0.26525,-0.392 -0.52195,-0.79051 -0.84077,-1.14269 -0.338083,-0.43633 -0.657073,-0.88721 -0.953667,-1.35282 -0.311567,-0.52178 -0.598338,-1.05839 -0.894576,-1.58884 -0.277769,-0.52472 -0.546306,-1.05416 -0.808398,-1.58688 -0.266982,-0.49095 -0.55187,-0.97264 -0.834737,-1.45448 -0.308078,-0.50486 -0.615869,-1.00918 -0.952047,-1.49616 -0.263319,-0.4507 -0.53234,-0.89849 -0.769873,-1.36354 -0.238974,-0.45553 -0.483811,-0.90779 -0.727506,-1.36079 -0.316348,-0.54435 -0.638156,-1.08541 -0.965813,-1.62303 -0.339164,-0.55194 -0.669919,-1.10753 -1.111761,-1.58672 -0.452026,-0.5374 -0.883013,-1.10058 -1.443003,-1.53299 -0.389179,-0.3169 -0.808318,-0.61718 -1.320785,-0.67834 3.050791,-0.0358 1.441413,-0.10641 0.76433,0.11597 -0.329259,0.11442 -0.660024,0.20527 -0.999303,0.28531 -0.415146,0.0835 -0.830797,0.18497 -1.225818,0.33844 -0.453923,0.19059 -0.905319,0.38255 -1.367786,0.55128 -0.387993,0.18327 -0.776022,0.39629 -1.055933,0.72897 -0.348761,0.40086 -0.671493,0.8237 -0.932526,1.28804 -0.263815,0.4571 -0.520307,0.91714 -0.765487,1.38436 -0.267414,0.42006 -0.48666,0.86861 -0.766698,1.28046 -0.290518,0.39379 -0.605807,0.77057 -0.861108,1.18922 -0.27203,0.44624 -0.551255,0.88715 -0.783643,1.35601 -0.268104,0.49775 -0.554747,0.98534 -0.831922,1.47807 -0.252591,0.45033 -0.481622,0.91375 -0.743269,1.35899 -0.207081,0.38253 -0.40835,0.76827 -0.684846,1.10715 -0.279346,0.35564 -0.548175,0.72025 -0.79605,1.09861 -0.25475,0.36472 -0.488966,0.74318 -0.739794,1.11061 -0.288795,0.43974 -0.543347,0.90193 -0.866671,1.31867 -0.388629,0.46917 -0.7789,0.93713 -1.181078,1.39477 -0.333795,0.38502 -0.682484,0.7566 -1.005889,1.15053 -0.305884,0.38118 -0.593959,0.77783 -0.953112,1.11243 -0.35847,0.36662 -0.732927,0.71744 -1.062,1.11191 -0.288853,0.33668 -0.566116,0.68286 -0.859507,1.01568 -0.295422,0.3278 -0.624501,0.62455 -0.958241,0.91275 -0.307773,0.25248 -0.632095,0.49693 -1.001088,0.65225 -0.960776,0.31668 -1.996565,0.10573 -2.994817,0.12325 -0.408712,-0.0145 -0.818711,-0.0406 -1.217176,-0.13988 -0.483323,-0.13213 -0.951077,-0.30086 -1.381621,-0.56331 -0.489889,-0.29009 -0.954853,-0.6245 -1.311826,-1.07424 -0.262248,-0.34393 -0.490086,-0.71321 -0.722979,-1.07737 -0.199747,-0.32942 -0.373604,-0.68002 -0.636066,-0.96559 -0.311203,-0.35579 -0.64873,-0.68638 -0.989577,-1.01365 0,0 1.800457,-0.1417 1.800457,-0.1417 z"
       inkscape:connector-curvature="0" />
    <path
       style="opacity:1;fill:#000000;fill-opacity:1;stroke:none;stroke-width:0.12884893;stroke-miterlimit:4;stroke-dasharray:none;stroke-opacity:0"
       id="path2069"
       d="m 131.34783,210.39437 c -0.0147,1.07806 0.026,2.15735 0.0537,3.23529 6.4e-4,0.86314 0.0562,1.72312 0.1338,2.58217 0.023,0.29812 0.007,0.15526 0.0461,0.42883 0,0 -1.79744,0.0232 -1.79744,0.0232 v 0 c -0.0334,-0.28449 -0.0204,-0.13826 -0.0378,-0.43879 -0.0505,-0.86319 -0.0836,-1.72656 -0.0795,-2.59149 -0.0217,-1.0806 -0.0687,-2.15991 -0.12273,-3.23926 0,0 1.80377,0 1.80377,0 z"
       inkscape:connector-curvature="0" />
    <path
       style="opacity:1;fill:#000000;fill-opacity:1;stroke:none;stroke-width:0.12884893;stroke-miterlimit:4;stroke-dasharray:none;stroke-opacity:0"
       id="path2071"
       d="m 136.20107,210.62375 c -0.46742,0.0419 -0.9313,0.11316 -1.37284,0.27467 -0.41543,0.19195 -0.55087,0.33952 -0.64599,0.7825 -0.0653,0.39559 -0.0683,0.78548 0.072,1.16302 0.24474,0.45806 0.66998,0.80229 1.12714,1.0346 0.0816,0.0357 0.1632,0.0714 0.2448,0.10706 0,0 -1.77668,0.20287 -1.77668,0.20287 v 0 c -0.0821,-0.0401 -0.16424,-0.0803 -0.24636,-0.12048 -0.4689,-0.28531 -0.90933,-0.6563 -1.144,-1.16364 -0.13584,-0.41088 -0.14438,-0.83243 -0.0757,-1.25946 0.0951,-0.49429 0.20584,-0.71431 0.66527,-0.95752 0.4308,-0.19669 0.89446,-0.27773 1.36378,-0.32664 0,0 1.78852,0.26302 1.78852,0.26302 z"
       inkscape:connector-curvature="0" />
    <path
       style="opacity:1;fill:#000000;fill-opacity:1;stroke:none;stroke-width:0.12884893;stroke-miterlimit:4;stroke-dasharray:none;stroke-opacity:0"
       id="path2073"
       d="m 136.83194,209.62426 c 0.44853,0.33044 0.91784,0.62785 1.2883,1.04875 0.25205,0.31574 0.27565,0.70124 0.29274,1.08776 0.006,0.46274 -0.001,0.92549 -0.003,1.38824 0.0178,0.38043 -0.0584,0.74868 -0.2122,1.09481 -0.12979,0.26152 -0.32136,0.47488 -0.53938,0.66495 0,0 -1.79485,-0.16095 -1.79485,-0.16095 v 0 c 0.21666,-0.15886 0.39882,-0.348 0.53203,-0.58378 0.16058,-0.31656 0.2345,-0.6604 0.21862,-1.01643 0.006,-0.45941 0.0128,-0.9191 3.4e-4,-1.37844 -0.0172,-0.34847 -0.0448,-0.68949 -0.28548,-0.96408 -0.37565,-0.40173 -0.83879,-0.6984 -1.29293,-1.00381 0,0 1.79543,-0.17702 1.79543,-0.17702 z"
       inkscape:connector-curvature="0" />
    <path
       style="opacity:1;fill:#ff0000;fill-opacity:1;stroke:none;stroke-width:0.12884893;stroke-miterlimit:4;stroke-dasharray:none;stroke-opacity:0"
       id="path2075"
       d="m 68.388089,237.64826 c -0.06252,0.46509 -0.08246,0.93449 -0.09937,1.40303 -0.0094,0.30905 -0.0088,0.61826 -0.0076,0.92741 7.08e-4,0.20965 0.0026,0.41933 7.73e-4,0.62898 -1.88e-4,0.041 -3.58e-4,0.0821 -5.45e-4,0.12321 0,0 -1.808979,1.3e-4 -1.808979,1.3e-4 v 0 c -2.39e-4,-0.041 -4.77e-4,-0.0821 -7.08e-4,-0.12316 -0.0023,-0.20986 -0.0013,-0.41977 -3.07e-4,-0.62962 0.0028,-0.3114 0.0092,-0.62272 0.02144,-0.93391 0.01956,-0.47259 0.05543,-0.94421 0.08762,-1.41607 0,0 1.807644,0.02 1.807644,0.02 z"
       inkscape:connector-curvature="0" />
    <path
       style="opacity:1;fill:#ff0000;fill-opacity:1;stroke:none;stroke-width:0.12884893;stroke-miterlimit:4;stroke-dasharray:none;stroke-opacity:0"
       id="path2077"
       d="m 67.671314,238.39076 c -0.411561,0.17454 -0.814159,0.35809 -1.246031,0.47764 -0.300064,0.0534 -0.573529,0.17631 -0.846595,0.3038 0.0054,-0.0192 0.0058,-0.0406 0.01623,-0.0576 0.02468,-0.0403 0.165664,-0.0766 0.118431,-0.0779 -2.450665,-0.0691 -2.068888,0.0821 -1.352643,-0.0749 0.50573,-0.0868 0.974063,-0.29339 1.428897,-0.52278 0.242558,-0.0715 0.69007,-0.46516 0.92567,-0.46948 0.647816,-0.0119 1.295787,0.0128 1.943681,0.0193 0.05053,0.0323 0.107627,0.056 0.151582,0.0968 0.06361,0.059 0.228081,0.29516 0.275868,0.3638 0.127831,0.1836 0.252282,0.36902 0.38282,0.55076 0.182398,0.2347 0.08937,0.11883 0.279081,0.34764 0,0 -1.79043,0.12283 -1.79043,0.12283 v 0 c -0.190436,-0.23655 -0.09668,-0.11667 -0.28122,-0.35968 -0.163292,-0.23283 -0.413186,-0.68789 -0.657856,-0.82335 -0.04463,-0.0247 -0.09727,-0.0308 -0.145905,-0.0462 0.5429,-0.0112 1.085799,-0.0222 1.628699,-0.0334 -0.05524,0.008 -0.111875,0.01 -0.165737,0.0246 -0.280698,0.077 -0.49472,0.30562 -0.768778,0.40139 -0.450877,0.2393 -0.915954,0.46834 -1.419528,0.57146 -0.811536,0.17656 -0.890131,0.11123 -2.22804,0.10822 -0.132999,-3.5e-4 -0.156381,-0.17392 -0.154334,-0.265 0.01513,-0.0268 0.02327,-0.059 0.0454,-0.0804 0.171074,-0.16553 0.610008,-0.27035 0.833763,-0.33708 0.432315,-0.0982 0.83878,-0.25206 1.231441,-0.45915 0,0 1.795534,0.2187 1.795534,0.2187 z"
       inkscape:connector-curvature="0" />
    <path
       style="opacity:1;fill:#ff0000;fill-opacity:1;stroke:none;stroke-width:0.12884893;stroke-miterlimit:4;stroke-dasharray:none;stroke-opacity:0"
       id="path2085"
       d="m 81.364771,223.59206 c 0.907399,0.291 1.795422,0.64254 2.680147,0.99612 0.194099,0.1195 0.797619,0.21786 0.753353,0.56506 -0.03008,0.23591 -0.181339,0.2815 -0.356643,0.41161 -0.131551,0.0589 -0.260462,0.12415 -0.394652,0.1768 -0.547368,0.21475 -1.12016,0.36145 -1.67872,0.54281 -0.541112,0.17569 -0.560641,0.18939 -1.074664,0.38256 -0.547796,0.25999 -1.253715,0.4115 -1.630736,0.92507 -0.0051,0.0425 -0.0339,0.0889 -0.01519,0.12736 0.03397,0.0698 0.385376,0.29777 0.41141,0.31267 0.472809,0.27049 1.013241,0.41703 1.523819,0.59645 1.026498,0.36191 2.096956,0.596 3.10937,0.99736 0.07908,0.0483 0.170337,0.0808 0.237231,0.14495 0.186094,0.17841 0.146468,0.45717 -0.0052,0.64048 -0.161129,0.19481 -0.337805,0.25408 -0.55788,0.36706 -0.868923,0.37974 -1.781218,0.64465 -2.686737,0.92026 0.07569,-0.0225 -0.540473,0.18622 -0.409015,0.28035 0.04278,0.0306 0.102304,0.0257 0.15144,0.0445 0.09748,0.0373 0.191796,0.0824 0.287695,0.12361 0.13675,0.0521 0.2735,0.10409 0.410251,0.15615 0.935214,0.36587 1.956159,0.39576 2.885516,0.77302 0.04745,0.0439 0.118115,0.0719 0.142353,0.1319 0.174391,0.4315 -0.900163,0.72868 -1.141583,0.81581 -0.35277,0.14499 -0.72781,0.23948 -1.071521,0.40728 -0.106475,0.052 -0.234252,0.13272 -0.219047,0.16737 0.0091,0.0207 0.04514,0.005 0.06771,0.007 0.285019,0.10761 0.643601,0.17201 0.85722,0.41016 0.03415,0.0381 0.0545,0.0866 0.08176,0.12986 -0.0051,0.0647 0.0055,0.13253 -0.01519,0.19399 -0.135312,0.4014 -0.992541,0.66104 -1.342454,0.80123 -0.627027,0.24784 -1.292492,0.42752 -1.853469,0.81256 -0.04052,0.0405 -0.08872,0.0747 -0.121571,0.12163 -0.176734,0.25274 0.343609,0.48736 0.485802,0.57828 0.455231,0.29391 0.982407,0.44301 1.42508,0.75621 0.277793,0.23317 0.347782,0.54465 0.300958,0.89083 -0.04677,0.18567 -0.168769,0.29972 -0.304658,0.42276 0,0 -1.795736,-0.15899 -1.795736,-0.15899 v 0 c 0.115387,-0.0848 0.237824,-0.15324 0.294695,-0.2918 0.05295,-0.28762 -0.04312,-0.51712 -0.284845,-0.68676 -0.45379,-0.28618 -0.971158,-0.45365 -1.416262,-0.75666 -0.273312,-0.18936 -0.702008,-0.48614 -0.500075,-0.88472 0.03093,-0.0611 0.08601,-0.10646 0.129022,-0.15969 0.554974,-0.42493 1.241248,-0.60551 1.885183,-0.85378 0.211373,-0.084 0.518573,-0.20416 0.729735,-0.29572 0.181743,-0.0788 0.488875,-0.17655 0.579374,-0.37369 -0.258261,-0.27544 -0.670605,-0.28746 -0.940507,-0.54724 -0.02322,-0.0648 -0.06805,-0.12555 -0.06967,-0.19434 -0.0085,-0.35899 1.095625,-0.58482 1.341795,-0.71236 0.245237,-0.0858 0.460834,-0.15674 0.699527,-0.25645 0.08224,-0.0343 0.161522,-0.0754 0.242877,-0.11186 0.01331,-0.006 0.163371,-0.0672 0.160309,-0.0702 -0.03422,-0.0331 -0.0791,-0.053 -0.118651,-0.0794 -0.927257,-0.35428 -1.941282,-0.39775 -2.863988,-0.77442 -0.150414,-0.0591 -0.586747,-0.21185 -0.73779,-0.33176 -0.421556,-0.33465 -0.03435,-0.58731 0.292838,-0.70965 0.900788,-0.26968 1.81288,-0.51676 2.675827,-0.89577 0.14757,-0.062 0.932383,-0.34175 0.549819,-0.61916 -0.06862,-0.0497 -0.149476,-0.08 -0.224215,-0.11994 -1.00244,-0.38843 -2.050752,-0.6439 -3.06584,-0.99612 -0.503402,-0.17545 -1.847487,-0.53342 -2.014984,-1.14266 -0.01877,-0.0683 0.01486,-0.14081 0.02229,-0.21122 0.03783,-0.0642 0.06634,-0.13486 0.113491,-0.19254 0.336426,-0.41149 1.115219,-0.6188 1.575441,-0.84008 1.026807,-0.38792 2.086171,-0.67386 3.109094,-1.07028 0.07885,-0.0404 0.158647,-0.0789 0.236547,-0.12111 0.03047,-0.0165 0.07381,-0.0233 0.08834,-0.0548 0.04967,-0.10753 -0.641851,-0.38374 -0.703441,-0.4116 -0.890462,-0.36137 -1.784751,-0.71756 -2.70719,-0.99007 0,0 1.784757,-0.21586 1.784757,-0.21586 z"
       inkscape:connector-curvature="0" />
    <path
       style="opacity:1;fill:#ff0000;fill-opacity:1;stroke:none;stroke-width:0.12884893;stroke-miterlimit:4;stroke-dasharray:none;stroke-opacity:0"
       id="path2087"
       d="m 80.649188,239.64308 c 0.221055,0.40298 0.463125,0.79574 0.827686,1.08244 0.232817,0.19158 0.480809,0.32823 0.77593,0.38868 0.612785,0.0519 1.565276,0.0725 -1.279097,0.0113 -0.06606,-10e-4 0.132248,-0.008 0.197306,-0.0191 0.184741,-0.0328 0.233268,-0.0637 0.406092,-0.13482 0.397859,-0.19167 0.751152,-0.45047 1.083023,-0.73877 0,0 1.788782,0.1517 1.788782,0.1517 v 0 c -0.335451,0.30273 -0.687677,0.57776 -1.088267,0.791 -0.140595,0.0718 -0.257491,0.13964 -0.409673,0.18561 -0.794932,0.24015 -1.679529,0.13928 -2.491097,-0.0121 -0.291511,-0.10028 -0.544448,-0.26704 -0.776346,-0.46976 -0.344733,-0.32834 -0.587556,-0.73395 -0.838498,-1.13535 0,0 1.804159,-0.10088 1.804159,-0.10088 z"
       inkscape:connector-curvature="0" />
    <path
       style="opacity:1;fill:#000000;fill-opacity:1;stroke:none;stroke-width:0.12884893;stroke-miterlimit:4;stroke-dasharray:none;stroke-opacity:0"
       id="path2089"
       d="m 68.630092,204.30854 c -0.39692,0.17531 -0.787247,0.38039 -1.101489,0.68351 -0.190968,0.24152 -0.250251,0.46373 -0.146078,0.75596 0.158324,0.21882 0.413268,0.29849 0.654516,0.39045 0.436504,0.16639 0.06875,0.0385 0.523017,0.18975 0.319513,0.11719 0.646922,0.20796 0.978698,0.28218 0,0 -1.780242,0.23866 -1.780242,0.23866 v 0 c -0.327918,-0.0859 -0.651596,-0.1858 -0.970806,-0.30023 -0.449611,-0.16079 -0.967185,-0.2956 -1.208253,-0.74616 -0.100236,-0.35984 -0.05892,-0.63472 0.152595,-0.94634 0.295185,-0.34251 0.707462,-0.54999 1.103898,-0.75549 0,0 1.794144,0.20771 1.794144,0.20771 z"
       inkscape:connector-curvature="0" />
    <path
       style="opacity:1;fill:#999999;fill-opacity:1;stroke:none;stroke-width:0.12884893;stroke-miterlimit:4;stroke-dasharray:none;stroke-opacity:0"
       id="path2101"
       d="m 56.957482,237.02498 c 0.443842,0.0466 0.889372,0.0725 1.335268,0.088 0.337469,0.0104 0.675125,0.0105 1.012717,0.0105 0.761387,-9e-5 -0.449694,6e-5 -1.470003,-9e-5 -0.0504,-1e-5 0.100796,-9e-5 0.151194,-1.5e-4 0.02367,-2e-5 0.281975,-5.1e-4 0.300472,-1.7e-4 0.650678,0.007 1.301345,0.0148 1.952018,0.0221 0.337208,0.0941 0.680463,0.16215 1.028819,0.19591 0,0 -1.783848,0.26082 -1.783848,0.26082 v 0 c -0.345561,-0.049 -0.682802,-0.13724 -1.027476,-0.18993 0.537621,-0.003 1.075241,-0.005 1.61286,-0.007 0.05131,-1.8e-4 -0.102613,1.6e-4 -0.153919,1.7e-4 -0.09932,1e-4 -0.198637,1.7e-4 -0.297955,1.7e-4 -0.646023,6e-5 -1.292046,1e-4 -1.938068,8e-5 -0.05239,0 -0.104779,-9e-5 -0.157168,-1.3e-4 -0.335348,-0.001 -0.670777,-0.004 -1.005859,-0.0186 -0.450009,-0.0209 -0.899375,-0.0531 -1.34757,-0.099 0,0 1.788518,-0.26302 1.788518,-0.26302 z"
       inkscape:connector-curvature="0" />
    <path
       style="opacity:1;fill:#999999;fill-opacity:1;stroke:none;stroke-width:0.12884893;stroke-miterlimit:4;stroke-dasharray:none;stroke-opacity:0"
       id="path2103"
       d="m 56.836929,219.39481 c 0.604814,0.16183 1.228519,0.22673 1.850732,0.27691 0.483553,0.0368 0.968633,0.0417 1.453327,0.0432 0.05734,-1e-4 0.114683,-1.7e-4 0.172024,-3.4e-4 0,0 -1.780288,0.28153 -1.780288,0.28153 v 0 c -0.05589,-3.4e-4 -0.111774,-6.5e-4 -0.167661,-10e-4 -0.480057,-0.005 -0.960416,-0.0159 -1.438759,-0.06 -0.632607,-0.0601 -1.262062,-0.1457 -1.880296,-0.29645 0,0 1.790921,-0.24364 1.790921,-0.24364 z"
       inkscape:connector-curvature="0" />
    <path
       style="opacity:1;fill:#999999;fill-opacity:1;stroke:none;stroke-width:0.12884893;stroke-miterlimit:4;stroke-dasharray:none;stroke-opacity:0"
       id="path2105"
       d="m 61.14989,226.04325 c -0.11159,-0.001 1.088764,0.007 0.816592,0.003 -0.390961,-0.006 -0.783591,0.0243 -1.172947,-0.0115 -0.189886,-0.0175 0.381344,-0.0188 0.570378,-0.0439 0.557145,-0.0739 0.619705,-0.12139 1.155047,-0.29522 0.732718,-0.28918 1.406485,-0.69967 1.991625,-1.22733 0.339166,-0.30586 0.533254,-0.53424 0.842431,-0.87173 0.892352,-1.10587 1.590518,-2.35117 2.236941,-3.61184 0.309146,-0.61705 0.628161,-1.22875 0.907929,-1.85981 0,0 1.76962,0.0756 1.76962,0.0756 v 0 c -0.295713,0.63338 -0.638393,1.2422 -0.952799,1.8664 -0.657867,1.26687 -1.349929,2.52663 -2.227358,3.65736 -0.409049,0.45811 -0.817799,0.91717 -1.303578,1.29765 -0.467656,0.36629 -0.994176,0.65295 -1.537405,0.88885 -0.514737,0.18715 -0.615945,0.25207 -1.155904,0.33826 -0.188499,0.0301 -0.379227,0.0497 -0.570052,0.0546 -1.049111,0.0265 -2.098732,0.0126 -3.148031,0.0209 0,0 1.777511,-0.28153 1.777511,-0.28153 z"
       inkscape:connector-curvature="0" />
    <path
       style="opacity:1;fill:#999999;fill-opacity:1;stroke:none;stroke-width:0.12884893;stroke-miterlimit:4;stroke-dasharray:none;stroke-opacity:0"
       id="path2107"
       d="m 70.154411,217.09762 c -0.397059,0.55179 -0.900338,1.01062 -1.409692,1.45561 -0.227638,0.20898 -0.496766,0.36468 -0.737131,0.55697 -0.0395,0.0316 -0.0772,0.0658 -0.111062,0.10341 -0.01067,0.0119 -0.03383,0.0524 -0.0209,0.043 0.02542,-0.0184 0.04049,-0.0479 0.06073,-0.0718 0.653783,-0.22954 -0.05113,0.0354 -1.449851,-0.0746 -0.08134,-0.006 0.155773,-0.049 0.231656,-0.079 0.290528,-0.11477 0.555407,-0.2693 0.821567,-0.43075 0.467504,-0.27028 0.867841,-0.63713 1.318143,-0.93133 0.819166,-0.42163 1.698069,-0.27207 2.629656,-0.18045 0.06728,0.007 0.08733,0.10322 0.130994,0.15483 0.274585,0.5179 0.385039,1.09659 0.507703,1.66399 0.06993,0.35809 0.03903,0.18147 0.09337,0.52973 0,0 -1.790022,0.0271 -1.790022,0.0271 v 0 c -0.05059,-0.34046 -0.02209,-0.16733 -0.08615,-0.51927 -0.111746,-0.52983 -0.205925,-1.09498 -0.520912,-1.54762 -0.604437,-0.32577 -0.157759,-0.0593 1.512615,-0.0865 0.05286,-6.5e-4 -0.105857,-0.008 -0.158547,-0.004 -0.183116,0.015 -0.3612,0.0827 -0.53105,0.14686 -0.475031,0.26144 -0.862584,0.65718 -1.334946,0.92618 -0.963801,0.62631 -1.908149,1.05728 -3.181268,0.57884 -0.02214,-0.0537 -0.06041,-0.10324 -0.06641,-0.16097 -0.02525,-0.24287 0.751921,-0.63085 0.913327,-0.79741 0.501931,-0.42166 0.994667,-0.86442 1.374017,-1.40359 0,0 1.804161,0.10088 1.804161,0.10088 z"
       inkscape:connector-curvature="0" />
    <path
       style="opacity:1;fill:#999999;fill-opacity:1;stroke:none;stroke-width:0.12884893;stroke-miterlimit:4;stroke-dasharray:none;stroke-opacity:0"
       id="path2109"
       d="m 68.909159,214.09902 c 0.641973,-0.24782 0.960045,-0.86051 1.220326,-1.4553 0.277718,-0.7779 0.339702,-1.60477 0.371316,-2.4234 -0.0036,-0.24246 0.0342,-0.50591 -0.0442,-0.74245 -0.01592,-0.048 -0.03178,-0.10313 -0.07228,-0.13345 -0.03263,-0.0244 -0.162477,-0.0132 -0.121731,-0.0118 0.547482,0.0184 1.09478,0.0419 1.64217,0.0627 -0.04814,0.0338 -0.105225,0.0575 -0.144431,0.10131 -0.334749,0.37421 -0.418328,1.05431 -0.491256,1.53035 -0.05018,0.55835 0.116799,1.08085 0.351776,1.57841 0.20782,0.41887 0.554345,0.65662 0.974828,0.8297 0.412958,0.1532 0.854316,0.17721 1.289967,0.19188 -2.801969,0.001 -1.869191,0.0774 -1.265448,-0.0626 0,0 1.790327,0.23335 1.790327,0.23335 v 0 c -0.76578,0.25242 -1.318805,0.17382 -2.302083,0.10212 -0.441588,-0.0271 -0.885543,-0.0752 -1.293275,-0.26055 -0.433317,-0.21779 -0.781855,-0.50723 -0.988305,-0.95793 -0.229744,-0.53488 -0.388917,-1.09218 -0.335256,-1.68151 0.09921,-0.64099 0.208006,-1.31847 0.624134,-1.83941 0.64768,-0.006 1.29621,-0.0528 1.94304,-0.0189 0.264742,0.0139 0.237507,0.93846 0.221238,1.08765 -0.05068,0.83819 -0.117018,1.68379 -0.384773,2.48577 -0.259026,0.62355 -0.568389,1.26892 -1.190556,1.60281 0,0 -1.795533,-0.2187 -1.795533,-0.2187 z"
       inkscape:connector-curvature="0" />
    <path
       style="opacity:1;fill:#999999;fill-opacity:1;stroke:none;stroke-width:0.12884893;stroke-miterlimit:4;stroke-dasharray:none;stroke-opacity:0"
       id="path2111"
       d="m 75.828871,210.50895 c -0.420591,0.13885 -0.773651,0.37188 -1.06388,0.70304 -0.216472,0.29091 -0.373483,0.6332 -0.333874,1.00065 0.108796,0.35646 0.408094,0.45899 0.732439,0.56065 0.350335,0.0964 0.715035,0.11418 1.076343,0.12247 -3.858777,-0.17207 -1.750967,0.18104 -1.330286,-0.0823 0.164528,-0.10298 0.236067,-0.28753 0.31753,-0.45306 0.166575,-0.40591 0.262364,-0.8416 0.187805,-1.27698 -0.08339,-0.31783 -0.31121,-0.48917 -0.582463,-0.64444 0,0 1.790512,-0.17992 1.790512,-0.17992 v 0 c 0.289919,0.20493 0.511639,0.43505 0.586407,0.79589 0.01198,0.0797 0.03104,0.1586 0.03593,0.23902 0.02366,0.38864 -0.103242,0.78324 -0.22436,1.14568 -0.114476,0.25196 -0.269846,0.70765 -0.615628,0.71745 -0.64871,0.0184 -1.297907,0.009 -1.94686,0.014 -0.365224,-0.019 -0.732779,-0.0537 -1.07976,-0.17752 -0.395856,-0.15841 -0.641362,-0.33121 -0.751796,-0.76469 -0.03144,-0.41386 0.112716,-0.8021 0.348885,-1.14067 0.304447,-0.38881 0.598751,-0.61038 1.05752,-0.79791 0,0 1.795533,0.21869 1.795533,0.21869 z"
       inkscape:connector-curvature="0" />
    <path
       style="opacity:1;fill:#999999;fill-opacity:1;stroke:none;stroke-width:0.12884893;stroke-miterlimit:4;stroke-dasharray:none;stroke-opacity:0"
       id="path2113"
       d="m 80.314264,208.18399 c -0.382661,-0.002 -0.749642,0.0604 -1.0223,0.34265 -0.175719,0.29513 -0.199184,0.63881 -0.124227,0.96691 0.151043,0.47756 0.517555,0.81068 0.920086,1.08369 0.211228,0.13421 0.614962,0.3454 0.503695,0.6655 -0.01805,0.0519 -0.05825,0.0933 -0.08737,0.13989 -0.388643,0.33112 -0.908654,0.42008 -1.391867,0.53338 -0.17307,0.0406 -0.344956,0.0854 -0.51261,0.14458 0,0 -1.798017,-0.21011 -1.798017,-0.21011 v 0 c 0.170536,-0.0853 0.352693,-0.12675 0.536907,-0.17517 0.462821,-0.10045 0.952183,-0.17819 1.361531,-0.42845 0.03723,-0.018 0.110697,-0.0333 0.100166,-0.0733 -0.0553,-0.21013 -0.358952,-0.29616 -0.496822,-0.42767 -0.41297,-0.32044 -0.787413,-0.69596 -0.932248,-1.21379 -0.08316,-0.39813 -0.04793,-0.75843 0.121055,-1.13203 0.274494,-0.3627 0.588734,-0.46893 1.036407,-0.49889 0,0 1.785611,0.28282 1.785611,0.28282 z"
       inkscape:connector-curvature="0" />
    <path
       style="opacity:1;fill:#999999;fill-opacity:1;stroke:none;stroke-width:0.12884893;stroke-miterlimit:4;stroke-dasharray:none;stroke-opacity:0"
       id="path2115"
       d="m 81.936327,207.429 c -0.483676,-0.0471 -0.969009,-0.0718 -1.454573,-0.088 0.522009,0.006 1.044589,-0.008 1.566027,0.017 0.0711,0.003 -0.140802,0.0249 -0.20801,0.0483 -0.247936,0.0865 -0.402817,0.25684 -0.524143,0.47953 -0.23497,0.61269 0.147496,0.95698 0.566704,1.3568 0.442993,0.35561 0.909195,0.69362 1.421377,0.94394 0.115324,0.0564 0.490221,0.21004 0.618353,0.26323 0.02631,0.0111 0.319658,0.12572 0.369562,0.17426 0.02553,0.0248 0.04264,0.0634 0.04041,0.0989 -0.01428,0.22674 -0.202582,0.28392 -0.376152,0.36608 -0.330992,0.12726 -0.664139,0.24767 -0.993365,0.37983 0,0 -1.773415,-0.21186 -1.773415,-0.21186 v 0 c 0.32504,-0.13048 0.647755,-0.26412 0.979155,-0.37769 0.05644,-0.0213 0.112763,-0.0428 0.169302,-0.0639 0.04217,-0.0157 0.08185,-0.0474 0.12682,-0.0462 0.02436,6.5e-4 0.03873,0.0309 0.05218,0.0512 0.0035,0.005 -0.01343,10e-4 -0.01931,-0.001 -0.04327,-0.0197 -0.08462,-0.0433 -0.126928,-0.0649 -0.0727,-0.0323 -0.14541,-0.0646 -0.218113,-0.0969 -0.737271,-0.32551 -1.428655,-0.73621 -2.033962,-1.27391 -0.469922,-0.47275 -0.832083,-0.88306 -0.600082,-1.57809 0.02792,-0.0647 0.04872,-0.13296 0.08375,-0.19412 0.50684,-0.88473 1.93527,-0.55092 2.654357,-0.5441 0.490239,0.0213 0.980131,0.0512 1.468579,0.099 0,0 -1.788518,0.26302 -1.788518,0.26302 z"
       inkscape:connector-curvature="0" />
    <path
       style="opacity:1;fill:#999999;fill-opacity:1;stroke:none;stroke-width:0.12884893;stroke-miterlimit:4;stroke-dasharray:none;stroke-opacity:0"
       id="path2117"
       d="m 58.159697,220.37268 c -0.06777,0.54002 -0.08767,1.08474 -0.102039,1.62838 -0.01194,0.47607 -0.0109,0.95236 -0.01107,1.42855 0.0018,0.44832 -5.28e-4,0.89663 -0.0011,1.34495 5.12e-4,0.45549 0.0016,0.91096 0.0025,1.36644 -0.0018,0.45927 -2.05e-4,0.91855 -0.0024,1.37782 -0.003,0.56156 -0.0033,1.12313 -0.0025,1.6847 0.0023,0.49864 0.0026,0.99727 0.0034,1.49592 -0.003,0.47414 0.0016,0.94828 4.09e-4,1.42242 0.0027,0.41809 0.0017,0.83618 7.67e-4,1.25428 0.0029,0.38417 0.0011,0.76835 0.0024,1.15252 1.87e-4,0.33896 0.0012,0.67792 0.0016,1.01687 0.02984,0.27756 0.07681,0.55251 0.101939,0.83067 0.01958,0.14523 0.01482,0.38974 0.07589,0.52368 0.02623,0.0575 0.102647,0.0928 0.15081,0.12223 0.03526,0.0134 0.07052,0.0268 0.105779,0.0402 0,0 -1.798724,0.19218 -1.798724,0.19218 v 0 c -0.03663,-0.0265 -0.07326,-0.053 -0.109887,-0.0794 -0.198587,-0.22817 -0.212857,-0.48975 -0.232047,-0.78266 -0.02519,-0.28329 -0.07349,-0.56349 -0.09744,-0.84684 3.75e-4,-0.33895 0.0014,-0.6779 0.0016,-1.01686 0.0013,-0.38418 -5.12e-4,-0.76835 0.0024,-1.15253 -9.86e-4,-0.41809 -0.0019,-0.83618 7.67e-4,-1.25428 -0.0011,-0.47414 0.0034,-0.94828 4.09e-4,-1.42241 8.69e-4,-0.49865 0.0011,-0.99729 0.0034,-1.49592 7.47e-4,-0.56157 4.43e-4,-1.12314 -0.0025,-1.6847 -0.0022,-0.45927 -6.31e-4,-0.91855 -0.0025,-1.37781 7.99e-4,-0.45547 0.0018,-0.91091 0.0019,-1.36637 -10e-4,-0.44843 -0.0042,-0.89685 -0.0022,-1.34528 0.0011,-0.47803 0.0051,-0.95601 0.01795,-1.43389 0.01966,-0.54735 0.04664,-1.0944 0.08495,-1.64079 0,0 1.805626,0.018 1.805626,0.018 z"
       inkscape:connector-curvature="0" />
    <path
       style="opacity:1;fill:#999999;fill-opacity:1;stroke:none;stroke-width:0.12884893;stroke-miterlimit:4;stroke-dasharray:none;stroke-opacity:0"
       id="path2119"
       d="m 62.434984,237.12227 c 0.26344,0.001 0.127346,6.4e-4 0.408282,0.001 0,0 -1.773401,0.28088 -1.773401,0.28088 v 0 c -0.287174,3.4e-4 -0.14701,0 -0.420491,0.001 0,0 1.78561,-0.28281 1.78561,-0.28281 z"
       inkscape:connector-curvature="0" />
    <path
       style="opacity:1;fill:#999999;fill-opacity:1;stroke:none;stroke-width:0.12884893;stroke-miterlimit:4;stroke-dasharray:none;stroke-opacity:0"
       id="path2121"
       d="m 65.357094,237.12227 c 0.05915,1.7e-4 0.118312,3.4e-4 0.177468,5.1e-4 0,0 -1.778679,0.28172 -1.778679,0.28172 v 0 c -0.06147,1.7e-4 -0.122933,3.4e-4 -0.1844,5.1e-4 0,0 1.785611,-0.28281 1.785611,-0.28281 z"
       inkscape:connector-curvature="0" />
    <path
       style="opacity:1;fill:#999999;fill-opacity:1;stroke:none;stroke-width:0.12884893;stroke-miterlimit:4;stroke-dasharray:none;stroke-opacity:0"
       id="path2123"
       d="m 60.486911,219.10259 c 0.07722,3.4e-4 0.15445,6.5e-4 0.231675,0.001 0,0 -1.770579,0.28043 -1.770579,0.28043 v 0 c -0.08223,3.4e-4 -0.164471,6.5e-4 -0.246706,0.001 0,0 1.78561,-0.28281 1.78561,-0.28281 z"
       inkscape:connector-curvature="0" />
    <path
       style="opacity:1;fill:#999999;fill-opacity:1;stroke:none;stroke-width:0.12884893;stroke-miterlimit:4;stroke-dasharray:none;stroke-opacity:0"
       id="path2125"
       d="m 65.980731,219.49148 c 0.549528,0.0553 1.101543,0.0753 1.653393,0.0888 0.104777,0.002 0.209553,0.003 0.31433,0.005 0,0 -1.760534,0.27551 -1.760534,0.27551 v 0 c -0.105271,-0.002 -0.210541,-0.005 -0.315812,-0.007 -0.560039,-0.0169 -1.119762,-0.0438 -1.677588,-0.0982 0,0 1.786211,-0.26468 1.786211,-0.26468 z"
       inkscape:connector-curvature="0" />
    <path
       style="opacity:1;fill:#999999;fill-opacity:1;stroke:none;stroke-width:0.12884893;stroke-miterlimit:4;stroke-dasharray:none;stroke-opacity:0"
       id="path2127"
       d="m 72.920742,219.735 c 0.642337,0.0583 1.287428,0.0751 1.931952,0.0889 0.470555,0.009 0.941196,0.0102 1.411814,0.0119 0,0 -1.752824,0.27693 -1.752824,0.27693 v 0 c -0.47158,-0.002 -0.943186,-0.004 -1.414665,-0.0151 -0.654791,-0.0171 -1.30991,-0.0387 -1.962488,-0.098 0,0 1.786211,-0.26469 1.786211,-0.26469 z"
       inkscape:connector-curvature="0" />
    <path
       style="opacity:1;fill:#999999;fill-opacity:1;stroke:none;stroke-width:0.12884893;stroke-miterlimit:4;stroke-dasharray:none;stroke-opacity:0"
       id="path2129"
       d="m 80.956544,220.22201 c 0.238973,0.0258 0.478885,0.0412 0.718644,0.0573 0,0 -1.769911,0.26752 -1.769911,0.26752 v 0 c -0.245137,-0.0181 -0.49028,-0.0363 -0.734944,-0.0602 0,0 1.786211,-0.26469 1.786211,-0.26469 z"
       inkscape:connector-curvature="0" />
    <path
       style="opacity:1;fill:#0000ff;fill-opacity:1;stroke:none;stroke-width:0.12884893;stroke-miterlimit:4;stroke-dasharray:none;stroke-opacity:0"
       id="path2131"
       d="m 67.480793,236.98921 c 0.502896,-0.10567 1.002556,-0.22351 1.495759,-0.36784 0.429665,-0.13422 0.816604,-0.36656 1.179803,-0.62762 0.356698,-0.26333 0.662292,-0.5828 0.94721,-0.92031 0.289192,-0.3749 0.585747,-0.74025 0.936181,-1.05953 0.36522,-0.29566 0.716041,-0.60824 1.074416,-0.91192 0.302444,-0.26559 0.5969,-0.54265 0.845625,-0.85985 0.284417,-0.35956 0.521878,-0.75142 0.767225,-1.1376 0.265414,-0.39127 0.500989,-0.80031 0.742729,-1.20617 0.230849,-0.34814 0.431533,-0.71455 0.640862,-1.07565 0.216752,-0.39508 0.490237,-0.75214 0.75609,-1.1142 0.201263,-0.30967 0.405014,-0.61726 0.600047,-0.93094 0.213855,-0.34171 0.455787,-0.66421 0.682098,-0.99743 0.220307,-0.34492 0.434011,-0.69417 0.670347,-1.02843 0.186853,-0.27193 0.337905,-0.56401 0.476779,-0.86239 0.118786,-0.27025 0.186648,-0.56176 0.250324,-0.84942 0.04622,-0.24562 0.0682,-0.49551 0.06999,-0.74533 -3.41e-4,-0.008 -0.0086,-0.0231 -10e-4,-0.0226 1.472762,0.1 2.102718,-0.36599 1.696079,0.27732 -0.09521,0.15062 -0.20719,0.28066 -0.327525,0.41125 -0.244943,0.26827 -0.522594,0.49255 -0.838529,0.67009 -0.277867,0.13839 -0.579611,0.21845 -0.869674,0.32708 -0.78716,0.28788 -1.363459,0.23849 -2.350802,0.12903 -0.0611,-0.007 -0.0035,-0.1229 -0.0053,-0.18434 0.166447,-0.35812 0.523855,-0.59527 0.825049,-0.8373 0.344689,-0.26242 0.679715,-0.5382 1.044137,-0.77316 0.707528,-0.3375 1.478818,-0.12914 2.279279,-0.0804 0.08246,0.005 0.394107,0.2541 0.466794,0.30764 0.27342,0.24675 0.550899,0.44869 0.868932,0.6316 0.188301,0.11618 0.382103,0.2231 0.573959,0.33349 0,0 -1.79235,0.18877 -1.79235,0.18877 v 0 c -0.192259,-0.1103 -0.385302,-0.21934 -0.574051,-0.33562 -0.310327,-0.18787 -0.581157,-0.42392 -0.867575,-0.64516 -0.106985,-0.0699 -0.196524,-0.13525 -0.314485,-0.18603 -0.04761,-0.0205 -0.199672,-0.0454 -0.147905,-0.048 0.541869,-0.0267 1.084941,-0.0157 1.627388,-0.025 0.05433,-6.4e-4 -0.109129,-0.007 -0.163002,-1.5e-4 -0.05706,0.007 -0.111402,0.0289 -0.167104,0.0434 -0.376043,0.21155 -0.702623,0.49265 -1.046215,0.75156 -0.278981,0.21014 -0.542015,0.44155 -0.795535,0.68043 -0.106636,-0.62863 0.01209,-0.0418 -1.748532,-0.0454 -0.03691,-8e-5 0.07394,-0.006 0.109759,-0.0146 0.128688,-0.0319 0.254413,-0.0828 0.384836,-0.11045 0.288533,-0.10398 0.576528,-0.20725 0.868738,-0.30037 0.311367,-0.16498 0.60197,-0.34256 0.835183,-0.61464 0.118031,-0.11869 0.227621,-0.23208 0.32121,-0.3716 0.02491,-0.0371 0.02664,-0.11 0.07121,-0.11368 1.907289,-0.15764 2.081926,-0.62383 1.854667,-0.0328 -0.02786,0.25745 -0.03048,0.51792 -0.08355,0.77245 -0.06086,0.30167 -0.137311,0.60572 -0.251524,0.89124 -0.145799,0.30604 -0.29315,0.61075 -0.481361,0.89403 -0.236778,0.33318 -0.467479,0.6705 -0.675608,1.02283 -0.219108,0.33578 -0.463273,0.65398 -0.6787,0.99235 -0.198475,0.31671 -0.398477,0.63156 -0.603165,0.94431 -0.262574,0.35766 -0.542833,0.70265 -0.755556,1.09437 -0.208362,0.36345 -0.405689,0.73416 -0.644228,1.07918 -0.247711,0.40398 -0.47138,0.82186 -0.742854,1.21119 -0.251043,0.38559 -0.479988,0.78546 -0.761082,1.15092 -0.242918,0.33797 -0.549291,0.61906 -0.85358,0.90136 -0.363604,0.29666 -0.706485,0.61839 -1.07731,0.90659 -0.356206,0.30261 -0.651186,0.65963 -0.934144,1.0308 -0.282795,0.353 -0.588261,0.6846 -0.945269,0.96482 -0.367146,0.27848 -0.759756,0.52534 -1.192354,0.6898 -0.49153,0.14333 -0.985608,0.26923 -1.484338,0.38512 0,0 -1.788411,-0.24718 -1.788411,-0.24718 z"
       inkscape:connector-curvature="0" />
    <path
       style="opacity:1;fill:#ff0000;fill-opacity:1;stroke:none;stroke-width:0.12884893;stroke-miterlimit:4;stroke-dasharray:none;stroke-opacity:0"
       id="path2154"
       d="m 65.343151,249.04196 c -0.452836,-0.18049 -0.926332,-0.29973 -1.389398,-0.4493 -0.383542,-0.12656 -0.705156,-0.36122 -1.006599,-0.62241 -0.236559,-0.23163 -0.388917,-0.51359 -0.441749,-0.83918 -0.01654,-0.41579 0.257241,-0.6694 0.575704,-0.88702 0.418134,-0.2814 0.903455,-0.38979 1.385165,-0.50527 0.687805,-0.17877 1.397434,-0.24031 2.104392,-0.28444 1.137547,-0.0175 2.299132,-0.15525 3.425303,0.0277 0.517735,0.0914 1.05007,0.14963 1.521803,0.39428 0.338705,0.23983 0.350133,0.5263 0.207123,0.88551 -0.252935,0.40724 -0.692327,0.62518 -1.123294,0.79801 -0.459303,0.17202 -0.944773,0.24831 -1.412745,0.39093 -0.191876,0.0606 -0.382246,0.12692 -0.566839,0.20734 -0.03665,0.016 -0.07264,0.0334 -0.108499,0.0511 -0.01844,0.009 -0.04707,0.0485 -0.05432,0.0292 -0.01741,-0.0462 0.0064,-0.0985 0.0096,-0.14772 -2.761291,-0.0704 -1.889803,0.42531 -1.641681,-0.27639 0.04823,-0.13639 0.07976,-0.28128 0.114913,-0.42138 0.0437,-0.16743 0.100479,-0.33081 0.150757,-0.49631 0.0092,-0.0304 0.0015,-0.10809 0.02833,-0.091 0.0289,0.0185 -0.04472,0.0996 -0.01053,0.10237 0.589871,0.047 1.183212,0.0256 1.774817,0.0383 -0.169316,0.30586 -0.265416,0.64313 -0.33129,0.98435 -0.05028,0.37758 -0.09276,0.5038 0.278648,0.65144 0.355367,0.10823 0.726621,0.12226 1.094969,0.13114 0,0 -1.77791,0.27494 -1.77791,0.27494 v 0 c -0.378412,-0.0185 -0.763924,-0.0472 -1.110493,-0.21474 -0.360238,-0.25474 -0.345773,-0.46258 -0.28466,-0.87677 0.06871,-0.363 0.17568,-0.71247 0.318,-1.05376 0.619546,-0.0297 1.957625,-0.58605 1.860578,0.0265 -0.0047,0.0298 -0.02511,0.0549 -0.0357,0.0832 -0.05931,0.15815 -0.108459,0.32058 -0.151985,0.48367 -0.281616,1.17191 -0.138277,0.73529 -2.097467,0.78837 0.001,-0.0517 -0.01253,-0.10573 0.003,-0.15501 0.04413,-0.1396 0.637613,-0.28537 0.759232,-0.34384 0.464262,-0.15881 0.946645,-0.23359 1.413133,-0.38392 0.404652,-0.13423 0.820475,-0.31894 1.097285,-0.65535 0.145287,-0.28988 0.107178,-0.44609 -0.189856,-0.60709 -0.478281,-0.1995 -0.998064,-0.26003 -1.506526,-0.34122 -0.754567,-0.0811 -0.336436,-0.0264 1.251632,-0.0372 0.08951,-6.5e-4 -0.179027,6.4e-4 -0.268538,0.001 -0.191505,0.002 -0.369095,0.004 -0.560687,0.01 -0.105982,0.003 -0.211927,0.007 -0.31789,0.0107 -0.702202,0.0351 -1.408985,0.0824 -2.0938,0.25173 -0.465482,0.12261 -0.951644,0.18802 -1.366775,0.45198 -0.269851,0.149 -0.559695,0.33076 -0.557304,0.67337 0.05442,0.28501 0.213478,0.52267 0.430651,0.71341 0.297776,0.2414 0.618551,0.44499 0.990489,0.55322 0.46974,0.14449 0.940144,0.28675 1.403713,0.45043 0,0 -1.792794,0.2251 -1.792794,0.2251 z"
       inkscape:connector-curvature="0" />
    <path
       style="opacity:1;fill:#ff0000;fill-opacity:1;stroke:none;stroke-width:0.12884893;stroke-miterlimit:4;stroke-dasharray:none;stroke-opacity:0"
       id="path2156"
       d="m 75.707099,246.46907 c -0.36863,0.46435 -0.704656,0.953 -1.051555,1.43342 -0.237794,0.33159 -0.497452,0.64615 -0.767707,0.95151 0,0 -1.792324,-0.13178 -1.792324,-0.13178 v 0 c 0.274204,-0.29822 0.539591,-0.60468 0.779387,-0.93166 0.347354,-0.47627 0.688391,-0.95735 1.030119,-1.43762 0,0 1.80208,0.11613 1.80208,0.11613 z"
       inkscape:connector-curvature="0" />
    <path
       style="opacity:1;fill:#ff0000;fill-opacity:1;stroke:none;stroke-width:0.12884893;stroke-miterlimit:4;stroke-dasharray:none;stroke-opacity:0"
       id="path2158"
       d="m 74.21635,245.61687 c 0.478738,0.15597 0.982092,0.21599 1.481463,0.26197 0.520432,0.0238 0.691293,0.0548 0.862912,0.56729 0.06604,0.40552 -0.02739,0.81428 -0.128102,1.2064 -0.01336,0.053 -0.02673,0.10606 -0.0401,0.1591 0,0 -1.802528,-0.0454 -1.802528,-0.0454 v 0 c 0.01403,-0.0535 0.02805,-0.10693 0.04207,-0.16041 0.09683,-0.3534 0.197305,-0.72735 0.128335,-1.09424 -0.02096,-0.0477 -0.03535,-0.0988 -0.06287,-0.143 -0.154575,-0.24827 -0.527806,-0.18721 -0.772368,-0.22765 -0.5076,-0.0581 -1.015537,-0.13598 -1.501609,-0.29897 0,0 1.792794,-0.2251 1.792794,-0.2251 z"
       inkscape:connector-curvature="0" />
    <path
       style="opacity:1;fill:#ff0000;fill-opacity:1;stroke:none;stroke-width:0.12884893;stroke-miterlimit:4;stroke-dasharray:none;stroke-opacity:0"
       id="path2160"
       d="m 78.88308,248.47651 c -0.310079,-0.38137 -0.562709,-0.80079 -0.740676,-1.25848 -0.105401,-0.28955 -0.131711,-0.59488 -0.140721,-0.90013 -0.01104,-0.30351 -0.01338,-0.59207 0.124058,-0.86808 0.174106,-0.25652 0.417748,-0.4313 0.70222,-0.5446 0.949317,-0.29577 1.942543,-0.15105 2.926367,-0.13642 0.560677,0.10842 1.071388,0.37391 1.587343,0.60733 0.32011,0.13702 0.653322,0.27076 0.922735,0.49876 0.105926,0.0896 0.261113,0.27315 0.35147,0.37546 0.281893,0.37174 0.484158,0.78201 0.594493,1.2336 0.06292,0.35665 0.112927,0.72597 0.05713,1.08578 -0.08694,0.37002 -0.353356,0.61945 -0.647963,0.83556 -0.292106,0.18222 -0.625983,0.28193 -0.942867,0.41287 0,0 -1.790558,-0.20871 -1.790558,-0.20871 v 0 c 0.307173,-0.14034 0.628573,-0.24321 0.938087,-0.37662 0.267194,-0.17999 0.546374,-0.36616 0.640627,-0.69307 0.06116,-0.33333 0.0038,-0.6807 -0.05186,-1.01175 -0.107884,-0.42073 -0.306053,-0.80784 -0.582187,-1.14477 -0.131034,-0.13691 -0.20008,-0.22094 -0.350656,-0.33378 -0.275912,-0.20676 -0.602264,-0.32857 -0.913304,-0.46959 -0.509545,-0.2342 -1.025242,-0.48165 -1.588783,-0.54814 0.519657,-0.005 1.039348,-0.007 1.558967,-0.0144 0.06894,-10e-4 -0.137857,-0.008 -0.206753,-0.006 -0.239631,0.009 -0.477747,0.0611 -0.708952,0.12072 -0.275383,0.0674 -0.505997,0.19499 -0.691225,0.41502 -0.167146,0.22126 -0.119737,0.50239 -0.119957,0.76564 0.0073,0.28424 0.02936,0.56872 0.128979,0.83806 0.170825,0.43339 0.408018,0.84312 0.744685,1.16991 0,0 -1.800705,0.15564 -1.800705,0.15564 z"
       inkscape:connector-curvature="0" />
    <path
       style="opacity:1;fill:#ff0000;fill-opacity:1;stroke:none;stroke-width:0.12884893;stroke-miterlimit:4;stroke-dasharray:none;stroke-opacity:0"
       id="path2162"
       d="m 83.572812,249.00758 c -0.446822,0.14254 -0.890513,0.29363 -1.294291,0.53523 -0.211685,0.13525 -0.393705,0.29334 -0.28328,0.55425 0.199224,0.22831 0.524729,0.25219 0.80664,0.28751 0.39376,0.0375 0.790071,0.035 1.185226,0.0347 -3.119749,-0.001 -2.016417,0.003 -1.471603,-0.001 0.05938,-3.4e-4 0.112501,-0.001 0.112461,-3.4e-4 -0.01325,0.3024 0.05928,0.28033 -0.09632,0.28071 -0.279785,0.0275 -0.534786,-0.0897 -0.801543,-0.1515 -0.292479,-0.0658 -0.577573,-0.15086 -0.875913,-0.18984 -0.285891,-0.0592 -0.487519,-0.22234 -0.565545,-0.50381 -0.0214,-0.37025 0.169652,-0.64748 0.43974,-0.87792 0.264366,-0.20187 0.557515,-0.35758 0.842508,-0.52655 -0.123659,0.15127 0.08564,-0.0819 0.08051,-0.0506 -0.005,0.0304 -0.01362,0.0615 -0.03038,0.0873 -0.01479,0.0228 -0.08836,0.0529 -0.0612,0.0539 1.555089,0.06 2.260481,-0.14379 1.590718,0.0396 -0.31296,0.1285 -0.526128,0.37508 -0.696151,0.6578 -0.130036,0.24994 -0.208552,0.52619 -0.130207,0.80355 0.219807,0.18538 0.526281,0.20042 0.799973,0.23078 0.399824,0.03 0.801208,0.0267 1.201877,0.0261 -2.935954,0.003 -1.70434,6.5e-4 -1.049106,-0.002 0,0 1.781162,0.28148 1.781162,0.28148 v 0 c -0.836048,0.002 -1.672092,0.006 -2.50815,0.002 -0.402952,-0.002 -0.80766,10e-4 -1.208096,-0.0503 -0.321477,-0.0543 -0.682202,-0.11611 -0.827149,-0.44731 -0.06046,-0.32461 -0.0083,-0.64203 0.140661,-0.93748 0.171096,-0.3137 0.382928,-0.59352 0.698217,-0.7758 0.651921,-0.37038 0.182815,-0.12738 2.002823,-0.0959 0.09013,0.001 0.111421,0.1775 0.112422,0.21507 0.0019,0.0706 -0.05629,0.10489 -0.09963,0.14584 -0.277229,0.17734 -0.580963,0.30995 -0.844595,0.50983 -0.232838,0.15054 -0.443769,0.3522 -0.425572,0.65205 0.09605,0.21657 0.327026,0.27476 0.544568,0.30819 0.294603,0.0554 0.581249,0.14246 0.874238,0.20544 0.267013,0.0701 0.529254,0.13222 0.808257,0.10734 0.158243,0.003 0.10024,-0.0223 0.103235,0.28267 2.2e-5,0.002 -0.06977,0.002 -0.128502,0.002 -0.697148,0.003 -1.394331,-0.007 -2.091454,1.6e-4 -0.396567,-0.003 -0.795298,-0.004 -1.188395,-0.0622 -0.331252,-0.0631 -0.680129,-0.15002 -0.834241,-0.48351 -0.09647,-0.35862 -0.0034,-0.58173 0.303214,-0.79156 0.395503,-0.26856 0.840343,-0.42611 1.290081,-0.58052 0,0 1.792795,0.2251 1.792795,0.2251 z"
       inkscape:connector-curvature="0" />
    <path
       style="opacity:1;fill:#ff0000;fill-opacity:1;stroke:none;stroke-width:0.12884893;stroke-miterlimit:4;stroke-dasharray:none;stroke-opacity:0"
       id="path2164"
       d="m 89.545457,246.07616 c 0.622624,0.46227 1.200813,0.97678 1.787441,1.48269 0.506246,0.43589 1.045399,0.83183 1.545841,1.27424 0.161331,0.14351 0.505344,0.44892 0.28282,0.69097 -0.03114,0.0339 -0.08005,0.0454 -0.120072,0.068 -1.566607,0.0148 -1.880479,0.20966 -2.890581,-0.55639 -0.456787,-0.39236 -0.920864,-0.77607 -1.382938,-1.16238 -0.276349,-0.25532 -0.593659,-0.47623 -0.839953,-0.76338 -0.114299,-0.13326 -0.165451,-0.23255 -0.254897,-0.38166 -0.140683,-0.19091 -0.213485,-0.45027 -0.3905,-0.61513 -0.06688,-0.0623 -0.133988,-0.0804 -0.21615,-0.11327 -0.0015,-0.0576 -0.418473,-0.0309 -0.364918,-0.03 0.560085,0.01 1.120601,-0.008 1.680458,0.0108 0.03229,0.001 -0.06312,0.0207 -0.08733,0.042 -0.02971,0.0262 -0.04633,0.0643 -0.06949,0.0965 -0.13919,0.38428 -0.133633,0.80304 -0.140349,1.20678 0.02395,0.28787 -0.03454,0.58889 0.01399,0.87489 -0.605154,-0.0338 -1.215124,-0.0179 -1.815459,-0.1013 -0.01127,-0.001 0.07759,-0.97143 0.0842,-1.05537 0.02306,-0.37214 0.0071,-0.74253 0.145196,-1.09398 0.11408,-0.21185 0.296746,-0.35404 0.545423,-0.35213 0.652086,0.005 1.304036,0.0212 1.956056,0.0318 0.556482,0.11907 1.118319,0.19023 1.685449,0.23361 0.308735,0.0227 0.618141,0.0317 0.927497,0.0402 0,0 -1.762844,0.27337 -1.762844,0.27337 v 0 c -0.308038,-0.0114 -0.616098,-0.0235 -0.923315,-0.05 -0.574447,-0.0516 -1.141429,-0.14203 -1.709807,-0.23765 0.53686,-0.004 1.073773,-0.003 1.610584,-0.0117 0.04839,-6.5e-4 -0.0965,-0.008 -0.144772,-0.011 -0.159445,-0.0113 -0.278419,0.0278 -0.379381,0.1594 -0.164877,0.31896 -0.120496,0.68387 -0.156985,1.03193 -0.01787,0.23267 -0.0405,0.46501 -0.05676,0.69778 -0.0045,0.0647 -0.0098,0.12938 -0.0114,0.19421 -0.0012,0.0504 0.05267,0.14415 0.0028,0.15115 -0.600881,0.0843 -1.211575,0.069 -1.817363,0.10348 0.03434,-0.29127 -0.01306,-0.59008 0.0121,-0.88222 0.0095,-0.43131 0.0062,-0.87196 0.132368,-1.28864 0.02321,-0.0584 0.03744,-0.12132 0.06962,-0.17537 0.324933,-0.54581 1.70288,-0.33301 2.372112,-0.0507 0.288392,0.20309 0.424349,0.52432 0.601774,0.82041 0.282625,0.43446 0.680972,0.75866 1.075282,1.08976 0.461326,0.38619 0.924651,0.77056 1.392513,1.14851 0.191158,0.13046 0.377139,0.25077 0.59316,0.33695 0.631039,0.25178 1.640006,0.13048 -1.276851,0.12702 0.0343,0.0137 0.06867,0.0272 0.102905,0.041 0.01908,0.008 0.03776,0.0309 0.05703,0.0237 0.113326,-0.0425 -0.364175,-0.415 -0.317588,-0.4105 -0.494625,-0.43825 -1.019138,-0.84152 -1.518198,-1.27478 -0.591401,-0.51561 -1.189972,-1.02049 -1.826666,-1.48015 0,0 1.797981,-0.15355 1.797981,-0.15355 z"
       inkscape:connector-curvature="0" />
  </g>
</svg>
